<?xml version="1.0" encoding="UTF-8" standalone="no"?>
<!-- Created with Inkscape (http://www.inkscape.org/) -->

<svg
   xmlns:dc="http://purl.org/dc/elements/1.1/"
   xmlns:cc="http://creativecommons.org/ns#"
   xmlns:rdf="http://www.w3.org/1999/02/22-rdf-syntax-ns#"
   xmlns:svg="http://www.w3.org/2000/svg"
   xmlns="http://www.w3.org/2000/svg"
   xmlns:sodipodi="http://sodipodi.sourceforge.net/DTD/sodipodi-0.dtd"
   xmlns:inkscape="http://www.inkscape.org/namespaces/inkscape"
   width="195.43889mm"
   height="227.89444mm"
   viewBox="0 0 195.43889 227.89444"
   version="1.1"
   id="svg6643"
   inkscape:version="0.92.3 (2405546, 2018-03-11)"
   sodipodi:docname="climate.svg">
  <defs
     id="defs6637" />
  <sodipodi:namedview
     id="base"
     pagecolor="#ffffff"
     bordercolor="#666666"
     borderopacity="1.0"
     inkscape:pageopacity="0.0"
     inkscape:pageshadow="2"
     inkscape:zoom="0.24748737"
     inkscape:cx="-56.922373"
     inkscape:cy="510.0305"
     inkscape:document-units="mm"
     inkscape:current-layer="g8132"
     showgrid="false"
     fit-margin-top="0"
     fit-margin-left="0"
     fit-margin-right="0"
     fit-margin-bottom="0"
     inkscape:snap-global="false"
     inkscape:window-width="1024"
     inkscape:window-height="572"
     inkscape:window-x="0"
     inkscape:window-y="1"
     inkscape:window-maximized="1" />
  <metadata
     id="metadata6640">
    <rdf:RDF>
      <cc:Work
         rdf:about="">
        <dc:format>image/svg+xml</dc:format>
        <dc:type
           rdf:resource="http://purl.org/dc/dcmitype/StillImage" />
        <dc:title />
      </cc:Work>
    </rdf:RDF>
  </metadata>
  <g
     inkscape:label="Camada 1"
     inkscape:groupmode="layer"
     id="layer1"
     transform="translate(-206.76811,310.36353)">
    <g
       id="g8132"
       transform="translate(223.57331,-345.0917)">
      <rect
         style="fill:#f8f8ff;fill-opacity:1;fill-rule:evenodd;stroke:none;stroke-width:0.26499999;stroke-linecap:round;stroke-linejoin:round;stroke-miterlimit:4;stroke-dasharray:none;stroke-opacity:1;paint-order:fill markers stroke"
         id="rect8156"
         width="198.05951"
         height="229.80951"
         x="-16.805201"
         y="34.324989" />
      <g
         id="g946">
        <path
           inkscape:connector-curvature="0"
           id="path2435"
           style="fill:#c4f5f7;fill-opacity:1;fill-rule:nonzero;stroke:none;stroke-width:0.10590777"
           d="m 34.458064,244.22773 c 0,0 -10.833286,-12.95568 -4.780609,-29.14138 6.052678,-16.18457 13.008208,-24.10894 7.512378,-37.3815 -5.494818,-13.27146 -12.697502,-38.49676 14.862349,-34.50177 27.559859,3.99613 43.717482,3.56362 57.637598,-3.02654 24.02811,-11.37568 57.72135,-3.97498 56.19102,35.71369 -1.53131,39.68981 -12.47052,67.79823 -12.47052,67.79823 l -118.952216,0.53927" />
        <path
           inkscape:connector-curvature="0"
           id="path2437"
           style="fill:#5d2169;fill-opacity:1;fill-rule:nonzero;stroke:none;stroke-width:0.10590777"
           d="m 9.1195396,203.03467 c -6.7265448,0 -12.1982628,6.03083 -12.1982628,13.4449 0,7.41403 5.471718,13.44377 12.1982628,13.44377 6.7265434,0 12.1971484,-6.02974 12.1971484,-13.44377 0,-7.41407 -5.470605,-13.4449 -12.1971484,-13.4449 z m 0,27.55914 c -7.0604465,0 -12.8059507,-6.33218 -12.8059507,-14.11424 0,-7.7832 5.7455042,-14.11424 12.8059507,-14.11424 7.0604444,0 12.8054424,6.33104 12.8054424,14.11424 0,7.78206 -5.744998,14.11424 -12.8054424,14.11424" />
        <path
           inkscape:connector-curvature="0"
           id="path2439"
           style="fill:#5d2169;fill-opacity:1;fill-rule:nonzero;stroke:none;stroke-width:0.10590777"
           d="m 14.918001,223.7357 c 0,0.55374 -0.409562,1.00403 -0.910927,1.00403 h -2.583488 v -13.89744 h 2.583488 c 0.501365,0 0.910927,0.45033 0.910927,1.00405 z m -13.92619997,0 v -11.88936 c 0,-0.55372 0.40957087,-1.00405 0.91194197,-1.00405 h 1.7724213 v 13.89744 H 1.903743 c -0.5023711,0 -0.91194197,-0.45029 -0.91194197,-1.00403 z m 5.87412177,1.00403 H 4.2844586 v -13.89744 h 2.5814642 z m 0.6082937,-13.89744 h 3.3420915 v 13.89744 H 7.4742165 Z m 10.0756925,11.60807 h -2.02462 v -9.3198 h 2.02462 c 0.168455,0 0.303642,-0.15002 0.303642,-0.33355 0,-0.18564 -0.13517,-0.33579 -0.303642,-0.33579 h -2.02462 v -0.61488 c 0,-0.92288 -0.680927,-1.67449 -1.518215,-1.67449 H 1.903743 c -0.8382947,0 -1.51922084,0.75161 -1.51922084,1.67449 v 11.88936 c 0,0.92177 0.68092614,1.67338 1.51922084,1.67338 h 12.103331 c 0.837288,0 1.518215,-0.75161 1.518215,-1.67338 v -0.61485 h 2.02462 c 0.168455,0 0.303642,-0.15003 0.303642,-0.3347 0,-0.18563 -0.13517,-0.33579 -0.303642,-0.33579" />
        <path
           inkscape:connector-curvature="0"
           id="path2441"
           style="fill:#5d2169;fill-opacity:1;fill-rule:nonzero;stroke:none;stroke-width:0.10590777"
           d="m 5.2428017,208.02034 0.06757,0.13237 c -0.01402,0.16894 -0.2854957,0.43476 -0.4741227,0.56149 -0.143262,0.0955 -0.1896436,0.30037 -0.102885,0.45812 0.0565,0.10558 0.15636,0.16232 0.258244,0.16232 l 0.156388,-0.0479 c 0.1200427,-0.0791 0.7152224,-0.50034 0.7686904,-1.06741 0.01516,-0.18123 -0.01801,-0.44699 -0.2643057,-0.69494 -0.40351,-0.40472 -0.394431,-0.54483 -0.394431,-0.54483 0,0 0.02316,-0.0554 0.172516,-0.1311 0.153329,-0.0765 0.219927,-0.27578 0.149296,-0.44365 -0.07057,-0.168 -0.252182,-0.24111 -0.4025017,-0.16453 -0.307671,0.15665 -0.4821941,0.36918 -0.5195163,0.636 -0.060535,0.43032 0.2622753,0.81947 0.585091,1.14414" />
        <path
           inkscape:connector-curvature="0"
           id="path2443"
           style="fill:#5d2169;fill-opacity:1;fill-rule:nonzero;stroke:none;stroke-width:0.10590777"
           d="m 7.4590835,208.02034 0.0676,0.13237 c -0.01402,0.16894 -0.2854947,0.43476 -0.4751337,0.56149 -0.143262,0.0955 -0.189644,0.30037 -0.102885,0.45812 0.0565,0.10558 0.156359,0.16232 0.259244,0.16232 l 0.1563597,-0.0479 c 0.120043,-0.0791 0.7152227,-0.50034 0.7676837,-1.06741 0.01516,-0.18123 -0.01715,-0.44699 -0.2633057,-0.69494 -0.404523,-0.40472 -0.394438,-0.54483 -0.394438,-0.54483 0,0 0.0223,-0.0554 0.171487,-0.1311 0.153327,-0.0765 0.220927,-0.27578 0.150326,-0.44365 -0.0706,-0.168 -0.253213,-0.24111 -0.403518,-0.16453 -0.3076707,0.15665 -0.4811877,0.36918 -0.5185107,0.636 -0.06053,0.43032 0.262277,0.81947 0.5850887,1.14414" />
        <path
           inkscape:connector-curvature="0"
           id="path2445"
           style="fill:#5d2169;fill-opacity:1;fill-rule:nonzero;stroke:none;stroke-width:0.10590777"
           d="m 9.5704613,208.02034 0.06657,0.13237 c -0.01516,0.16894 -0.2854957,0.43476 -0.4751367,0.56149 -0.143234,0.0955 -0.190673,0.30037 -0.102886,0.45812 0.0565,0.10558 0.15736,0.16232 0.261275,0.16232 l 0.1543577,-0.0479 c 0.120043,-0.0791 0.7162377,-0.50034 0.7676837,-1.06741 0.01601,-0.18123 -0.01715,-0.44699 -0.2633047,-0.69494 -0.404525,-0.40472 -0.39443,-0.54483 -0.39443,-0.54483 0,0 0.02231,-0.0554 0.173516,-0.1311 0.151327,-0.0765 0.217896,-0.27578 0.148296,-0.44365 -0.0706,-0.168 -0.253212,-0.24111 -0.402502,-0.16453 -0.3076797,0.15665 -0.4821947,0.36918 -0.5195257,0.636 -0.05953,0.43032 0.262276,0.81947 0.5861037,1.14414" />
        <path
           inkscape:connector-curvature="0"
           id="path2447"
           style="fill:#5d2169;fill-opacity:1;fill-rule:nonzero;stroke:none;stroke-width:0.10590777"
           d="m 157.88017,124.64241 c -6.72654,0 -12.19714,6.03087 -12.19714,13.4449 0,7.41293 5.4706,13.44379 12.19714,13.44379 6.72553,0 12.19816,-6.03086 12.19816,-13.44379 0,-7.41403 -5.47263,-13.4449 -12.19816,-13.4449 z m 0,27.55915 c -7.06245,0 -12.80544,-6.33218 -12.80544,-14.11425 0,-7.78317 5.74299,-14.11425 12.80544,-14.11425 7.05944,0 12.80547,6.33108 12.80547,14.11425 0,7.78207 -5.74603,14.11425 -12.80547,14.11425" />
        <path
           inkscape:connector-curvature="0"
           id="path2449"
           style="fill:#5d2169;fill-opacity:1;fill-rule:nonzero;stroke:none;stroke-width:0.10590777"
           d="m 164.24557,138.41866 c 0.46001,0 0.9069,-8.7e-4 1.3316,-0.003 0.16756,0 0.30363,-0.15003 0.30363,-0.33469 0,-0.18469 -0.13611,-0.33469 -0.30363,-0.33469 h -0.002 c -0.40248,8.7e-4 -0.8403,8.7e-4 -1.29425,0.003 l 1.43249,-1.35649 c 0.12696,-0.1201 0.14211,-0.33246 0.0312,-0.47255 -0.1078,-0.14026 -0.29962,-0.15571 -0.42773,-0.0357 l -1.97016,1.86464 c -1.49499,0.003 -3.15647,0.004 -4.78159,0.006 0.4136,-0.49481 0.81611,-0.97739 1.20146,-1.44101 0.21389,0.0911 0.64056,0.30258 1.00876,0.49811 l 0.13211,0.0321 c 0.11208,0 0.22304,-0.069 0.27451,-0.1891 0.0726,-0.16673 0.009,-0.36693 -0.14211,-0.44586 -0.36014,-0.19131 -0.62444,-0.32691 -0.83124,-0.42363 0.61437,-0.73496 1.17221,-1.40321 1.64127,-1.96247 l 2.66218,-0.34247 c 0.16642,-0.0221 0.28649,-0.18784 0.26736,-0.37137 -0.02,-0.18344 -0.17443,-0.31912 -0.3369,-0.29469 l -1.95908,0.25245 c 0.47012,-0.5615 0.76871,-0.9162 0.81915,-0.97065 0.11696,-0.12009 0.13211,-0.32137 0.0286,-0.46032 -0.10579,-0.14121 -0.29758,-0.16232 -0.42673,-0.0435 -0.0229,0.0221 -0.32077,0.37135 -0.80501,0.94731 l 0.0778,-2.02696 c 0.006,-0.18469 -0.1241,-0.34023 -0.29153,-0.34802 -0.17243,-0.0189 -0.30869,0.13553 -0.31675,0.32133 l -0.1058,2.81307 c -0.85343,1.02072 -2.01351,2.40835 -3.27451,3.92052 0,-0.67602 -7.4e-4,-1.35764 -7.4e-4,-2.03697 l 1.01382,-0.45588 c 0.15527,-0.069 0.2299,-0.26475 0.16756,-0.43586 -0.0634,-0.17115 -0.2422,-0.2534 -0.39644,-0.18344 l -0.78686,0.35247 c 0,-0.636 -7.4e-4,-1.26531 -7.4e-4,-1.8791 l 1.71491,-2.20153 c 0.10982,-0.13994 0.0949,-0.35133 -0.0324,-0.47255 -0.1261,-0.12008 -0.31978,-0.10339 -0.42772,0.0357 l -1.25594,1.61223 c -7.4e-4,-0.68267 -0.003,-1.33868 -0.003,-1.95134 0,-0.18469 -0.13611,-0.33468 -0.30365,-0.33468 h -7.5e-4 c -0.16756,0 -0.30262,0.15002 -0.30262,0.33468 0,0.59151 7.4e-4,1.23973 0.002,1.92465 l -1.21859,-1.5833 c -0.10695,-0.1412 -0.29963,-0.15791 -0.42773,-0.0388 -0.12811,0.12008 -0.14412,0.33134 -0.0364,0.47255 l 1.68467,2.18707 c 0,1.4866 0.002,3.09993 0.003,4.68548 -0.45396,-0.53148 -0.89277,-1.0485 -1.31245,-1.54107 l 0.15728,-1.24641 c 0.0229,-0.18249 -0.0918,-0.35246 -0.25821,-0.37805 -0.16243,-0.0221 -0.31876,0.10243 -0.34298,0.2846 l -0.0909,0.71385 c -0.51852,-0.61043 -0.99262,-1.16748 -1.4002,-1.64671 l -0.11095,-2.95093 c -0.009,-0.18565 -0.15327,-0.34134 -0.31675,-0.32134 -0.16757,0.006 -0.29759,0.16359 -0.29152,0.34803 l 0.0827,2.17483 c -0.48718,-0.57268 -0.79384,-0.93847 -0.84125,-0.99852 -0.10095,-0.13773 -0.28252,-0.16799 -0.4136,-0.0634 -0.13812,0.1078 -0.16957,0.31688 -0.0726,0.46697 0.0172,0.0284 0.31474,0.3814 0.80298,0.95736 l -1.8259,-0.23576 c -0.16356,-0.0221 -0.31675,0.11126 -0.33691,0.2947 -0.02,0.18344 0.10094,0.34912 0.26622,0.37135 l 2.53806,0.3258 c 0.87362,1.02849 2.06702,2.42833 3.3643,3.94938 -0.78283,0 -1.5404,8.7e-4 -2.25259,8.7e-4 l -0.6426,-1.05629 c -0.0938,-0.15444 -0.28452,-0.19352 -0.42067,-0.0911 -0.14011,0.10244 -0.17757,0.31014 -0.0838,0.46477 l 0.41661,0.68271 c -0.67689,0 -1.29628,0 -1.83496,-8.7e-4 l -1.9762,-1.87129 c -0.12811,-0.12008 -0.32081,-0.10463 -0.42976,0.0357 -0.1098,0.14026 -0.0949,0.35247 0.0324,0.47255 l 1.43851,1.36205 c -0.70007,-8.7e-4 -1.14496,-0.004 -1.21556,-0.006 -0.15727,-0.0158 -0.30365,0.11221 -0.32684,0.28902 -0.02,0.18343 0.0958,0.35247 0.26336,0.37693 0.0312,0.004 0.51449,0.006 1.30435,0.01 l -1.46171,1.36652 c -0.1281,0.11788 -0.14412,0.33022 -0.0355,0.47032 l 0.23105,0.11882 0.19759,-0.0788 2.00544,-1.87574 c 0.66279,8.7e-4 1.44155,8.7e-4 2.29801,8.7e-4 0.77979,0 1.62413,0 2.49472,0 -0.59316,0.71161 -1.19643,1.43546 -1.79059,2.14816 l -1.27409,-0.40919 c -0.16442,-0.0533 -0.32887,0.0502 -0.37526,0.22788 -0.0475,0.17776 0.0444,0.36358 0.20589,0.41585 l 0.98457,0.31577 c -0.25823,0.30793 -0.51146,0.61378 -0.76064,0.91399 l -2.61476,0.33576 c -0.16756,0.0221 -0.28749,0.18786 -0.26823,0.37137 0.02,0.18344 0.17158,0.31579 0.33794,0.29344 l 1.91469,-0.24584 c -0.38131,0.45698 -0.74751,0.89618 -1.09151,1.3098 -0.11409,0.13677 -0.10495,0.34915 0.0172,0.47368 l 0.20474,0.0889 0.22391,-0.10906 c 0.3329,-0.39917 0.69303,-0.83169 1.07332,-1.28981 l -0.0766,2.07369 c -0.006,0.1847 0.1221,0.34134 0.29156,0.34913 h 0.0114 c 0.16242,0 0.29759,-0.14119 0.30362,-0.32245 l 0.10809,-2.86421 c 0.94019,-1.12745 1.96614,-2.35832 2.97492,-3.56805 0,0.74052 0,1.45882 0,2.14373 l -0.98357,1.03628 c -0.12095,0.12796 -0.1241,0.34023 -0.009,0.47255 l 0.21876,0.10464 0.21074,-0.0933 0.5639,-0.59376 c 0,0.6349 -7.4e-4,1.22419 -7.4e-4,1.75791 l -1.6867,2.1626 c -0.10809,0.14121 -0.0938,0.35137 0.0331,0.47256 0.12811,0.12134 0.31981,0.10463 0.42773,-0.0357 l 1.22466,-1.57221 c -7.5e-4,1.01072 -0.003,1.66225 -0.006,1.75233 -0.0114,0.17682 0.1018,0.33579 0.26222,0.35915 l 0.0403,0.003 c 0.15041,0 0.28051,-0.12134 0.30164,-0.29027 0.006,-0.0409 0.006,-0.74721 0.0114,-1.87797 l 1.25087,1.62446 0.23105,0.11914 0.19674,-0.0801 c 0.12696,-0.1201 0.14212,-0.33026 0.0355,-0.47145 l -1.71155,-2.22612 c 0,-1.31648 0,-2.97429 0,-4.75886 0.47615,0.56149 0.96238,1.12966 1.44355,1.69339 l -0.0143,0.0835 v 1.02292 c 0,0.1847 0.13611,0.33469 0.30366,0.33469 0.16842,0 0.30262,-0.15003 0.30262,-0.33469 v -0.41251 c 0.30565,0.35804 0.60728,0.71273 0.90488,1.05964 l 0.0978,2.62406 c 0.006,0.17996 0.14326,0.32132 0.30365,0.32132 h 0.0143 c 0.16756,-0.006 0.29759,-0.16452 0.28953,-0.34912 l -0.0686,-1.85017 c 0.40654,0.47586 0.79792,0.93287 1.16311,1.36205 l 0.22104,0.10558 0.20989,-0.0911 c 0.12211,-0.12671 0.12811,-0.33803 0.0114,-0.47369 -0.42167,-0.49476 -0.89174,-1.04403 -1.38907,-1.62666 l 2.12046,0.27356 c 0.16327,0.0189 0.31775,-0.11126 0.33794,-0.29469 0.0171,-0.18344 -0.1018,-0.35023 -0.26823,-0.37138 l -2.71867,-0.35022 -0.097,0.0126 c -0.88672,-1.04072 -1.84003,-2.15816 -2.77618,-3.25561 0.78382,-8.7e-4 1.57471,-8.7e-4 2.36157,-0.003 l 0.75255,1.0574 0.23905,0.12796 0.18673,-0.0712 c 0.13325,-0.1144 0.15641,-0.32576 0.0523,-0.4714 l -0.45876,-0.64366 c 0.54274,-8.7e-4 1.07235,-8.7e-4 1.59288,-8.7e-4 l 2.0125,1.8802 0.19559,0.0788 0.23306,-0.11913 c 0.10781,-0.13995 0.0929,-0.35247 -0.0355,-0.47031 l -1.46676,-1.37208" />
        <path
           inkscape:connector-curvature="0"
           id="path2451"
           style="fill:#5d2169;fill-opacity:1;fill-rule:nonzero;stroke:none;stroke-width:0.10590777"
           d="m 74.552004,114.78 c -6.726547,0 -12.198165,6.03197 -12.198165,13.4449 0,7.41293 5.471618,13.44379 12.198165,13.44379 6.725529,0 12.19715,-6.03086 12.19715,-13.44379 0,-7.41293 -5.471621,-13.4449 -12.19715,-13.4449 z m 0,27.55804 c -7.060449,0 -12.805452,-6.33107 -12.805452,-14.11314 0,-7.78317 5.745003,-14.11425 12.805452,-14.11425 7.060446,0 12.805445,6.33108 12.805445,14.11425 0,7.78207 -5.744999,14.11314 -12.805445,14.11314" />
        <path
           inkscape:connector-curvature="0"
           id="path2453"
           style="fill:#5d2169;fill-opacity:1;fill-rule:nonzero;stroke:none;stroke-width:0.10590777"
           d="m 66.616944,129.62367 c -0.160391,0 -0.293557,-0.139 -0.302636,-0.31688 -0.0092,-0.1847 0.120044,-0.34248 0.286488,-0.35247 0.01916,0 1.87835,-0.13017 3.241209,-1.68341 0.901851,-1.02849 1.68164,-1.50214 2.372651,-1.44768 0.51347,0.0388 0.979528,0.36917 1.383036,0.98069 l 0.03834,0.059 c 0.814086,1.23307 1.075358,1.58888 1.690718,1.58888 0.149297,0 0.367193,-0.39914 0.558859,-0.75162 0.432768,-0.7939 1.024922,-1.8813 2.327253,-1.8813 0.945233,0 1.522249,0.68158 2.08011,1.34203 0.679911,0.80167 1.268034,1.49438 2.489663,1.08186 0.162421,-0.0554 0.330882,0.0466 0.380313,0.22251 0.04841,0.17683 -0.04238,0.3647 -0.201769,0.41806 -1.586807,0.53593 -2.396861,-0.4214 -3.112081,-1.26642 -0.513472,-0.60596 -0.955318,-1.12857 -1.636244,-1.12857 -0.958335,0 -1.408254,0.82725 -1.806724,1.55664 -0.300615,0.55371 -0.586096,1.07741 -1.079388,1.07741 -0.952291,0 -1.38909,-0.66266 -2.180985,-1.86574 l -0.04032,-0.059 c -0.295576,-0.44919 -0.601234,-0.68046 -0.934132,-0.70603 -0.496321,-0.0435 -1.134877,0.38027 -1.892467,1.24531 -1.534354,1.74786 -3.560996,1.88241 -3.646739,1.88685 h -0.01516" />
        <path
           inkscape:connector-curvature="0"
           id="path2455"
           style="fill:#5d2169;fill-opacity:1;fill-rule:nonzero;stroke:none;stroke-width:0.10590777"
           d="m 66.616944,132.75916 c -0.160391,0 -0.293557,-0.13899 -0.302636,-0.31687 -0.0092,-0.1847 0.120044,-0.34248 0.286488,-0.35248 0.01916,-8.7e-4 1.87835,-0.13016 3.241209,-1.68451 0.901851,-1.02738 1.68164,-1.49659 2.372651,-1.44654 0.51347,0.0388 0.979528,0.36914 1.383036,0.98069 l 0.03834,0.059 c 0.814086,1.23308 1.075358,1.58888 1.690718,1.58888 0.149297,0 0.367193,-0.39918 0.558859,-0.75164 0.432768,-0.79387 1.024922,-1.88131 2.327253,-1.88131 0.945233,0 1.522249,0.68157 2.08011,1.34203 0.679911,0.80166 1.268034,1.4955 2.489663,1.08186 0.162421,-0.0554 0.330882,0.0457 0.380313,0.22252 0.04841,0.17682 -0.04238,0.36469 -0.201769,0.41809 -1.586807,0.53592 -2.396861,-0.42141 -3.112081,-1.26646 -0.513472,-0.60487 -0.955318,-1.12857 -1.636244,-1.12857 -0.958335,0 -1.408254,0.82725 -1.806724,1.55664 -0.300615,0.55374 -0.586096,1.07744 -1.079388,1.07744 -0.952291,0 -1.38909,-0.66268 -2.180985,-1.86576 l -0.04032,-0.059 c -0.295576,-0.45031 -0.601234,-0.68048 -0.934132,-0.70714 -0.496321,-0.0366 -1.134877,0.38136 -1.892467,1.24641 -1.534354,1.74789 -3.560996,1.8824 -3.646739,1.88688 h -0.01516" />
        <path
           inkscape:connector-curvature="0"
           id="path2457"
           style="fill:#5d2169;fill-opacity:1;fill-rule:nonzero;stroke:none;stroke-width:0.10590777"
           d="m 66.616944,135.8958 c -0.160391,0 -0.293557,-0.13899 -0.302636,-0.31801 -0.0092,-0.18469 0.120044,-0.34134 0.286488,-0.35137 0.01916,-0.003 1.87835,-0.13111 3.241209,-1.68561 0.901851,-1.02737 1.68164,-1.4966 2.372651,-1.44654 0.51347,0.0388 0.979528,0.37023 1.383036,0.98068 l 0.03834,0.059 c 0.814086,1.23418 1.075358,1.58888 1.690718,1.58888 0.149297,0 0.367193,-0.39917 0.558859,-0.75164 0.432768,-0.79387 1.024922,-1.88131 2.327253,-1.88131 0.945233,0 1.522249,0.68158 2.08011,1.34093 0.679911,0.80281 1.268034,1.49771 2.489663,1.083 0.162421,-0.0554 0.330882,0.0466 0.380313,0.22251 0.04841,0.17682 -0.04238,0.3647 -0.201769,0.41806 -1.586807,0.53483 -2.396861,-0.4214 -3.112081,-1.26642 -0.513472,-0.60487 -0.955318,-1.12857 -1.636244,-1.12857 -0.958335,0 -1.408254,0.82722 -1.806724,1.55663 -0.300615,0.55372 -0.586096,1.07742 -1.079388,1.07742 -0.952291,0 -1.38909,-0.6627 -2.180985,-1.86574 l -0.04032,-0.059 c -0.295576,-0.44923 -0.601234,-0.68047 -0.934132,-0.70717 -0.496321,-0.0388 -1.134877,0.38027 -1.892467,1.24531 -1.534354,1.7501 -3.560996,1.88354 -3.646739,1.88798 l -0.01516,8.7e-4" />
        <path
           inkscape:connector-curvature="0"
           id="path2459"
           style="fill:#5d2169;fill-opacity:1;fill-rule:nonzero;stroke:none;stroke-width:0.10590777"
           d="m 68.637525,122.61991 h -0.961364 v -1.14414 c 0,-0.18564 -0.136171,-0.33466 -0.304654,-0.33466 -0.167454,0 -0.302633,0.14909 -0.302633,0.33466 v 1.14414 H 66.15694 c -0.168484,0 -0.303648,0.14907 -0.303648,0.33468 0,0.18564 0.13517,0.33466 0.303648,0.33466 h 0.911934 v 1.14413 c 0,0.1847 0.13517,0.3347 0.302633,0.3347 0.168454,0 0.304654,-0.15004 0.304654,-0.3347 v -1.14413 h 0.961364 c 0.168455,0 0.304651,-0.14908 0.304651,-0.33466 0,-0.18564 -0.136199,-0.33468 -0.304651,-0.33468" />
        <path
           inkscape:connector-curvature="0"
           id="path2461"
           style="fill:#5d2169;fill-opacity:1;fill-rule:nonzero;stroke:none;stroke-width:0.10590777"
           d="m 82.871408,122.42421 h -2.637962 c -0.167454,0 -0.303639,-0.14908 -0.303639,-0.33466 0,-0.1847 0.136199,-0.33469 0.303639,-0.33469 h 2.637962 c 0.168455,0 0.303639,0.15002 0.303639,0.33469 0,0.18564 -0.13517,0.33466 -0.303639,0.33466" />
        <path
           inkscape:connector-curvature="0"
           id="path2463"
           style="fill:#5d2169;fill-opacity:1;fill-rule:nonzero;stroke:none;stroke-width:0.10590777"
           d="m 17.853551,139.03798 c -6.725531,0 -12.1971493,6.03197 -12.1971493,13.44377 0,7.41406 5.4716183,13.44491 12.1971493,13.44491 6.72553,0 12.198163,-6.03085 12.198163,-13.44491 0,-7.4118 -5.472633,-13.44377 -12.198163,-13.44377 z m 0,27.55915 c -7.060449,0 -12.805443,-6.33218 -12.805443,-14.11538 0,-7.78096 5.744994,-14.11314 12.805443,-14.11314 7.061453,0 12.805445,6.33218 12.805445,14.11314 0,7.7832 -5.743992,14.11538 -12.805445,14.11538" />
        <path
           inkscape:connector-curvature="0"
           id="path2465"
           style="fill:#5d2169;fill-opacity:1;fill-rule:nonzero;stroke:none;stroke-width:0.10590777"
           d="m 17.184729,142.92289 c -0.449919,0 -0.778775,0.12008 -0.975486,0.3558 -0.235054,0.2802 -0.215895,0.64603 -0.215895,0.65048 l 0.0022,12.86336 c 0,0.17335 -0.120044,0.31801 -0.276403,0.33358 -0.429739,0.0435 -1.546458,0.4981 -1.546458,2.06699 0,1.70786 0.223959,3.01321 3.03743,3.01321 3.079805,0 3.544856,-0.60266 3.544856,-2.67852 0,-2.08593 -1.789581,-2.39168 -1.866245,-2.40392 -0.149296,-0.0221 -0.260275,-0.16451 -0.260275,-0.33134 v -12.7244 c 0,-0.96956 0,-1.14524 -1.443563,-1.14524 z m 0.02517,19.95386 c -3.364278,0 -3.645727,-1.82013 -3.645727,-3.68365 0,-1.65782 1.006759,-2.47061 1.82387,-2.68298 v -12.5543 c -0.0022,0 -0.04238,-0.63266 0.374258,-1.13187 0.31676,-0.37806 0.795929,-0.57041 1.422381,-0.57041 1.648348,0 2.05085,0.3569 2.05085,1.81459 v 12.45088 c 0.855441,0.24237 2.126504,1.08854 2.126504,3.00878 0,2.59732 -0.931099,3.34896 -4.152136,3.34896" />
        <path
           inkscape:connector-curvature="0"
           id="path2467"
           style="fill:#5d2169;fill-opacity:1;fill-rule:nonzero;stroke:none;stroke-width:0.10590777"
           d="m 22.426347,152.16042 h -2.077073 c -0.167454,0 -0.303648,-0.15001 -0.303648,-0.33469 0,-0.18563 0.136171,-0.33466 0.303648,-0.33466 h 2.077073 c 0.167454,0 0.30364,0.14909 0.30364,0.33466 0,0.1847 -0.1362,0.33469 -0.30364,0.33469" />
        <path
           inkscape:connector-curvature="0"
           id="path2469"
           style="fill:#5d2169;fill-opacity:1;fill-rule:nonzero;stroke:none;stroke-width:0.10590777"
           d="m 22.426347,150.26245 h -2.077073 c -0.167454,0 -0.303648,-0.15003 -0.303648,-0.3347 0,-0.18469 0.136171,-0.33465 0.303648,-0.33465 h 2.077073 c 0.167454,0 0.30364,0.15002 0.30364,0.33465 0,0.1847 -0.1362,0.3347 -0.30364,0.3347" />
        <path
           inkscape:connector-curvature="0"
           id="path2471"
           style="fill:#5d2169;fill-opacity:1;fill-rule:nonzero;stroke:none;stroke-width:0.10590777"
           d="m 22.426347,148.36446 h -2.077073 c -0.167454,0 -0.303648,-0.14907 -0.303648,-0.33468 0,-0.1847 0.136171,-0.33469 0.303648,-0.33469 h 2.077073 c 0.167454,0 0.30364,0.15002 0.30364,0.33469 0,0.18563 -0.1362,0.33468 -0.30364,0.33468" />
        <path
           inkscape:connector-curvature="0"
           id="path2473"
           style="fill:#5d2169;fill-opacity:1;fill-rule:nonzero;stroke:none;stroke-width:0.10590777"
           d="m 22.426347,146.46759 h -2.077073 c -0.167454,0 -0.303648,-0.15002 -0.303648,-0.3347 0,-0.18562 0.136171,-0.33578 0.303648,-0.33578 h 2.077073 c 0.167454,0 0.30364,0.15002 0.30364,0.33578 0,0.1847 -0.1362,0.3347 -0.30364,0.3347" />
        <path
           inkscape:connector-curvature="0"
           id="path2475"
           style="fill:#5d2169;fill-opacity:1;fill-rule:nonzero;stroke:none;stroke-width:0.10590777"
           d="m 22.426347,144.56961 h -2.077073 c -0.167454,0 -0.303648,-0.14908 -0.303648,-0.33469 0,-0.18564 0.136171,-0.3347 0.303648,-0.3347 h 2.077073 c 0.167454,0 0.30364,0.14909 0.30364,0.3347 0,0.18564 -0.1362,0.33469 -0.30364,0.33469" />
        <path
           inkscape:connector-curvature="0"
           id="path2477"
           style="fill:#5d2169;fill-opacity:1;fill-rule:nonzero;stroke:none;stroke-width:0.10590777"
           d="m 16.571388,158.03339 -0.01201,-7.12716 c 0,0 -0.152328,-1.76012 0.650661,-1.76012 1.113693,0 0.917995,1.03518 0.993652,2.47618 0.03025,0.58929 0,6.4111 0,6.4111 0,0 1.071324,0.16894 1.071324,1.37875 0,1.20862 -0.382331,1.51772 -1.938874,1.51772 -1.556547,0 -1.683653,-0.78722 -1.683653,-1.68675 0,-0.89949 0.637545,-1.18082 0.918994,-1.20972" />
        <path
           inkscape:connector-curvature="0"
           id="path2479"
           style="fill:#ffc152;fill-opacity:1;fill-rule:nonzero;stroke:none;stroke-width:0.10590777"
           d="m 133.22762,179.38044 h -5.99415 c -0.26937,0 -0.48826,-0.24111 -0.48826,-0.53928 0,-0.29784 0.21875,-0.53923 0.48826,-0.53923 h 5.99415 c 0.27137,0 0.49027,0.24111 0.49027,0.53923 0,0.29785 -0.21875,0.53928 -0.49027,0.53928 z m 0,1.95472 h -5.99415 c -0.26937,0 -0.48826,-0.24144 -0.48826,-0.53928 0,-0.29785 0.21875,-0.53816 0.48826,-0.53816 h 5.99415 c 0.27137,0 0.49027,0.24015 0.49027,0.53816 0,0.29784 -0.21875,0.53928 -0.49027,0.53928 z m 0,2.22485 h -5.99415 c -0.26937,0 -0.48826,-0.24112 -0.48826,-0.53924 0,-0.29785 0.21875,-0.53928 0.48826,-0.53928 h 5.99415 c 0.27137,0 0.49027,0.24112 0.49027,0.53928 0,0.29784 -0.21875,0.53924 -0.49027,0.53924 z m -2.99707,-13.07684 c 1.5525,0 2.81349,1.38985 2.81349,3.10102 0,1.70897 -1.26099,3.09995 -2.81349,3.09995 -1.5505,0 -2.81249,-1.39098 -2.81249,-3.09995 0,-1.71117 1.26199,-3.10102 2.81249,-3.10102 z m 6.42288,22.78358 -0.9795,-24.91842 c 0,-0.32022 -0.2199,-0.56149 -0.48827,-0.56149 h -9.90822 c -0.27023,0 -0.49027,0.24111 -0.49027,0.53927 l -0.97851,24.96399 c 7.5e-4,0.27452 0.2199,0.51592 0.49027,0.51592 h 11.86423 c 0.26936,0 0.49027,-0.24143 0.49027,-0.53927" />
        <path
           inkscape:connector-curvature="0"
           id="path2481"
           style="fill:#32e2f9;fill-opacity:1;fill-rule:nonzero;stroke:none;stroke-width:0.10590777"
           d="m 130.23055,175.6056 c 1.01178,0 1.83496,-0.90731 1.83496,-2.02141 0,-1.11633 -0.82318,-2.02251 -1.83496,-2.02251 -1.01079,0 -1.83397,0.90618 -1.83397,2.02251 0,1.1141 0.82318,2.02141 1.83397,2.02141" />
        <path
           inkscape:connector-curvature="0"
           id="path2483"
           style="fill:#ff9b01;fill-opacity:1;fill-rule:nonzero;stroke:none;stroke-width:0.10590777"
           d="m 93.081259,168.32611 0.838294,-4.24295 c -0.123069,0.0366 -0.250182,0.0634 -0.383329,0.0634 h -0.9311 l -0.989619,3.27114 c -0.06657,0.22032 -0.253213,0.36915 -0.464039,0.36915 H 40.390694 c -0.228992,0 -0.427721,-0.17556 -0.477157,-0.42253 l -0.648641,-3.21776 h -0.892769 c -0.09079,0 -0.179551,-0.0126 -0.266309,-0.0315 l 0.843342,4.2096 h 54.132108" />
        <path
           inkscape:connector-curvature="0"
           id="path2485"
           style="fill:#ff9b01;fill-opacity:1;fill-rule:nonzero;stroke:none;stroke-width:0.10590777"
           d="m 91.349183,164.88816 0.224968,-0.74164 H 40.266613 l 0.150325,0.74164 h 50.932264" />
        <path
           inkscape:connector-curvature="0"
           id="path2487"
           style="fill:#ff9b01;fill-opacity:1;fill-rule:nonzero;stroke:none;stroke-width:0.10590777"
           d="M 40.78311,166.7083 H 90.7984 l 0.223954,-0.74162 H 40.633817 l 0.149296,0.74162" />
        <path
           inkscape:connector-curvature="0"
           id="path2489"
           style="fill:#d1c8ed;fill-opacity:1;fill-rule:nonzero;stroke:none;stroke-width:0.10590777"
           d="m 43.815502,206.2091 c -0.809046,0 -1.467773,0.72494 -1.467773,1.61779 v 28.11285 c 0,0.89284 0.658727,1.61778 1.467773,1.61778 h 7.257153 V 206.2091 h -7.257153" />
        <path
           inkscape:connector-curvature="0"
           id="path2491"
           style="fill:#d1c8ed;fill-opacity:1;fill-rule:nonzero;stroke:none;stroke-width:0.10590777"
           d="m 88.092849,206.2091 h -7.989534 v 31.34842 h 7.989534 l 0.246148,-0.0284 v -31.29506 l -0.246148,-0.0252" />
        <path
           inkscape:connector-curvature="0"
           id="path2493"
           style="fill:#d1c8ed;fill-opacity:1;fill-rule:nonzero;stroke:none;stroke-width:0.10590777"
           d="m 52.052182,206.2091 v 31.34842 h 7.66471 V 206.2091 h -7.66471" />
        <path
           inkscape:connector-curvature="0"
           id="path2495"
           style="fill:#d1c8ed;fill-opacity:1;fill-rule:nonzero;stroke:none;stroke-width:0.10590777"
           d="m 70.317142,206.2091 v 31.34842 h 8.806645 V 206.2091 h -8.806645" />
        <path
           inkscape:connector-curvature="0"
           id="path2497"
           style="fill:#d1c8ed;fill-opacity:1;fill-rule:nonzero;stroke:none;stroke-width:0.10590777"
           d="m 60.694398,206.2091 v 31.34842 h 8.64423 V 206.2091 h -8.64423" />
        <path
           inkscape:connector-curvature="0"
           id="path2499"
           style="fill:#ff754a;fill-opacity:1;fill-rule:nonzero;stroke:none;stroke-width:0.10590777"
           d="m 38.372127,163.068 h 55.164097 c 0.270338,0 0.489254,-0.24111 0.489254,-0.53927 v -7.54969 c 0,-0.2969 -0.218896,-0.53927 -0.489254,-0.53927 H 38.372127 c -0.26934,0 -0.489263,0.24237 -0.489263,0.53927 v 7.54969 c 0,0.29785 0.219926,0.53927 0.489263,0.53927" />
        <path
           inkscape:connector-curvature="0"
           id="path2501"
           style="fill:#5d2169;fill-opacity:1;fill-rule:nonzero;stroke:none;stroke-width:0.10590777"
           d="m 162.46005,243.68846 h -8.07226 v 0.53813 c 0,0.29911 -0.21875,0.54038 -0.48826,0.54038 h 8.56052 c 0.27252,0 0.49027,-0.24111 0.49027,-0.54038 0,-0.29689 -0.2179,-0.53813 -0.49027,-0.53813" />
        <path
           inkscape:connector-curvature="0"
           id="path2503"
           style="fill:#5d2169;fill-opacity:1;fill-rule:nonzero;stroke:none;stroke-width:0.10590777"
           d="m 94.025478,162.52873 c 0,0.29785 -0.218896,0.53927 -0.489254,0.53927 H 38.372127 c -0.26934,0 -0.489263,-0.24111 -0.489263,-0.53927 v -7.54969 c 0,-0.2969 0.219926,-0.53927 0.489263,-0.53927 h 55.164097 c 0.270338,0 0.489254,0.24237 0.489254,0.53927 z m -3.003134,3.43795 -0.223964,0.74162 H 40.78311 l -0.149296,-0.74162 z m -50.60542,-1.07852 -0.150311,-0.74164 h 51.307528 l -0.224958,0.74164 z m 52.664335,3.43795 h -54.13211 l -0.843342,-4.2096 c 0.08675,0.0188 0.175518,0.0315 0.266308,0.0315 h 0.892769 l 0.648643,3.21779 c 0.04941,0.24679 0.24815,0.4225 0.477155,0.4225 h 50.760774 c 0.210836,0 0.397461,-0.14908 0.46404,-0.36914 l 0.989608,-3.27115 h 0.93111 c 0.133166,0 0.26027,-0.0252 0.383329,-0.0634 z m 1.922731,-13.34707 c 0,-0.89284 -0.657726,-1.61778 -1.467766,-1.61778 H 38.372127 c -0.809039,0 -1.467776,0.72494 -1.467776,1.61778 v 7.54969 c 0,0.12355 0.01516,0.24237 0.03834,0.35691 -0.03025,0.0945 -0.04744,0.19353 -0.02631,0.29785 l 1.161108,5.79848 c 0.05047,0.24584 0.249179,0.42249 0.478162,0.42249 H 93.47461 c 0.23102,0 0.429741,-0.1768 0.479175,-0.42473 l 1.039035,-5.25808 c 0.0364,-0.18689 -0.0251,-0.36583 -0.14023,-0.49146 0.0939,-0.21337 0.15132,-0.44918 0.15132,-0.70159 v -7.54968" />
        <path
           inkscape:connector-curvature="0"
           id="path2505"
           style="fill:#5d2169;fill-opacity:1;fill-rule:nonzero;stroke:none;stroke-width:0.10590777"
           d="m 154.38779,244.22659 v -0.53813 h -2.20015 v 0.53813 c 0,0.29911 0.21789,0.54038 0.48824,0.54038 h 1.22365 c 0.26936,0 0.48826,-0.24111 0.48826,-0.54038" />
        <path
           inkscape:connector-curvature="0"
           id="path2507"
           style="fill:#5d2169;fill-opacity:1;fill-rule:nonzero;stroke:none;stroke-width:0.10590777"
           d="m 123.80866,193.2901 0.97851,-24.96399 c 0,-0.29784 0.2199,-0.53927 0.49027,-0.53927 h 9.90822 c 0.26822,0 0.48827,0.24111 0.48827,0.56149 l 0.9795,24.91842 c 0,0.29784 -0.22104,0.53927 -0.49027,0.53927 h 1.37398 c 0.0575,-0.17555 0.0938,-0.36359 0.0938,-0.56259 l -0.9775,-24.91732 c 0,-0.89287 -0.65975,-1.61781 -1.46777,-1.61781 h -9.90825 c -0.81005,0 -1.46777,0.72494 -1.46777,1.59446 l -0.97854,24.96399 c 0,0.19005 0.0355,0.37027 0.0898,0.53927 h 1.378 c -0.27051,0 -0.48926,-0.24143 -0.49026,-0.51592" />
        <path
           inkscape:connector-curvature="0"
           id="path2509"
           style="fill:#5d2169;fill-opacity:1;fill-rule:nonzero;stroke:none;stroke-width:0.10590777"
           d="m 155.48936,197.71542 h -52.5554 v -2.83085 h 52.5554 z m -53.53289,14.24655 H 90.539134 v -13.16804 h 11.417336 z m 0,19.95276 H 90.539134 V 213.03939 H 101.95647 Z M 89.560616,205.68315 v 38.00531 h -0.24411 v -44.89453 h 0.24411 z m -2.07909,-7.96773 v -2.83085 h 14.474944 v 2.83085 H 90.050884 88.827242 Z m 0.857462,39.81543 -0.246148,0.0252 h -7.989534 v -31.34856 h 7.989534 l 0.246148,0.0252 z m -9.215201,0.0252 h -8.806645 v -31.34856 h 8.806645 z m -9.785159,0 h -8.64423 v -31.34856 h 8.64423 z m -9.621736,0 h -7.66471 V 206.2075 h 7.66471 z m -8.644237,0 h -7.257153 c -0.809046,0 -1.467773,-0.72495 -1.467773,-1.61779 v -28.1129 c 0,-0.89283 0.658727,-1.61778 1.467773,-1.61778 h 7.257153 z M 155.97763,193.80602 h -53.04367 v -47.99444 c 0,-0.29785 -0.21789,-0.53927 -0.48823,-0.53927 -0.27137,0 -0.48926,0.24111 -0.48926,0.53927 v 47.99444 H 86.993281 c -0.27137,0 -0.490267,0.24111 -0.490267,0.53927 v 3.90937 c 0,0.29784 0.218897,0.53927 0.490267,0.53927 h 1.345707 v 6.36442 l -0.246148,-0.0284 h -8.479801 -9.78516 -9.621744 -8.643222 -7.74742 c -1.348739,0 -2.446296,1.20972 -2.446296,2.69632 v 28.11287 c 0,1.48771 1.097557,2.69742 2.446296,2.69742 h 7.74742 8.643222 9.621744 9.78516 8.479801 l 0.246148,-0.0252 v 5.07799 H 24.490312 c -0.27137,0 -0.490267,0.24143 -0.490267,0.53813 0,0.29911 0.218897,0.54038 0.490267,0.54038 h 64.33693 1.223642 62.624996 c -0.27023,0 -0.48824,-0.24111 -0.48824,-0.54038 V 243.6894 H 90.539134 v -7.74872 -2.94649 h 11.906596 c 0.27022,0 0.48823,-0.24111 0.48823,-0.53927 v -19.95386 -13.70619 h 49.25368 v 44.89453 h 0.9765 v -44.89453 h 0.2462 v 44.89453 h 0.97751 v -44.89453 h 1.58984 c 0.27022,0 0.49127,-0.24111 0.49127,-0.53927 v -3.90936 c 0,-0.29785 -0.22105,-0.53928 -0.49127,-0.53928" />
        <path
           inkscape:connector-curvature="0"
           id="path2511"
           style="fill:#5d2169;fill-opacity:1;fill-rule:nonzero;stroke:none;stroke-width:0.10590777"
           d="m 130.23055,171.56168 c 1.01178,0 1.83496,0.90618 1.83496,2.02251 0,1.1141 -0.82318,2.02141 -1.83496,2.02141 -1.01079,0 -1.83397,-0.90731 -1.83397,-2.02141 0,-1.11633 0.82318,-2.02251 1.83397,-2.02251 z m 0,5.12246 c 1.5525,0 2.81349,-1.39098 2.81349,-3.09995 0,-1.71117 -1.26099,-3.10102 -2.81349,-3.10102 -1.5505,0 -2.81249,1.38985 -2.81249,3.10102 0,1.70897 1.26199,3.09995 2.81249,3.09995" />
        <path
           inkscape:connector-curvature="0"
           id="path2513"
           style="fill:#5d2169;fill-opacity:1;fill-rule:nonzero;stroke:none;stroke-width:0.10590777"
           d="m 133.22762,178.30193 h -5.99415 c -0.26937,0 -0.48826,0.24111 -0.48826,0.53923 0,0.29785 0.21875,0.53928 0.48826,0.53928 h 5.99415 c 0.27137,0 0.49027,-0.24111 0.49027,-0.53928 0,-0.29784 -0.21875,-0.53923 -0.49027,-0.53923" />
        <path
           inkscape:connector-curvature="0"
           id="path2515"
           style="fill:#5d2169;fill-opacity:1;fill-rule:nonzero;stroke:none;stroke-width:0.10590777"
           d="m 133.22762,180.25772 h -5.99415 c -0.26937,0 -0.48826,0.24015 -0.48826,0.53816 0,0.29784 0.21875,0.53928 0.48826,0.53928 h 5.99415 c 0.27137,0 0.49027,-0.24144 0.49027,-0.53928 0,-0.29785 -0.21875,-0.53816 -0.49027,-0.53816" />
        <path
           inkscape:connector-curvature="0"
           id="path2517"
           style="fill:#5d2169;fill-opacity:1;fill-rule:nonzero;stroke:none;stroke-width:0.10590777"
           d="m 133.22762,182.48149 h -5.99415 c -0.26937,0 -0.48826,0.24112 -0.48826,0.53928 0,0.29784 0.21875,0.53924 0.48826,0.53924 h 5.99415 c 0.27137,0 0.49027,-0.24112 0.49027,-0.53924 0,-0.29785 -0.21875,-0.53928 -0.49027,-0.53928" />
        <path
           inkscape:connector-curvature="0"
           id="path2519"
           style="fill:#5d2169;fill-opacity:1;fill-rule:nonzero;stroke:none;stroke-width:0.10590777"
           d="m 126.9631,158.52818 c 0.50037,0.36804 0.65975,0.98957 0.70616,1.44656 0.10695,1.06073 -0.27937,2.2171 -0.71522,2.72078 -0.18673,0.21686 -0.17844,0.55816 0.0171,0.76388 0.0949,0.0977 0.21589,0.14781 0.33692,0.14781 0.12924,0 0.25935,-0.0568 0.35509,-0.16672 0.69507,-0.80615 1.10764,-2.31497 0.97854,-3.58583 -0.0998,-0.98179 -0.49231,-1.75011 -1.1359,-2.22378 -0.28338,-0.20803 -0.29859,-0.37136 -0.30365,-0.42474 -0.0414,-0.42919 0.52458,-1.07073 0.79592,-1.37983 0.21876,-0.24805 0.33794,-0.3836 0.38335,-0.58153 0.0655,-0.28902 -0.0938,-0.58152 -0.3561,-0.65378 -0.2259,-0.0634 -0.45901,0.0611 -0.55787,0.28461 l -0.17043,0.19887 c -0.43276,0.49146 -1.15804,1.31313 -1.06829,2.2449 0.0463,0.47809 0.29357,0.88506 0.73439,1.20862" />
        <path
           inkscape:connector-curvature="0"
           id="path2521"
           style="fill:#5d2169;fill-opacity:1;fill-rule:nonzero;stroke:none;stroke-width:0.10590777"
           d="m 129.95112,159.53109 c 1.24683,0.96958 -0.13212,3.78377 -0.14641,3.81267 -0.13212,0.25908 -0.0495,0.58818 0.18758,0.73383 l 0.2382,0.069 c 0.17157,0 0.33694,-0.099 0.42772,-0.27453 0.0758,-0.15002 1.84404,-3.67811 -0.14611,-5.22252 -0.36823,-0.28587 -0.55484,-0.59263 -0.56493,-0.93508 -0.0229,-0.59377 0.47414,-1.40989 1.32957,-2.18486 0.20874,-0.1891 0.23819,-0.52814 0.0646,-0.75832 -0.16957,-0.23008 -0.47817,-0.26254 -0.68698,-0.0735 -0.64865,0.58818 -1.73107,1.76901 -1.68566,3.05657 0.0229,0.6927 0.35407,1.29091 0.98253,1.77679" />
        <path
           inkscape:connector-curvature="0"
           id="path2523"
           style="fill:#5d2169;fill-opacity:1;fill-rule:nonzero;stroke:none;stroke-width:0.10590777"
           d="m 48.622336,171.77515 0.318769,-1.57999 c 0.05848,-0.29028 -0.107947,-0.57817 -0.371225,-0.64376 -0.260275,-0.0576 -0.525576,0.11883 -0.584082,0.41027 l -0.318781,1.5789 c -0.0575,0.29122 0.108948,0.57927 0.37224,0.64379 l 0.106947,0.0126 c 0.222929,0 0.426713,-0.1702 0.476143,-0.42143" />
        <path
           inkscape:connector-curvature="0"
           id="path2525"
           style="fill:#5d2169;fill-opacity:1;fill-rule:nonzero;stroke:none;stroke-width:0.10590777"
           d="m 47.663992,174.03897 c -0.261276,-0.0602 -0.524564,0.11882 -0.583071,0.41026 l -0.317765,1.5789 c -0.05848,0.29027 0.106918,0.57929 0.371225,0.64378 l 0.105917,0.0126 c 0.224959,0 0.426713,-0.17114 0.478162,-0.42253 l 0.317765,-1.57887 c 0.05848,-0.29027 -0.107947,-0.57929 -0.372239,-0.64378" />
        <path
           inkscape:connector-curvature="0"
           id="path2527"
           style="fill:#5d2169;fill-opacity:1;fill-rule:nonzero;stroke:none;stroke-width:0.10590777"
           d="m 67.421949,170.07842 c 0,-0.29785 -0.218897,-0.53924 -0.489261,-0.53924 -0.27034,0 -0.48926,0.24111 -0.48926,0.53924 v 1.61778 c 0,0.29785 0.218897,0.53927 0.48926,0.53927 0.27034,0 0.489261,-0.2411 0.489261,-0.53927 v -1.61778" />
        <path
           inkscape:connector-curvature="0"
           id="path2529"
           style="fill:#5d2169;fill-opacity:1;fill-rule:nonzero;stroke:none;stroke-width:0.10590777"
           d="m 66.932688,173.98782 c -0.27034,0 -0.48926,0.24111 -0.48926,0.53927 v 1.61777 c 0,0.29785 0.218897,0.53928 0.48926,0.53928 0.27034,0 0.489261,-0.24112 0.489261,-0.53928 v -1.61777 c 0,-0.29786 -0.218897,-0.53927 -0.489261,-0.53927" />
        <path
           inkscape:connector-curvature="0"
           id="path2531"
           style="fill:#5d2169;fill-opacity:1;fill-rule:nonzero;stroke:none;stroke-width:0.10590777"
           d="m 86.375908,171.50165 -0.379306,-1.56219 c -0.06862,-0.28808 -0.338952,-0.45923 -0.597195,-0.38141 -0.261276,0.0756 -0.417636,0.37138 -0.347023,0.65936 l 0.378291,1.56332 c 0.0575,0.24144 0.256243,0.40028 0.472109,0.40028 l 0.127107,-0.0188 c 0.260273,-0.0766 0.415624,-0.37248 0.346017,-0.66046" />
        <path
           inkscape:connector-curvature="0"
           id="path2533"
           style="fill:#5d2169;fill-opacity:1;fill-rule:nonzero;stroke:none;stroke-width:0.10590777"
           d="m 86.520157,176.28386 c 0.0575,0.24112 0.256243,0.40028 0.472109,0.40028 l 0.127106,-0.0189 c 0.260274,-0.0756 0.415624,-0.37137 0.345002,-0.65935 l -0.37829,-1.56219 c -0.0696,-0.28903 -0.338952,-0.45812 -0.597196,-0.3825 -0.261275,0.0766 -0.416628,0.37248 -0.347021,0.66046 l 0.37829,1.56221" />
        <path
           inkscape:connector-curvature="0"
           id="path2535"
           style="fill:#ff754a;fill-opacity:1;fill-rule:nonzero;stroke:none;stroke-width:0.10590777"
           d="M 136.16316,194.88457 H 87.481526 v 2.83085 h 68.007834 v -2.83085 h -19.3262" />
        <path
           inkscape:connector-curvature="0"
           id="path2565"
           style="fill:#5d2169;fill-opacity:1;fill-rule:nonzero;stroke:none;stroke-width:0.10590777"
           d="m 25.381059,222.47816 -0.2058,-0.0488 -1.381017,-0.68158 c -0.254213,-0.12449 -0.368208,-0.45367 -0.254213,-0.73386 0.113981,-0.28019 0.410574,-0.40916 0.665794,-0.28019 l 1.382032,0.6816 c 0.253211,0.1245 0.368199,0.45364 0.254212,0.73383 -0.08372,0.20582 -0.268338,0.32911 -0.461019,0.32911" />
        <path
           inkscape:connector-curvature="0"
           id="path2567"
           style="fill:#5d2169;fill-opacity:1;fill-rule:nonzero;stroke:none;stroke-width:0.10590777"
           d="m 29.174077,224.34834 -0.2058,-0.0488 -1.896507,-0.93397 c -0.254213,-0.12576 -0.368209,-0.45475 -0.254213,-0.73494 0.11398,-0.27894 0.410574,-0.40806 0.665794,-0.28019 l 1.896507,0.93507 c 0.254213,0.12577 0.369214,0.45478 0.255214,0.73384 -0.08373,0.20676 -0.268339,0.32914 -0.461009,0.32914" />
        <path
           inkscape:connector-curvature="0"
           id="path2569"
           style="fill:#5d2169;fill-opacity:1;fill-rule:nonzero;stroke:none;stroke-width:0.10590777"
           d="m 32.451602,225.96502 -0.205801,-0.0479 -1.381025,-0.68158 c -0.254213,-0.12449 -0.3682,-0.45364 -0.254213,-0.73383 0.112981,-0.27894 0.409572,-0.40806 0.665797,-0.2802 l 1.381022,0.68047 c 0.254213,0.12576 0.369215,0.45475 0.255214,0.73494 -0.08373,0.20582 -0.268338,0.32804 -0.461009,0.32804" />
        <path
           inkscape:connector-curvature="0"
           id="path2571"
           style="fill:#5d2169;fill-opacity:1;fill-rule:nonzero;stroke:none;stroke-width:0.10590777"
           d="m 32.066243,158.09677 -0.184611,-0.0388 -1.407248,-0.61375 c -0.259245,-0.11221 -0.386357,-0.43477 -0.284466,-0.72051 0.102886,-0.28681 0.39847,-0.42587 0.654704,-0.31234 l 1.407247,0.61265 c 0.259246,0.1122 0.386358,0.43586 0.283466,0.7205 -0.07767,0.21905 -0.267338,0.35246 -0.469081,0.35246" />
        <path
           inkscape:connector-curvature="0"
           id="path2573"
           style="fill:#5d2169;fill-opacity:1;fill-rule:nonzero;stroke:none;stroke-width:0.10590777"
           d="m 34.851488,159.30983 -0.185613,-0.0391 -1.407247,-0.61264 c -0.259246,-0.11347 -0.386357,-0.43586 -0.283466,-0.7216 0.101886,-0.28587 0.396452,-0.42587 0.65369,-0.31235 l 1.407247,0.61265 c 0.259245,0.11346 0.386357,0.43587 0.283465,0.7216 -0.07766,0.21905 -0.267308,0.35137 -0.468067,0.35137" />
        <path
           inkscape:connector-curvature="0"
           id="path2575"
           style="fill:#5d2169;fill-opacity:1;fill-rule:nonzero;stroke:none;stroke-width:0.10590777"
           d="m 74.772925,146.12177 -0.02716,-8.7e-4 c -0.277403,-0.0158 -0.491282,-0.27673 -0.477155,-0.58374 l 0.07769,-1.6656 c 0.01402,-0.30793 0.249151,-0.5515 0.529609,-0.52704 0.278432,0.0158 0.49228,0.27799 0.478162,0.58487 l -0.07766,1.6656 c -0.01402,0.2969 -0.237056,0.52702 -0.503378,0.52702" />
        <path
           inkscape:connector-curvature="0"
           id="path2577"
           style="fill:#5d2169;fill-opacity:1;fill-rule:nonzero;stroke:none;stroke-width:0.10590777"
           d="m 74.553008,150.81839 h -0.02716 c -0.277403,-0.0158 -0.492285,-0.27798 -0.477153,-0.58374 l 0.07766,-1.66561 c 0.01402,-0.30698 0.255213,-0.54595 0.529612,-0.52703 0.277431,0.0158 0.492285,0.27672 0.478159,0.58374 l -0.07766,1.6656 c -0.01516,0.2969 -0.237056,0.52704 -0.503381,0.52704" />
        <path
           inkscape:connector-curvature="0"
           id="path2579"
           style="fill:#5d2169;fill-opacity:1;fill-rule:nonzero;stroke:none;stroke-width:0.10590777"
           d="m 152.00506,156.57572 -0.24621,-0.0713 c -0.24306,-0.15002 -0.32988,-0.48811 -0.19473,-0.75609 l 0.74042,-1.45543 c 0.13611,-0.26916 0.44285,-0.36473 0.68597,-0.21243 0.2442,0.14908 0.33088,0.48809 0.19473,0.75605 l -0.74041,1.45547 c -0.0918,0.18123 -0.26337,0.28366 -0.43986,0.28366" />
        <path
           inkscape:connector-curvature="0"
           id="path2581"
           style="fill:#5d2169;fill-opacity:1;fill-rule:nonzero;stroke:none;stroke-width:0.10590777"
           d="m 150.4485,159.63894 -0.24621,-0.0712 c -0.24306,-0.15004 -0.32987,-0.48813 -0.19473,-0.75606 l 0.77877,-1.53219 c 0.13611,-0.26916 0.44385,-0.36469 0.687,-0.21243 0.24306,0.14908 0.32985,0.48812 0.19358,0.75609 l -0.77879,1.53105 c -0.0918,0.18248 -0.26336,0.28461 -0.43982,0.28461" />
        <path
           inkscape:connector-curvature="0"
           id="path2583"
           style="fill:#5d2169;fill-opacity:1;fill-rule:nonzero;stroke:none;stroke-width:0.10590777"
           d="m 148.93029,162.62659 -0.24621,-0.0722 c -0.24306,-0.14908 -0.32988,-0.48811 -0.19359,-0.75608 l 0.73945,-1.45547 c 0.13611,-0.2679 0.44386,-0.36358 0.68697,-0.21243 0.24306,0.15003 0.32987,0.48812 0.19359,0.75608 l -0.73942,1.45548 c -0.0927,0.18248 -0.26422,0.2846 -0.44085,0.2846" />
      </g>
      <text
         xml:space="preserve"
         style="font-style:normal;font-variant:normal;font-weight:bold;font-stretch:normal;font-size:15.44637299px;line-height:1.25;font-family:Roboto;-inkscape-font-specification:'Roboto Bold';letter-spacing:0px;word-spacing:0px;fill:#000000;fill-opacity:1;stroke:none;stroke-width:0.3861593"
         x="1.5680687"
         y="67.807137"
         id="text950"
         transform="scale(0.93099385,1.0741209)"><tspan
           sodipodi:role="line"
           id="tspan948"
           x="1.5680687"
           y="67.807137"
           style="fill:#4d4d4d;stroke-width:0.3861593">Climatização</tspan></text>
      <text
         transform="scale(0.90224854,1.1083421)"
         id="text954"
         y="86.682793"
         x="44.836857"
         style="font-style:normal;font-variant:normal;font-weight:bold;font-stretch:normal;font-size:15.9203968px;line-height:1.25;font-family:Roboto;-inkscape-font-specification:'Roboto Bold';letter-spacing:0px;word-spacing:0px;fill:#000000;fill-opacity:1;stroke:none;stroke-width:0.39800993"
         xml:space="preserve"><tspan
           style="fill:#4d4d4d;stroke-width:0.39800993"
           y="86.682793"
           x="44.836857"
           id="tspan952"
           sodipodi:role="line">Inteligente</tspan></text>
    </g>
  </g>
</svg>
