<?xml version="1.0" encoding="UTF-8" standalone="no"?>
<!-- Created with Inkscape (http://www.inkscape.org/) -->

<svg
   xmlns:dc="http://purl.org/dc/elements/1.1/"
   xmlns:cc="http://creativecommons.org/ns#"
   xmlns:rdf="http://www.w3.org/1999/02/22-rdf-syntax-ns#"
   xmlns:svg="http://www.w3.org/2000/svg"
   xmlns="http://www.w3.org/2000/svg"
   xmlns:sodipodi="http://sodipodi.sourceforge.net/DTD/sodipodi-0.dtd"
   xmlns:inkscape="http://www.inkscape.org/namespaces/inkscape"
   width="120.91458mm"
   height="120.12083mm"
   viewBox="0 0 120.91458 120.12083"
   version="1.1"
   id="svg6888"
   inkscape:version="0.92.3 (2405546, 2018-03-11)"
   sodipodi:docname="Lighting.svg">
  <defs
     id="defs6882">
    <clipPath
       id="clipPath4937"
       clipPathUnits="userSpaceOnUse">
      <path
         inkscape:connector-curvature="0"
         id="path4935"
         d="m 4144.13,204.898 c 0,0 -79.74,92.454 29.49,192.641 109.23,100.18 250.74,55.473 309.98,126.16 59.25,70.692 -47.55,373.442 292.51,478.731 340.07,105.29 606.52,-48.211 623.29,-193.121 16.78,-144.918 -37.54,-252.297 77.95,-288.61 115.5,-36.308 85.14,-243.32 53.66,-324.808 z" />
    </clipPath>
    <linearGradient
       id="linearGradient4945"
       spreadMethod="pad"
       gradientTransform="matrix(-333.328,-906.658,-906.658,333.328,5078.85,945.62)"
       gradientUnits="userSpaceOnUse"
       y2="0"
       x2="1"
       y1="0"
       x1="0">
      <stop
         id="stop4939"
         offset="0"
         style="stop-opacity:1;stop-color:#42c082" />
      <stop
         id="stop4941"
         offset="0.99002"
         style="stop-opacity:1;stop-color:#3fb962" />
      <stop
         id="stop4943"
         offset="1"
         style="stop-opacity:1;stop-color:#3fb962" />
    </linearGradient>
  </defs>
  <sodipodi:namedview
     id="base"
     pagecolor="#ffffff"
     bordercolor="#666666"
     borderopacity="1.0"
     inkscape:pageopacity="0.0"
     inkscape:pageshadow="2"
     inkscape:zoom="0.49497475"
     inkscape:cx="623.32484"
     inkscape:cy="140.02595"
     inkscape:document-units="mm"
     inkscape:current-layer="layer1"
     showgrid="false"
     fit-margin-top="0"
     fit-margin-left="0"
     fit-margin-right="0"
     fit-margin-bottom="0"
     inkscape:window-width="1024"
     inkscape:window-height="572"
     inkscape:window-x="0"
     inkscape:window-y="1"
     inkscape:window-maximized="1"
     inkscape:snap-global="false"
     showguides="false" />
  <metadata
     id="metadata6885">
    <rdf:RDF>
      <cc:Work
         rdf:about="">
        <dc:format>image/svg+xml</dc:format>
        <dc:type
           rdf:resource="http://purl.org/dc/dcmitype/StillImage" />
        <dc:title />
      </cc:Work>
    </rdf:RDF>
  </metadata>
  <g
     inkscape:label="Camada 1"
     inkscape:groupmode="layer"
     id="layer1"
     transform="translate(-57.782543,63.313782)">
    <rect
       style="fill:#f8f8ff;fill-opacity:1;fill-rule:evenodd;stroke:none;stroke-width:0.16773161;stroke-linecap:round;stroke-linejoin:round;stroke-miterlimit:4;stroke-dasharray:none;stroke-opacity:1;paint-order:fill markers stroke"
       id="rect8200"
       width="123.22023"
       height="122.46429"
       x="57.763641"
       y="-63.729549" />
    <path
       inkscape:connector-curvature="0"
       id="path2265"
       style="fill:#ffb243;fill-opacity:1;fill-rule:nonzero;stroke:none;stroke-width:0.06910893"
       d="m 85.035629,50.517275 c 0,0 -8.602831,-23.653639 -3.281843,-42.0613018 5.320991,-18.4079551 26.339014,-25.5497632 40.185094,-20.9678952 13.84607,4.5825271 13.16788,17.0693587 26.69836,17.7778393 13.53116,0.7089904 21.73935,-1.447442 24.60697,11.6396107 2.86827,13.086247 -4.8277,33.611747 -4.8277,33.611747 H 85.035629" />
    <path
       inkscape:connector-curvature="0"
       id="path2267"
       style="fill:#5d2169;fill-opacity:1;fill-rule:nonzero;stroke:none;stroke-width:0.06910893"
       d="m 98.59552,-30.532378 c -4.355966,0 -7.899814,3.966373 -7.899814,8.839907 0,4.873534 3.543848,8.839176 7.899814,8.839176 4.35664,0 7.90049,-3.965642 7.90049,-8.839176 0,-4.873534 -3.54385,-8.839907 -7.90049,-8.839907 z m 0,18.11914 c -4.572878,0 -8.293134,-4.163008 -8.293134,-9.279233 0,-5.116955 3.720256,-9.279233 8.293134,-9.279233 4.57355,0 8.2938,4.162278 8.2938,9.279233 0,5.116225 -3.72025,9.279233 -8.2938,9.279233" />
    <path
       inkscape:connector-curvature="0"
       id="path2269"
       style="fill:#5d2169;fill-opacity:1;fill-rule:nonzero;stroke:none;stroke-width:0.06910893"
       d="m 98.59552,-27.086473 c -2.657875,0 -4.820498,2.42032 -4.820498,5.394002 0,2.973682 2.162623,5.39327 4.820498,5.39327 2.65854,0 4.82118,-2.419588 4.82118,-5.39327 0,-2.973682 -2.16264,-5.394002 -4.82118,-5.394002 z m 0,11.227332 c -2.874787,0 -5.213837,-2.616958 -5.213837,-5.83333 0,-3.217103 2.33905,-5.834059 5.213837,-5.834059 2.87545,0 5.21451,2.616956 5.21451,5.834059 0,3.216372 -2.33906,5.83333 -5.21451,5.83333" />
    <path
       inkscape:connector-curvature="0"
       id="path2271"
       style="fill:#5d2169;fill-opacity:1;fill-rule:nonzero;stroke:none;stroke-width:0.06910893"
       d="m 98.59552,-25.948315 c -2.097295,0 -3.803869,1.909354 -3.803869,4.255844 0,2.34722 1.706574,4.255845 3.803869,4.255845 2.09795,0 3.80454,-1.908625 3.80454,-4.255845 0,-2.34649 -1.70659,-4.255844 -3.80454,-4.255844 z m 0,8.952478 c -2.314208,0 -4.19719,-2.107454 -4.19719,-4.696634 0,-2.589911 1.882982,-4.696634 4.19719,-4.696634 2.31486,0 4.19788,2.106723 4.19788,4.696634 0,2.58918 -1.88302,4.696634 -4.19788,4.696634" />
    <path
       inkscape:connector-curvature="0"
       id="path2273"
       style="fill:#5d2169;fill-opacity:1;fill-rule:nonzero;stroke:none;stroke-width:0.06910893"
       d="m 95.942869,-21.226829 c 0,-0.428361 0.310348,-0.775584 0.692575,-0.775584 0.382856,0 0.693208,0.347223 0.693208,0.775584 0,0.428363 -0.310352,0.774123 -0.693208,0.774123 -0.382227,0 -0.692575,-0.34576 -0.692575,-0.774123" />
    <path
       inkscape:connector-curvature="0"
       id="path2275"
       style="fill:#5d2169;fill-opacity:1;fill-rule:nonzero;stroke:none;stroke-width:0.06910893"
       d="m 99.452085,-21.226829 c 0,-0.428361 0.310347,-0.775584 0.693215,-0.775584 0.38221,0 0.69322,0.347223 0.69322,0.775584 0,0.428363 -0.31101,0.774123 -0.69322,0.774123 -0.382868,0 -0.693215,-0.34576 -0.693215,-0.774123" />
    <path
       inkscape:connector-curvature="0"
       id="path2277"
       style="fill:#5d2169;fill-opacity:1;fill-rule:nonzero;stroke:none;stroke-width:0.06910893"
       d="m 98.308692,-24.9739 c -0.109079,0 -0.197308,-0.09867 -0.197308,-0.220761 v -0.973683 c 0,-0.122068 0.08814,-0.220761 0.197308,-0.220761 0.108536,0 0.196679,0.09869 0.196679,0.220761 v 0.973683 c 0,0.122068 -0.08814,0.220761 -0.196679,0.220761" />
    <path
       inkscape:connector-curvature="0"
       id="path2279"
       style="fill:#5d2169;fill-opacity:1;fill-rule:nonzero;stroke:none;stroke-width:0.06910893"
       d="m 98.59552,-16.995837 c -0.108525,0 -0.196668,-0.09869 -0.196668,-0.220029 v -0.933478 c 0,-0.122068 0.08814,-0.220761 0.196668,-0.220761 0.10909,0 0.197318,0.09869 0.197318,0.220761 v 0.933478 c 0,0.121343 -0.08814,0.220029 -0.197318,0.220029" />
    <path
       inkscape:connector-curvature="0"
       id="path2281"
       style="fill:#5d2169;fill-opacity:1;fill-rule:nonzero;stroke:none;stroke-width:0.06910893"
       d="m 143.84287,-25.549194 c -4.35598,0 -7.8998,3.965641 -7.8998,8.839175 0,4.873536 3.54382,8.8391761 7.8998,8.8391761 4.35662,0 7.89982,-3.9656401 7.89982,-8.8391761 0,-4.873534 -3.5432,-8.839175 -7.89982,-8.839175 z m 0,18.1192121 c -4.57289,0 -8.29313,-4.1638121 -8.29313,-9.2800371 0,-5.116223 3.72024,-9.279233 8.29313,-9.279233 4.57355,0 8.29446,4.16301 8.29446,9.279233 0,5.116225 -3.72091,9.2800371 -8.29446,9.2800371" />
    <path
       inkscape:connector-curvature="0"
       id="path2283"
       style="fill:#5d2169;fill-opacity:1;fill-rule:nonzero;stroke:none;stroke-width:0.06910893"
       d="m 141.84358,-15.161773 h 3.56345 c 0.15353,-0.735381 0.70562,-3.761694 -0.2339,-5.12792 -0.30971,-0.449563 -0.74419,-0.668129 -1.33026,-0.668129 -0.61547,0 -1.08458,0.210527 -1.43217,0.645466 -0.95261,1.187865 -0.70302,3.747805 -0.59586,4.841373 0.0111,0.118421 0.0214,0.222221 0.0287,0.30921 z m 3.71829,0.440789 h -3.90253 c -0.10909,0 -0.19667,-0.09869 -0.19667,-0.220031 0,-0.09138 -0.0186,-0.258771 -0.0393,-0.481723 -0.12223,-1.249999 -0.37568,-3.849413 0.69388,-5.184207 0.42141,-0.526316 1.00158,-0.791666 1.72552,-0.791666 0.70627,0 1.25902,0.282895 1.64254,0.840642 1.18587,1.725875 0.30513,5.513886 0.26658,5.673241 -0.0229,0.09722 -0.10126,0.163738 -0.19012,0.163738" />
    <path
       inkscape:connector-curvature="0"
       id="path2285"
       style="fill:#5d2169;fill-opacity:1;fill-rule:nonzero;stroke:none;stroke-width:0.06910893"
       d="m 142.13237,-13.949787 c 0.12223,0.533626 0.49655,1.724415 1.41256,1.724415 0.91929,0 1.29172,-1.190789 1.41258,-1.724415 z m 1.41256,2.165204 c -1.51253,0 -1.8379,-2.256577 -1.85096,-2.353069 l 0.0458,-0.176171 0.1489,-0.07675 h 3.31255 l 0.14964,0.07675 0.045,0.176171 c -0.0129,0.0965 -0.33845,2.353069 -1.85098,2.353069" />
    <path
       inkscape:connector-curvature="0"
       id="path2287"
       style="fill:#5d2169;fill-opacity:1;fill-rule:nonzero;stroke:none;stroke-width:0.06910893"
       d="m 138.96029,-16.185164 c -0.081,0 -0.15484,-0.05848 -0.18299,-0.152052 -0.0339,-0.115499 0.0269,-0.24196 0.13002,-0.280702 0.0889,-0.03363 0.38809,-0.03655 0.89119,-0.01015 0.10852,0.0052 0.19274,0.108185 0.18816,0.229531 -0.005,0.122068 -0.0974,0.216374 -0.20581,0.209795 -0.30839,-0.01533 -0.68733,-0.02339 -0.75921,-0.0073 l -0.0615,0.01098" />
    <path
       inkscape:connector-curvature="0"
       id="path2289"
       style="fill:#5d2169;fill-opacity:1;fill-rule:nonzero;stroke:none;stroke-width:0.06910893"
       d="m 140.0194,-18.133263 -0.064,-0.0116 -1.0493,-0.403507 c -0.10255,-0.03947 -0.15742,-0.16521 -0.12223,-0.280703 0.0352,-0.114028 0.14705,-0.175445 0.25025,-0.135971 l 1.04929,0.403507 c 0.10319,0.03947 0.15743,0.16521 0.12224,0.279971 -0.0282,0.09138 -0.10447,0.148384 -0.18621,0.148384" />
    <path
       inkscape:connector-curvature="0"
       id="path2291"
       style="fill:#5d2169;fill-opacity:1;fill-rule:nonzero;stroke:none;stroke-width:0.06910893"
       d="m 140.9047,-20.371566 -0.14169,-0.06724 -0.75398,-0.880847 c -0.0758,-0.08771 -0.0732,-0.228071 0.005,-0.311405 0.0778,-0.08407 0.20254,-0.08114 0.27768,0.0066 l 0.75463,0.880849 c 0.0752,0.08771 0.0726,0.226608 -0.005,0.311403 l -0.13651,0.06067" />
    <path
       inkscape:connector-curvature="0"
       id="path2293"
       style="fill:#5d2169;fill-opacity:1;fill-rule:nonzero;stroke:none;stroke-width:0.06910893"
       d="m 142.57731,-21.766302 c -0.0791,0 -0.15354,-0.05263 -0.18355,-0.140344 l -0.32797,-0.954678 c -0.0393,-0.112578 0.0111,-0.240497 0.11297,-0.283624 0.10127,-0.04387 0.21495,0.01243 0.25416,0.125735 l 0.32863,0.953947 c 0.0385,0.113303 -0.0111,0.241229 -0.11297,0.285089 l -0.0713,0.01388" />
    <path
       inkscape:connector-curvature="0"
       id="path2295"
       style="fill:#5d2169;fill-opacity:1;fill-rule:nonzero;stroke:none;stroke-width:0.06910893"
       d="m 144.87387,-22.022881 -0.0367,-0.0037 c -0.1065,-0.02192 -0.17706,-0.137422 -0.15743,-0.256579 l 0.16391,-0.990496 c 0.0196,-0.119146 0.12223,-0.199565 0.22934,-0.176171 0.1065,0.02192 0.17705,0.136697 0.15743,0.255848 l -0.16391,0.991228 c -0.0166,0.105988 -0.1,0.179817 -0.19275,0.179817" />
    <path
       inkscape:connector-curvature="0"
       id="path2297"
       style="fill:#5d2169;fill-opacity:1;fill-rule:nonzero;stroke:none;stroke-width:0.06910893"
       d="m 146.44718,-20.811624 c -0.0778,0 -0.15151,-0.05191 -0.18225,-0.138893 -0.0405,-0.112578 0.01,-0.241227 0.10982,-0.285819 l 0.98397,-0.440057 c 0.1,-0.04532 0.21561,0.0095 0.25544,0.122067 0.0405,0.114029 -0.01,0.241229 -0.10982,0.287282 l -0.98331,0.440057 -0.0739,0.01533" />
    <path
       inkscape:connector-curvature="0"
       id="path2299"
       style="fill:#5d2169;fill-opacity:1;fill-rule:nonzero;stroke:none;stroke-width:0.06910893"
       d="m 148.25111,-18.683702 h -1.31194 c -0.10853,0 -0.19667,-0.09867 -0.19667,-0.220029 0,-0.122067 0.0881,-0.220028 0.19667,-0.220028 h 1.31194 c 0.10852,0 0.19732,0.09795 0.19732,0.220028 0,0.121343 -0.0889,0.220029 -0.19732,0.220029" />
    <path
       inkscape:connector-curvature="0"
       id="path2301"
       style="fill:#5d2169;fill-opacity:1;fill-rule:nonzero;stroke:none;stroke-width:0.06910893"
       d="m 148.08713,-15.564551 h -1.14796 c -0.10853,0 -0.19667,-0.09869 -0.19667,-0.220029 0,-0.122068 0.0881,-0.220761 0.19667,-0.220761 h 1.14796 c 0.10909,0 0.19665,0.09867 0.19665,0.220761 0,0.121342 -0.0876,0.220029 -0.19665,0.220029" />
    <path
       inkscape:connector-curvature="0"
       id="path2303"
       style="fill:#5d2169;fill-opacity:1;fill-rule:nonzero;stroke:none;stroke-width:0.06910893"
       d="m 143.0301,-17.016305 -0.0687,0.01823 c -0.0236,0.0592 0.0483,0.268276 0.28683,0.388889 0.0745,0.038 0.16668,-0.02559 0.21429,-0.06651 l 0.0249,-0.02192 c -0.0424,-0.111107 -0.10779,-0.198094 -0.20125,-0.243421 -0.12279,-0.0592 -0.20515,-0.0753 -0.25613,-0.0753 z m 0.51483,2.295321 -0.0647,-0.01243 c -0.10255,-0.0402 -0.15687,-0.16521 -0.12094,-0.279971 0.0765,-0.244884 0.19796,-0.767544 0.19796,-1.213449 -0.15945,0.08479 -0.32472,0.09283 -0.47041,0.01906 -0.39921,-0.201761 -0.61744,-0.635234 -0.48547,-0.967836 0.0928,-0.235381 0.36197,-0.401316 0.84154,-0.168856 0.12094,0.05922 0.21562,0.143265 0.28879,0.245613 0.0589,-0.165934 0.0869,-0.3538 0.0627,-0.535087 -0.045,-0.329678 -0.24829,-0.569444 -0.60437,-0.714181 -0.10191,-0.04167 -0.15427,-0.167405 -0.1176,-0.282163 0.0367,-0.114028 0.1502,-0.172523 0.25219,-0.131579 0.48741,0.197369 0.79254,0.575292 0.85853,1.061402 0.0569,0.417398 -0.0693,0.826755 -0.25744,1.114036 0.11167,0.692981 -0.1515,1.577484 -0.1947,1.718565 -0.0287,0.09066 -0.10521,0.146933 -0.18622,0.146933" />
    <path
       inkscape:connector-curvature="0"
       id="path2305"
       style="fill:#5d2169;fill-opacity:1;fill-rule:nonzero;stroke:none;stroke-width:0.06910893"
       d="m 67.978933,11.936234 c -4.357081,0 -7.901052,3.964763 -7.901052,8.838444 0,4.874265 3.543971,8.838444 7.901052,8.838444 4.355973,0 7.900466,-3.964179 7.900466,-8.838444 0,-4.873681 -3.544493,-8.838444 -7.900466,-8.838444 z m 0,18.117459 c -4.573737,0 -8.294312,-4.162058 -8.294312,-9.279015 0,-5.11637 3.720575,-9.279308 8.294312,-9.279308 4.572235,0 8.293137,4.162938 8.293137,9.279308 0,5.116957 -3.720902,9.279015 -8.293137,9.279015" />
    <path
       inkscape:connector-curvature="0"
       id="path2307"
       style="fill:#5d2169;fill-opacity:1;fill-rule:nonzero;stroke:none;stroke-width:0.06910893"
       d="m 70.76618,26.044995 c 0.201889,-0.619079 0.760514,-2.07734 1.67065,-2.578798 -0.252852,0.401239 -0.527264,1.043124 -0.400512,1.846341 0.01704,0.106797 0.09998,0.182159 0.193395,0.182159 l 0.03528,-0.0039 c 0.106497,-0.02111 0.178371,-0.135308 0.158757,-0.254384 -0.09605,-0.609649 0.101269,-1.116228 0.297934,-1.45117 v 2.259574 z m 1.955516,-10.310738 v 6.731135 c -0.60436,-1.300364 -0.982005,-3.730334 -0.985926,-3.758914 -0.01833,-0.120472 -0.121531,-0.201015 -0.227369,-0.180481 -0.10716,0.02051 -0.179019,0.133921 -0.160721,0.254459 0.01704,0.111045 0.337137,2.18209 0.895109,3.58099 -0.915363,-1.173024 -2.736285,-3.840567 -2.829063,-6.627187 z m 0.197316,-0.440058 h -3.705876 c -0.109104,0 -0.196663,0.09795 -0.196663,0.219297 0,3.443711 2.499114,6.652919 3.258322,7.548387 -1.326327,0.718421 -1.943754,3.036473 -1.971849,3.141813 -0.0176,0.0666 -0.0052,0.13823 0.03202,0.193058 0.0366,0.05541 0.09473,0.08823 0.157461,0.08823 h 2.426589 c 0.109105,0 0.196662,-0.09853 0.196662,-0.21988 V 15.513502 c 0,-0.121342 -0.08755,-0.219297 -0.196662,-0.219297" />
    <path
       inkscape:connector-curvature="0"
       id="path2309"
       style="fill:#5d2169;fill-opacity:1;fill-rule:nonzero;stroke:none;stroke-width:0.06910893"
       d="m 64.014915,22.361444 c 0.557123,-1.3989 0.877925,-3.469952 0.894519,-3.58099 0.01815,-0.120534 -0.0541,-0.233918 -0.160795,-0.254459 -0.104086,-0.01969 -0.208751,0.06001 -0.22711,0.180481 -0.0045,0.02857 -0.381564,2.45855 -0.986448,3.758914 v -6.731135 h 3.308303 c -0.09344,2.782892 -1.912981,5.452774 -2.828473,6.627187 z m 1.476469,3.683551 h -1.9563 v -2.259573 c 0.196534,0.334942 0.394568,0.84152 0.298132,1.45117 -0.01861,0.119084 0.05227,0.233255 0.15922,0.254384 l 0.0345,0.0039 c 0.09416,0 0.176871,-0.07536 0.193658,-0.182159 0.127403,-0.803218 -0.14772,-1.445103 -0.400447,-1.846342 0.910135,0.501349 1.469086,1.95961 1.671237,2.578689 z m 1.552587,-10.750796 h -3.705416 c -0.109439,0 -0.19699,0.09795 -0.19699,0.219297 v 10.751603 c 0,0.121343 0.08754,0.21988 0.19699,0.21988 h 2.426656 c 0.06227,0 0.120475,-0.03284 0.157461,-0.08823 0.03653,-0.05483 0.04927,-0.126461 0.03143,-0.193058 -0.02757,-0.105346 -0.64598,-2.423393 -1.971849,-3.141813 0.759534,-0.895468 3.258387,-4.104676 3.258387,-7.548387 0,-0.121343 -0.08755,-0.219297 -0.196663,-0.219297" />
    <path
       inkscape:connector-curvature="0"
       id="path2311"
       style="fill:#5d2169;fill-opacity:1;fill-rule:nonzero;stroke:none;stroke-width:0.06910893"
       d="M 73.80432,15.734257 H 62.522373 c -0.108715,0 -0.196533,-0.09853 -0.196533,-0.220761 0,-0.121342 0.0878,-0.219297 0.196533,-0.219297 H 73.80432 c 0.109104,0 0.196661,0.09795 0.196661,0.219297 0,0.122213 -0.08755,0.220761 -0.196661,0.220761" />
    <path
       inkscape:connector-curvature="0"
       id="path2313"
       style="fill:#702f7f;fill-opacity:1;fill-rule:nonzero;stroke:none;stroke-width:0.06910893"
       d="m 143.61812,29.083151 h -8.73482 l -2.2665,9.634275 h 8.51331 l 2.48801,-9.634275" />
    <path
       inkscape:connector-curvature="0"
       id="path2315"
       style="fill:#ee3868;fill-opacity:1;fill-rule:nonzero;stroke:none;stroke-width:0.06910893"
       d="m 127.46895,35.634094 c -1.66217,-5.666586 -2.89832,-18.430978 -2.95451,-19.015261 -0.0166,-0.181869 0.10052,-0.344883 0.26266,-0.364036 0.16798,-0.01824 0.30774,0.112495 0.32537,0.293276 0.013,0.149047 1.40081,14.478788 3.15246,19.593478 V -3.7984049 h -11.19535 c 0.30773,3.469954 2.98978,31.2270999 10.40937,39.4324989" />
    <path
       inkscape:connector-curvature="0"
       id="path2317"
       style="fill:#9041a3;fill-opacity:1;fill-rule:nonzero;stroke:none;stroke-width:0.06910893"
       d="M 150.85542,39.379048 H 132.4613 l -0.10649,0.450296 -0.18095,0.772658 h 18.39346 l 0.28814,-1.222954" />
    <path
       inkscape:connector-curvature="0"
       id="path2319"
       style="fill:#ee3868;fill-opacity:1;fill-rule:nonzero;stroke:none;stroke-width:0.06910893"
       d="m 94.843268,20.008522 c 0.158721,0.04233 0.256768,0.220761 0.218209,0.398392 -0.02741,0.126461 -2.577502,12.070242 -2.657215,15.424768 1.042113,-2.132378 7.217685,-14.911683 9.178448,-21.990626 1.91632,-6.9201688 1.81113,-15.8648269 1.768,-17.6394609 H 91.918803 V 34.531026 c 0.474347,-4.472728 2.469063,-13.814317 2.567723,-14.277767 0.03926,-0.177621 0.197317,-0.28867 0.356742,-0.244737" />
    <path
       inkscape:connector-curvature="0"
       id="path2321"
       style="fill:#a2e7f4;fill-opacity:1;fill-rule:nonzero;stroke:none;stroke-width:0.06910893"
       d="m 115.20663,24.479864 -9.94549,16.636684 c -0.0569,0.09511 -0.15094,0.146207 -0.24567,0.146207 l -0.1639,-0.05543 c -0.13521,-0.102487 -0.17243,-0.306942 -0.0811,-0.459134 l 9.94551,-16.636688 c 0.0907,-0.151326 0.27374,-0.190717 0.40965,-0.09049 0.1352,0.102259 0.17242,0.306942 0.0809,0.458844 z m -10.44532,4.274927 8.76421,-16.52616 c 0.0837,-0.157376 0.26528,-0.209065 0.40509,-0.115644 0.14057,0.09364 0.1862,0.295248 0.10319,0.452559 l -8.76425,16.526157 c -0.0556,0.103937 -0.15353,0.161624 -0.25415,0.161624 l -0.15094,-0.046 c -0.14057,-0.09277 -0.18621,-0.296052 -0.10319,-0.452554 z m 19.06253,2.141007 C 119.3372,21.109325 117.31112,4.6853624 116.67213,-1.5946039 h -12.71705 c -0.0282,3.562204 -0.30513,10.2033536 -1.80851,15.6324439 -1.49948,5.41447 -5.432081,14.111029 -7.70055,18.929009 v 5.999847 c 2.318122,4.557892 3.629435,9.992905 3.907758,11.220169 H 122.1669 c 0.0693,-2.051315 0.7638,-4.296856 1.65694,-6.371339 V 30.895798" />
    <path
       inkscape:connector-curvature="0"
       id="path2323"
       style="fill:#ee3868;fill-opacity:1;fill-rule:nonzero;stroke:none;stroke-width:0.06910893"
       d="m 93.735815,45.44257 c 0.0037,0.182739 -0.126682,0.334061 -0.290088,0.337209 h -0.0055 c -0.160758,0 -0.292069,-0.144157 -0.295328,-0.324639 -0.04575,-2.631578 -0.93888,-7.219436 -1.226355,-8.634566 v 13.366291 h 5.825378 c -0.405735,-1.747807 -2.160018,-8.728212 -5.202736,-13.280621 0.326683,1.612427 1.14992,5.931869 1.194351,8.536326" />
    <path
       inkscape:connector-curvature="0"
       id="path2325"
       style="fill:#ee3868;fill-opacity:1;fill-rule:nonzero;stroke:none;stroke-width:0.06910893"
       d="m 126.77704,44.982262 c 0.013,0.181869 -0.10853,0.341228 -0.27115,0.355192 l -0.0235,0.0016 c -0.1528,0 -0.28225,-0.131641 -0.29466,-0.304091 -0.1241,-1.742104 0.53248,-4.483331 1.06432,-6.361108 -1.6027,2.563666 -4.35727,7.514688 -4.5056,11.51315 h 5.5085 V 37.411364 c -0.45799,1.451675 -1.63144,5.421629 -1.4779,7.570898" />
    <path
       inkscape:connector-curvature="0"
       id="path2327"
       style="fill:#5d2169;fill-opacity:1;fill-rule:nonzero;stroke:none;stroke-width:0.06910893"
       d="m 141.74492,38.717426 h 9.266 l 2.36387,-10.048897 c 0.0339,-0.145317 0.1515,-0.246413 0.28552,-0.246413 h 8.37089 v -9.634279 h -15.13975 l -5.14653,19.929589" />
    <path
       inkscape:connector-curvature="0"
       id="path2329"
       style="fill:#d1c8ed;fill-opacity:1;fill-rule:nonzero;stroke:none;stroke-width:0.06910893"
       d="m 168.82814,30.303834 c -0.99508,0 -1.80526,0.904902 -1.80526,2.018279 0,0.236693 0.0431,0.45972 0.11039,0.670975 l 0.11686,-0.07024 c -0.10649,-0.276975 -0.13001,-0.567911 -0.0654,-0.85892 0.17836,-0.798903 0.97613,-1.279236 1.01076,-1.298903 0.0856,-0.05027 0.18685,-0.05197 0.27375,-5.49e-4 0.98331,0.571635 1.36358,2.123316 1.3799,2.189255 0.0313,0.129382 -0.0111,0.26615 -0.10521,0.347219 -0.44429,0.382965 -0.87093,0.575948 -1.26752,0.575948 -0.43122,0 -0.72459,-0.223027 -0.89774,-0.412861 l -0.15612,0.109656 c 0.33126,0.463959 0.835,0.767544 1.4054,0.767544 0.9944,0 1.80327,-0.905778 1.80327,-2.019077 0,-1.113376 -0.80887,-2.018278 -1.80327,-2.018278" />
    <path
       inkscape:connector-curvature="0"
       id="path2331"
       style="fill:#5d2169;fill-opacity:1;fill-rule:nonzero;stroke:none;stroke-width:0.06910893"
       d="m 162.62248,18.787837 v 7.914466 c 5e-4,0.01823 0.0367,0.668715 0.16335,1.552488 l 2.39848,-9.466954 h -2.56183" />
    <path
       inkscape:connector-curvature="0"
       id="path2333"
       style="fill:#f5716c;fill-opacity:1;fill-rule:nonzero;stroke:none;stroke-width:0.06910893"
       d="m 164.5205,-12.153735 c -0.70302,-0.296053 -1.44719,-0.446637 -2.2162,-0.446637 -1.09505,0 -1.94181,0.304824 -2.26847,0.442982 l -1.41911,11.6484561 c 1.12314,0.360893 2.33576,0.543056 3.60329,0.543056 1.8144,0 3.26485,-0.377996 3.81434,-0.543932 L 164.5205,-12.153735" />
    <path
       inkscape:connector-curvature="0"
       id="path2335"
       style="fill:#f5716c;fill-opacity:1;fill-rule:nonzero;stroke:none;stroke-width:0.06910893"
       d="m 168.47661,33.216114 c 0.21824,0 0.4665,-0.102197 0.74028,-0.304967 -0.11632,-0.361771 -0.40051,-1.09335 -0.8814,-1.467104 -0.2058,0.155926 -0.50374,0.446852 -0.57691,0.782378 -0.0249,0.112495 -0.0166,0.226465 0.0111,0.342691 0.0529,0.155844 0.0529,0.155844 0.12408,0.270686 0.0718,0.115354 0,0 0.19012,0.232971 0.0949,0.07536 0.22083,0.143349 0.39202,0.143349" />
    <path
       inkscape:connector-curvature="0"
       id="path2337"
       style="fill:#ee3868;fill-opacity:1;fill-rule:nonzero;stroke:none;stroke-width:0.06910893"
       d="m 159.26289,49.745416 h 2.36974 l -0.18354,-0.745832 c -1.0114,0.194447 -1.72094,0.486842 -2.18615,0.745832" />
    <path
       inkscape:connector-curvature="0"
       id="path2339"
       style="fill:#9041a3;fill-opacity:1;fill-rule:nonzero;stroke:none;stroke-width:0.06910893"
       d="m 159.93978,39.379048 h -8.47347 l -0.28748,1.222954 h 8.37808 l 0.38287,-1.222954" />
    <path
       inkscape:connector-curvature="0"
       id="path2341"
       style="fill:#ee3868;fill-opacity:1;fill-rule:nonzero;stroke:none;stroke-width:0.06910893"
       d="m 162.36441,48.861646 -0.01,0.0016 c -0.11038,0.01223 -0.21233,0.02768 -0.31688,0.04167 l 0.20712,0.840642 h 2.47363 c -1.31718,-0.999413 -2.32793,-0.886036 -2.35472,-0.883773" />
    <path
       inkscape:connector-curvature="0"
       id="path2343"
       style="fill:#702f7f;fill-opacity:1;fill-rule:nonzero;stroke:none;stroke-width:0.06910893"
       d="m 151.62181,38.717426 h 8.51201 l 1.89738,-7.487567 v -2.146708 h -8.14287 l -2.26652,9.634275" />
    <path
       inkscape:connector-curvature="0"
       id="path2345"
       style="fill:#ffffff;fill-opacity:1;fill-rule:nonzero;stroke:none;stroke-width:0.06910893"
       d="m 104.86455,29.207345 0.15095,0.046 c 0.10052,0 0.19861,-0.05767 0.25415,-0.161625 l 8.76421,-16.526173 c 0.083,-0.157315 0.0372,-0.358918 -0.10319,-0.452559 -0.13983,-0.09343 -0.32146,-0.04173 -0.40508,0.115644 l -8.76418,16.526161 c -0.083,0.156506 -0.0372,0.35979 0.10319,0.452554" />
    <path
       inkscape:connector-curvature="0"
       id="path2347"
       style="fill:#ffffff;fill-opacity:1;fill-rule:nonzero;stroke:none;stroke-width:0.06910893"
       d="m 114.71596,24.111516 -9.94549,16.636687 c -0.0914,0.152197 -0.0542,0.35665 0.0809,0.459134 l 0.1641,0.05541 c 0.0947,0 0.18882,-0.0511 0.24565,-0.146208 l 9.94551,-16.636683 c 0.0915,-0.151907 0.0542,-0.356579 -0.081,-0.458844 -0.13594,-0.100207 -0.31884,-0.06082 -0.40967,0.09049" />
    <path
       inkscape:connector-curvature="0"
       id="path2349"
       style="fill:#ffffff;fill-opacity:1;fill-rule:nonzero;stroke:none;stroke-width:0.06910893"
       d="m 167.77034,32.569112 c -0.0282,-0.116224 -0.0367,-0.23019 -0.0111,-0.342691 0.0732,-0.335526 0.37112,-0.626458 0.57692,-0.782378 0.48088,0.373754 0.76508,1.105333 0.88139,1.467104 -0.27377,0.202776 -0.52204,0.304967 -0.74026,0.304967 -0.17114,0 -0.29728,-0.06799 -0.39203,-0.143349 -0.19729,-0.192188 -0.21038,-0.268131 -0.31426,-0.503657 z m 1.0578,1.772078 c -0.5704,0 -1.07414,-0.303585 -1.4054,-0.767545 l 0.15613,-0.109655 c 0.17317,0.189825 0.46651,0.412861 0.89773,0.412861 0.39659,0 0.82323,-0.192976 1.26752,-0.575949 0.0947,-0.08106 0.13651,-0.217834 0.10522,-0.347219 -0.0166,-0.06593 -0.39659,-1.61762 -1.37991,-2.189254 -0.0869,-0.05137 -0.18816,-0.04973 -0.27375,5.49e-4 -0.0347,0.01968 -0.83239,0.499999 -1.01076,1.298903 -0.0647,0.291009 -0.0411,0.581945 0.0654,0.85892 l -0.11687,0.07024 c -0.0672,-0.211256 -0.11038,-0.434283 -0.11038,-0.670976 0,-1.113376 0.81018,-2.018276 1.80525,-2.018276 0.99441,0 1.80327,0.9049 1.80327,2.018276 0,1.113301 -0.80886,2.019077 -1.80327,2.019077 z m -6.20566,-7.638887 v -7.914466 h 2.56183 l -2.39848,9.466954 c -0.12668,-0.883773 -0.16261,-1.53421 -0.16335,-1.552488 z M 162.22001,0.0341221 c -1.26753,0 -2.48015,-0.182159 -3.60329,-0.543056 l 1.41911,-11.6484561 c 0.32666,-0.138169 1.17342,-0.442982 2.26847,-0.442982 0.76901,0 1.51318,0.15058 2.2162,0.446637 l 1.51385,11.6439251 c -0.54949,0.165934 -1.99994,0.543932 -3.81434,0.543932 z m 2.49912,49.7112939 h -2.47364 l -0.20711,-0.840639 c 0.10447,-0.01388 0.20646,-0.02938 0.31689,-0.04167 l 0.01,-0.0016 c 0.0269,-0.0023 1.03754,-0.115644 2.35472,0.883771 z m -2.68793,-21.3233 h -8.37089 c -0.13391,0 -0.25155,0.101098 -0.28552,0.246413 l -2.36387,10.048897 h -9.266 l 5.14653,-19.929589 h 15.13975 z m 0,2.807743 -1.89738,7.487567 h -8.51201 l 2.26652,-9.634275 h 8.14287 z m 0,17.007297 -0.15169,0.02285 -1.80393,-7.315055 0.56059,-1.786691 4.8e-4,-0.01451 0.003,-0.0044 1.39103,-5.488448 z m -2.76831,1.50826 c 0.46521,-0.25899 1.17475,-0.551385 2.18615,-0.745832 l 0.18354,0.745832 z m -8.08406,-9.143414 0.28748,-1.222954 h 8.47347 l -0.38287,1.222954 z m 6.83745,9.584863 h -9.09221 l 2.09926,-8.924118 h 8.51789 l 1.74907,7.097217 c -2.34885,0.463453 -3.18189,1.446857 -3.21978,1.494296 -0.0739,0.09078 -0.0907,0.218421 -0.0542,0.332605 z m -14.85094,0 c -1.10289,-5.650583 -1.56154,-7.97295 -1.817,-8.924118 h 9.06409 l -2.09991,8.924118 z m -13.24693,0 2.09926,-8.924118 h 8.72957 c 0.24697,1.008843 1.16494,5.610376 1.81308,8.924118 z m 2.43638,-10.357521 0.10649,-0.450296 h 18.39414 l -0.28814,1.222954 h -18.39347 z m 2.52851,-10.746193 h 8.73482 l -2.48801,9.634275 h -8.51331 z m -6.62837,7.0584 c -1.75165,-5.11469 -3.13874,-19.444429 -3.15246,-19.593478 -0.0186,-0.180771 -0.15743,-0.31155 -0.32537,-0.293276 -0.16205,0.01906 -0.27965,0.182159 -0.26266,0.364036 0.0561,0.584283 1.29234,13.348675 2.95451,19.015261 -7.41959,-8.205399 -10.10164,-35.9625449 -10.40937,-39.4324989 h 11.19535 z m -3.84045,6.377045 V 32.114508 c 0.99441,1.94371 2.09925,3.559279 3.32823,4.684937 -0.5227,0.753508 -2.01562,2.99276 -3.32823,5.719151 z m 3.84045,7.668269 h -5.50849 c 0.14835,-3.998462 2.9029,-8.949485 4.5056,-11.51315 -0.53184,1.877777 -1.18847,4.619004 -1.06432,6.361108 0.013,0.172441 0.14168,0.30409 0.29466,0.30409 l 0.0235,-0.0016 c 0.16262,-0.01388 0.28423,-0.173332 0.27114,-0.355193 -0.15353,-2.149269 1.01991,-6.119223 1.4779,-7.570898 z m -6.08803,0 H 98.353778 C 98.075455,48.959601 96.764142,43.524588 94.44602,38.966696 v -5.999847 c 2.268469,-4.81798 6.20107,-13.514539 7.70055,-18.929009 1.50338,-5.4290903 1.78041,-12.0702399 1.80851,-15.6324439 h 12.71705 c 0.63899,6.2799663 2.66507,22.7039289 7.15171,32.4904019 v 12.919728 c -0.89314,2.074483 -1.58767,4.320024 -1.65694,6.371339 z m -30.248097,0 V 36.820574 c 0.287494,1.41513 1.180627,6.002988 1.226373,8.634566 0.0037,0.18048 0.134644,0.324639 0.29531,0.324639 h 0.0055 c 0.16335,-0.0033 0.293365,-0.154455 0.290105,-0.337209 -0.04444,-2.604457 -0.867668,-6.923899 -1.194351,-8.536326 3.042718,4.552409 4.796979,11.532814 5.202735,13.280621 z m 1.93658,-15.972211 v 3.651313 c -0.314923,-0.554023 -0.646182,-1.08911 -0.993127,-1.592251 0.159462,-0.326605 0.512241,-1.050219 0.993127,-2.059062 z m -1.93658,-38.0130589 h 11.431907 c 0.0431,1.774634 0.14835,10.7192921 -1.768,17.6394609 -1.960763,7.078943 -8.136335,19.858248 -9.178448,21.990626 0.07964,-3.354526 2.629786,-15.298305 2.657215,-15.424768 0.03852,-0.177621 -0.05945,-0.356067 -0.218209,-0.398392 -0.159462,-0.04393 -0.317535,0.0671 -0.356742,0.244737 -0.09872,0.46345 -2.093376,9.805039 -2.567723,14.277767 z m 24.545567,0 c 0.0269,0.316375 0.0731,0.839181 0.14168,1.543055 H 103.9576 c 0,-0.695832 -0.01,-1.224415 -0.0166,-1.543055 z m 52.36377,33.4406939 c -1.32176,0 -2.3959,1.202411 -2.3959,2.679824 0,0.337789 0.0615,0.657894 0.16466,0.955403 -0.61482,0.258701 -1.16234,0.263817 -1.63473,0.0095 -1.00878,-0.545976 -1.59027,-2.137278 -1.92153,-3.618418 l 2.81927,-11.121408 c 0.0256,-0.09992 0.007,-0.206734 -0.0483,-0.290058 -0.0556,-0.08201 -0.14316,-0.130273 -0.23521,-0.130273 h -2.95386 V 0.6884521 c 0.17835,-0.0052 0.35346,-0.01305 0.52268,-0.02397 l 0.48218,4.3302604 c -0.2084,0.1433484 -0.3541,0.3888891 -0.3541,0.6818706 0,0.4511684 0.32537,0.8157889 0.72784,0.8157889 0.40116,0 0.72785,-0.3646205 0.72785,-0.8157889 0,-0.365497 -0.21954,-0.6627181 -0.51617,-0.7666654 l -0.47761,-4.2969286 c 1.59747,-0.170969 2.66311,-0.549633 2.72061,-0.57076 0.13595,-0.04971 0.22149,-0.202486 0.19993,-0.361767 l -1.57461,-12.1199481 c -0.0148,-0.1155 -0.0843,-0.214182 -0.18095,-0.258042 -0.81933,-0.373537 -1.69286,-0.563595 -2.59582,-0.563595 -1.53409,0 -2.61606,0.546053 -2.66181,0.569445 -0.0914,0.04751 -0.15557,0.143265 -0.16982,0.255847 l -1.47594,12.1191441 c -0.0196,0.160153 0.0672,0.312938 0.2058,0.360307 1.19107,0.413814 2.48016,0.625072 3.82871,0.643932 V 18.126893 h -15.36122 c -0.13205,0 -0.24762,0.09656 -0.28422,0.23845 l -2.59711,10.056864 h -9.1327 c -0.1339,0 -0.25155,0.101098 -0.28618,0.246413 l -5.06225,21.518336 h -0.46128 V -3.7983139 h 1.47726 c 0.16261,0 0.29531,-0.147658 0.29531,-0.330408 0,-0.182739 -0.13261,-0.33063 -0.29531,-0.33063 H 90.343557 c -0.16335,0 -0.295977,0.147887 -0.295977,0.33063 0,0.182739 0.132608,0.330408 0.295977,0.330408 h 0.983959 V 50.186956 h -5.711045 c -0.163351,0 -0.295329,0.147658 -0.295329,0.33041 0,0.182739 0.132051,0.330335 0.295329,0.330335 h 6.007022 6.499 24.322747 6.10503 39.7826 c 0.16391,0 0.29534,-0.147596 0.29534,-0.330335 0,-0.18276 -0.13131,-0.33041 -0.29534,-0.33041 h -2.48015 c 0.0398,-0.127352 0.01,-0.267545 -0.0804,-0.357455 -1.37141,-1.36323 -2.58469,-1.60307 -3.14986,-1.631651 V 31.319934 l 0.11834,-0.468564 c 0.39855,1.290351 1.01142,2.513886 1.96401,3.029894 0.31948,0.173312 0.65793,0.260379 1.01597,0.260379 0.36524,0 0.75137,-0.09561 1.15384,-0.276388 0.4345,0.685016 1.146,1.136771 1.95357,1.136771 1.31979,0 2.39458,-1.201901 2.39458,-2.679822 0,-1.477413 -1.07479,-2.679824 -2.39458,-2.679824" />
    <path
       inkscape:connector-curvature="0"
       id="path2383"
       style="fill:#5d2169;fill-opacity:1;fill-rule:nonzero;stroke:none;stroke-width:0.06910893"
       d="m 141.30063,-4.9117809 -0.12946,-0.02996 c -0.16594,-0.08048 -0.24173,-0.296127 -0.16983,-0.481139 l 0.39071,-1.005703 c 0.0718,-0.185598 0.26331,-0.268932 0.42992,-0.190136 0.16594,0.08048 0.24174,0.296127 0.16927,0.481142 l -0.39071,1.0057 c -0.0536,0.138147 -0.17316,0.220103 -0.2999,0.220103" />
    <path
       inkscape:connector-curvature="0"
       id="path2385"
       style="fill:#5d2169;fill-opacity:1;fill-rule:nonzero;stroke:none;stroke-width:0.06910893"
       d="m 139.41176,-0.0506729 -0.13002,-0.02998 c -0.1652,-0.08048 -0.2411,-0.296125 -0.16927,-0.481139 l 0.94477,-2.430554 c 0.0718,-0.184728 0.26264,-0.268129 0.42989,-0.189909 0.1654,0.08027 0.24111,0.296125 0.16928,0.48092 l -0.94475,2.43136 c -0.0536,0.13736 -0.17316,0.219297 -0.2999,0.219297" />
    <path
       inkscape:connector-curvature="0"
       id="path2387"
       style="fill:#5d2169;fill-opacity:1;fill-rule:nonzero;stroke:none;stroke-width:0.06910893"
       d="m 138.07695,3.3855808 -0.13002,-0.029963 c -0.1652,-0.080274 -0.24173,-0.2958349 -0.16927,-0.4808493 l 0.39071,-1.0059914 c 0.0718,-0.185599 0.26331,-0.268129 0.42989,-0.189329 0.16539,0.08056 0.2411,0.296125 0.16928,0.4811415 l -0.3907,1.0056997 c -0.0536,0.1376501 -0.17373,0.2192994 -0.29989,0.2192994" />
    <path
       inkscape:connector-curvature="0"
       id="path2389"
       style="fill:#5d2169;fill-opacity:1;fill-rule:nonzero;stroke:none;stroke-width:0.06910893"
       d="m 101.90156,-10.17055 c -0.11761,0 -0.23065,-0.07091 -0.28946,-0.195171 l -0.458,-0.969297 c -0.0843,-0.178367 -0.0235,-0.399124 0.13594,-0.494153 0.16002,-0.09355 0.3574,-0.02559 0.44168,0.152777 l 0.45801,0.969297 c 0.0843,0.178367 0.0235,0.399123 -0.13595,0.494152 l -0.15224,0.04239" />
    <path
       inkscape:connector-curvature="0"
       id="path2391"
       style="fill:#5d2169;fill-opacity:1;fill-rule:nonzero;stroke:none;stroke-width:0.06910893"
       d="m 103.36967,-7.0644849 c -0.11761,0 -0.23064,-0.07111 -0.28945,-0.195317 l -0.45801,-0.969224 c -0.0843,-0.178367 -0.0235,-0.399123 0.13594,-0.494152 0.16002,-0.0943 0.3574,-0.02559 0.44169,0.152776 l 0.45799,0.96937 c 0.0843,0.178222 0.0235,0.398903 -0.13594,0.494007 l -0.15224,0.04254" />
    <path
       inkscape:connector-curvature="0"
       id="path2393"
       style="fill:#5d2169;fill-opacity:1;fill-rule:nonzero;stroke:none;stroke-width:0.06910893"
       d="m 78.159636,25.766558 -0.164647,-0.0505 -0.845452,-0.553438 c -0.156146,-0.102196 -0.208422,-0.326607 -0.116957,-0.500509 0.09147,-0.173311 0.2914,-0.231069 0.446901,-0.131061 l 0.84545,0.554244 c 0.155499,0.102196 0.207769,0.326095 0.116957,0.500799 -0.06076,0.115354 -0.16987,0.180481 -0.282252,0.180481" />
    <path
       inkscape:connector-curvature="0"
       id="path2395"
       style="fill:#5d2169;fill-opacity:1;fill-rule:nonzero;stroke:none;stroke-width:0.06910893"
       d="m 81.005686,27.631468 -0.164648,-0.05 -1.423025,-0.932016 c -0.155498,-0.102196 -0.207769,-0.326678 -0.116957,-0.500582 0.09082,-0.173829 0.2914,-0.231798 0.4469,-0.130771 l 1.423025,0.932602 c 0.155498,0.101679 0.207769,0.326098 0.116957,0.5 -0.06076,0.116225 -0.16987,0.180771 -0.282252,0.180771" />
    <path
       inkscape:connector-curvature="0"
       id="path2397"
       style="fill:#5d2169;fill-opacity:1;fill-rule:nonzero;stroke:none;stroke-width:0.06910893"
       d="m 83.274162,29.118825 -0.164647,-0.0505 -0.846105,-0.553947 c -0.155498,-0.101678 -0.20777,-0.326096 -0.116956,-0.499999 0.09147,-0.173912 0.292054,-0.231869 0.4469,-0.130771 l 0.846104,0.553947 c 0.155499,0.102486 0.207771,0.326096 0.116958,0.500876 -0.06076,0.115354 -0.16987,0.180419 -0.282254,0.180419" />
    <text
       xml:space="preserve"
       style="font-style:normal;font-variant:normal;font-weight:bold;font-stretch:normal;font-size:10.58333302px;line-height:1.25;font-family:Roboto;-inkscape-font-specification:'Roboto Bold';letter-spacing:0px;word-spacing:0px;fill:#4d4d4d;fill-opacity:1;stroke:none;stroke-width:0.26458332;"
       x="65.12384"
       y="-46.75843"
       id="text872"><tspan
         sodipodi:role="line"
         id="tspan870"
         x="65.12384"
         y="-46.75843"
         style="stroke-width:0.26458332;fill:#4d4d4d;">Sistema de Iluminação</tspan></text>
  </g>
</svg>
