<?xml version="1.0" encoding="UTF-8" standalone="no"?>
<!-- Created with Inkscape (http://www.inkscape.org/) -->

<svg
   xmlns:dc="http://purl.org/dc/elements/1.1/"
   xmlns:cc="http://creativecommons.org/ns#"
   xmlns:rdf="http://www.w3.org/1999/02/22-rdf-syntax-ns#"
   xmlns:svg="http://www.w3.org/2000/svg"
   xmlns="http://www.w3.org/2000/svg"
   xmlns:sodipodi="http://sodipodi.sourceforge.net/DTD/sodipodi-0.dtd"
   xmlns:inkscape="http://www.inkscape.org/namespaces/inkscape"
   width="230.36389mm"
   height="160.1611mm"
   viewBox="0 0 230.36389 160.16111"
   version="1.1"
   id="svg6888"
   inkscape:version="0.92.3 (2405546, 2018-03-11)"
   sodipodi:docname="multiroom.svg">
  <defs
     id="defs6882">
    <clipPath
       id="clipPath4937"
       clipPathUnits="userSpaceOnUse">
      <path
         inkscape:connector-curvature="0"
         id="path4935"
         d="m 4144.13,204.898 c 0,0 -79.74,92.454 29.49,192.641 109.23,100.18 250.74,55.473 309.98,126.16 59.25,70.692 -47.55,373.442 292.51,478.731 340.07,105.29 606.52,-48.211 623.29,-193.121 16.78,-144.918 -37.54,-252.297 77.95,-288.61 115.5,-36.308 85.14,-243.32 53.66,-324.808 z" />
    </clipPath>
    <linearGradient
       id="linearGradient4945"
       spreadMethod="pad"
       gradientTransform="matrix(-333.328,-906.658,-906.658,333.328,5078.85,945.62)"
       gradientUnits="userSpaceOnUse"
       y2="0"
       x2="1"
       y1="0"
       x1="0">
      <stop
         id="stop4939"
         offset="0"
         style="stop-opacity:1;stop-color:#42c082" />
      <stop
         id="stop4941"
         offset="0.99002"
         style="stop-opacity:1;stop-color:#3fb962" />
      <stop
         id="stop4943"
         offset="1"
         style="stop-opacity:1;stop-color:#3fb962" />
    </linearGradient>
  </defs>
  <sodipodi:namedview
     id="base"
     pagecolor="#ffffff"
     bordercolor="#666666"
     borderopacity="1.0"
     inkscape:pageopacity="0.0"
     inkscape:pageshadow="2"
     inkscape:zoom="0.35"
     inkscape:cx="291.46132"
     inkscape:cy="387.01538"
     inkscape:document-units="mm"
     inkscape:current-layer="layer1"
     showgrid="false"
     fit-margin-top="0"
     fit-margin-left="0"
     fit-margin-right="0"
     fit-margin-bottom="0"
     inkscape:window-width="1024"
     inkscape:window-height="572"
     inkscape:window-x="0"
     inkscape:window-y="1"
     inkscape:window-maximized="1"
     inkscape:snap-global="false" />
  <metadata
     id="metadata6885">
    <rdf:RDF>
      <cc:Work
         rdf:about="">
        <dc:format>image/svg+xml</dc:format>
        <dc:type
           rdf:resource="http://purl.org/dc/dcmitype/StillImage" />
        <dc:title />
      </cc:Work>
    </rdf:RDF>
  </metadata>
  <g
     inkscape:label="Camada 1"
     inkscape:groupmode="layer"
     id="layer1"
     transform="translate(5.7363572,-68.662918)">
    <rect
       style="fill:#f8f8ff;fill-opacity:1;fill-rule:evenodd;stroke:none;stroke-width:0.26499999;stroke-linecap:round;stroke-linejoin:round;stroke-miterlimit:4;stroke-dasharray:none;stroke-opacity:1;paint-order:fill markers stroke"
       id="rect8200"
       width="232.83333"
       height="161.77382"
       x="-4.2244525"
       y="68.562119" />
    <g
       transform="matrix(0.10284482,0,0,-0.09089122,-359.11587,239.91345)"
       id="g4931"
       style="fill:#a2e7f4;fill-opacity:1">
      <g
         clip-path="url(#clipPath4937)"
         id="g4933"
         style="fill:#a2e7f4;fill-opacity:1">
        <path
           inkscape:connector-curvature="0"
           id="path4947"
           style="fill:#a2e7f4;fill-opacity:1;fill-rule:nonzero;stroke:none"
           d="m 4144.13,204.898 c 0,0 -79.74,92.454 29.49,192.641 109.23,100.18 250.74,55.473 309.98,126.16 59.25,70.692 -47.55,373.442 292.51,478.731 340.07,105.29 606.52,-48.211 623.29,-193.121 16.78,-144.918 -37.54,-252.297 77.95,-288.61 115.5,-36.308 85.14,-243.32 53.66,-324.808 l -1386.88,9.007" />
      </g>
    </g>
    <path
       inkscape:connector-curvature="0"
       id="path4949"
       style="fill:#1a1a1a;fill-opacity:1;fill-rule:nonzero;stroke:none;stroke-width:0.09668346"
       d="m 181.33154,120.92235 c -6.85666,0 -12.43496,4.93084 -12.43496,10.99055 0,6.05972 5.5783,10.99057 12.43496,10.99057 6.85873,0 12.436,-4.93085 12.436,-10.99057 0,-6.05971 -5.57727,-10.99055 -12.436,-10.99055 z m 0,22.52827 c -7.19811,0 -13.05409,-5.17534 -13.05409,-11.53772 0,-6.36147 5.85598,-11.53771 13.05409,-11.53771 7.19912,0 13.05512,5.17624 13.05512,11.53771 0,6.36238 -5.856,11.53772 -13.05512,11.53772" />
    <path
       inkscape:connector-curvature="0"
       id="path4951"
       style="fill:#1a1a1a;fill-opacity:1;fill-rule:nonzero;stroke:none;stroke-width:0.09668346"
       d="m 173.92466,126.1186 c -0.17072,0 -0.30957,0.12365 -0.30957,0.27447 v 9.2609 c 0,0.15097 0.13886,0.2736 0.30957,0.2736 h 14.81581 c 0.16967,0 0.30958,-0.12264 0.30958,-0.2736 v -9.2609 c 0,-0.15097 -0.13994,-0.27447 -0.30958,-0.27447 z m 14.81581,10.35613 h -14.81581 c -0.5132,0 -0.9287,-0.3681 -0.9287,-0.82076 v -9.2609 c 0,-0.45353 0.4155,-0.82254 0.9287,-0.82254 h 14.81581 c 0.51321,0 0.92972,0.36901 0.92972,0.82254 v 9.2609 c 0,0.45266 -0.41651,0.82076 -0.92972,0.82076" />
    <path
       inkscape:connector-curvature="0"
       id="path4953"
       style="fill:#1a1a1a;fill-opacity:1;fill-rule:nonzero;stroke:none;stroke-width:0.09668346"
       d="m 175.19787,127.00751 c -0.11314,0 -0.20363,0.0809 -0.20363,0.18087 v 7.67031 c 0,0.0982 0.0905,0.17905 0.20363,0.17905 h 12.26939 c 0.11194,0 0.20377,-0.0809 0.20377,-0.17905 v -7.67031 c 0,-0.10002 -0.0915,-0.18087 -0.20377,-0.18087 z m 12.26939,8.57738 h -12.26939 c -0.45354,0 -0.82378,-0.32537 -0.82378,-0.7262 v -7.67031 c 0,-0.40266 0.37024,-0.72803 0.82378,-0.72803 h 12.26939 c 0.45355,0 0.82379,0.32537 0.82379,0.72803 v 7.67031 c 0,0.40083 -0.37024,0.7262 -0.82379,0.7262" />
    <path
       inkscape:connector-curvature="0"
       id="path4955"
       style="fill:#1a1a1a;fill-opacity:1;fill-rule:nonzero;stroke:none;stroke-width:0.09668346"
       d="m 187.45081,138.25438 h -12.44114 c -0.17072,0 -0.31059,-0.12187 -0.31059,-0.2736 0,-0.15097 0.13987,-0.27356 0.31059,-0.27356 h 12.44114 c 0.17083,0 0.30958,0.12264 0.30958,0.27356 0,0.15176 -0.13878,0.2736 -0.30958,0.2736" />
    <path
       inkscape:connector-curvature="0"
       id="path4957"
       style="fill:#1a1a1a;fill-opacity:1;fill-rule:nonzero;stroke:none;stroke-width:0.09668346"
       d="m 180.17146,138.25438 c -0.17171,0 -0.30957,-0.12187 -0.30957,-0.2736 v -1.77961 c 0,-0.15099 0.13789,-0.2736 0.30957,-0.2736 0.17084,0 0.30955,0.12263 0.30955,0.2736 v 1.77961 c 0,0.15176 -0.13878,0.2736 -0.30955,0.2736" />
    <path
       inkscape:connector-curvature="0"
       id="path4959"
       style="fill:#1a1a1a;fill-opacity:1;fill-rule:nonzero;stroke:none;stroke-width:0.09668346"
       d="m 181.66887,138.25438 c -0.17084,0 -0.3106,-0.12187 -0.3106,-0.2736 v -1.77961 c 0,-0.15099 0.13994,-0.2736 0.3106,-0.2736 0.17083,0 0.30957,0.12263 0.30957,0.2736 v 1.77961 c 0,0.15176 -0.13877,0.2736 -0.30957,0.2736" />
    <path
       inkscape:connector-curvature="0"
       id="path4961"
       style="fill:#333333;fill-opacity:1;fill-rule:nonzero;stroke:none;stroke-width:0.09668346"
       d="m 54.536237,201.49275 c -6.857691,0 -12.435995,-4.93085 -12.435995,-10.99039 0,-6.0599 5.578304,-10.99146 12.435995,-10.99146 6.855636,0 12.435995,4.93156 12.435995,10.99146 0,6.05954 -5.580359,10.99039 -12.435995,10.99039 z m 0,-22.52929 c -7.199138,0 -13.05512,5.17654 -13.05512,11.5389 0,6.3624 5.855982,11.53754 13.05512,11.53754 7.198109,0 13.05512,-5.17514 13.05512,-11.53754 0,-6.36236 -5.857011,-11.5389 -13.05512,-11.5389" />
    <path
       inkscape:connector-curvature="0"
       id="path4963"
       style="fill:#333333;fill-opacity:1;fill-rule:nonzero;stroke:none;stroke-width:0.09668346"
       d="m 60.5722,183.25452 c 0,-0.0881 -0.04731,-0.17005 -0.128565,-0.22261 -0.08023,-0.0508 -0.18512,-0.0647 -0.278701,-0.0363 l -10.117873,3.01187 c -0.128564,0.0367 -0.211854,0.14274 -0.210833,0.26097 0.01632,2.06886 0.03187,5.09344 0.01224,5.96901 -0.312651,-0.21205 -0.677749,-0.34086 -1.072671,-0.34086 -1.15392,0 -2.089809,1.04696 -2.089809,2.34045 0,1.29338 0.935889,2.34043 2.089809,2.34043 1.154946,0 2.091863,-1.04705 2.091863,-2.34043 0,-0.58372 -0.198501,-1.11269 -0.513195,-1.52241 l 0.09049,-0.13166 c 0.04936,-0.1747 0.03393,-3.37754 0.01021,-6.12101 l 9.497716,-2.8258 v 7.14241 c -0.290013,-0.17081 -0.613982,-0.27622 -0.963654,-0.27622 -1.148777,0 -2.081578,1.04243 -2.081578,2.33019 0,1.28701 0.932801,2.33044 2.081578,2.33044 1.149804,0 2.081579,-1.04343 2.081579,-2.33044 0,-0.57344 -0.191301,-1.09143 -0.498797,-1.49761 v -8.08042" />
    <path
       inkscape:connector-curvature="0"
       id="path4965"
       style="fill:#d1c8ed;fill-opacity:1;fill-rule:nonzero;stroke:none;stroke-width:0.09668346"
       d="M 94.249758,215.35085 H 72.622525 c -0.602671,0 -1.111753,0.34365 -1.3051,0.81911 h 24.237433 c -0.193341,-0.47546 -0.702429,-0.81911 -1.3051,-0.81911" />
    <path
       inkscape:connector-curvature="0"
       id="path4967"
       style="fill:#d1c8ed;fill-opacity:1;fill-rule:nonzero;stroke:none;stroke-width:0.09668346"
       d="m 186.89647,193.13258 h -0.42887 c 0.15335,0.0985 0.29725,0.20277 0.42887,0.32202 v -0.32202" />
    <path
       inkscape:connector-curvature="0"
       id="path4969"
       style="fill:#d1c8ed;fill-opacity:1;fill-rule:nonzero;stroke:none;stroke-width:0.09668346"
       d="m 122.47962,193.13258 v 0.28014 c 0.1193,-0.1031 0.24888,-0.19401 0.38362,-0.28014 h -0.38362" />
    <path
       inkscape:connector-curvature="0"
       id="path4971"
       style="fill:#ad55a7;fill-opacity:1;fill-rule:nonzero;stroke:none;stroke-width:0.09668346"
       d="m 129.08226,161.76794 c 0,-0.67805 0.6253,-1.22877 1.39046,-1.22877 h 50.35797 c 0.76721,0 1.38943,0.55072 1.38943,1.22877 v 26.2111 c 0,0.67815 -0.62222,1.22887 -1.38943,1.22887 h -50.35797 c -0.76516,0 -1.39046,-0.55072 -1.39046,-1.22887 z m -0.6181,28.32786 h 54.37507 c 0.25713,0 0.46385,-0.18423 0.46385,-0.40964 v -29.62417 c 0,-0.22647 -0.20669,-0.41081 -0.46385,-0.41081 h -54.37507 c -0.25505,0 -0.46382,0.18423 -0.46382,0.41081 v 29.62417 c 0,0.22546 0.20876,0.40964 0.46382,0.40964" />
    <path
       inkscape:connector-curvature="0"
       id="path4973"
       style="fill:#d1c8ed;fill-opacity:1;fill-rule:nonzero;stroke:none;stroke-width:0.09668346"
       d="m 74.707188,217.94406 h -2.160769 c -0.257099,0 -0.46383,-0.1824 -0.46383,-0.40901 0,-0.22621 0.206723,-0.40973 0.46383,-0.40973 h 2.160769 c 0.257099,0 0.463831,0.1837 0.463831,0.40973 0,0.22647 -0.206723,0.40901 -0.463831,0.40901 z m 0,1.09252 h -2.160769 c -0.257099,0 -0.46383,-0.18241 -0.46383,-0.40901 0,-0.22621 0.206723,-0.40974 0.46383,-0.40974 h 2.160769 c 0.257099,0 0.463831,0.18345 0.463831,0.40974 0,0.22647 -0.206723,0.40901 -0.463831,0.40901 z m 1.496393,0.68267 h 18.046177 c 0.765167,0 1.390463,-0.55059 1.390463,-1.22803 v -1.50224 H 71.232062 v 1.50224 c 0,0.67744 0.625297,1.22803 1.390463,1.22803 h 3.578998 0.0021" />
    <path
       inkscape:connector-curvature="0"
       id="path4975"
       style="fill:#ff9b01;fill-opacity:1;fill-rule:nonzero;stroke:none;stroke-width:0.09668346"
       d="m 184.57835,197.50344 c 1.27836,0 2.31812,-0.91953 2.31812,-2.04923 0,-1.13012 -1.03976,-2.04896 -2.31812,-2.04896 -1.27938,0 -2.32019,0.91884 -2.32019,2.04896 0,1.1297 1.04081,2.04923 2.32019,2.04923" />
    <path
       inkscape:connector-curvature="0"
       id="path4977"
       style="fill:#ff9b01;fill-opacity:1;fill-rule:nonzero;stroke:none;stroke-width:0.09668346"
       d="m 124.75352,197.50344 c 1.28042,0 2.32018,-0.91953 2.32018,-2.04923 0,-1.13012 -1.03976,-2.04896 -2.32018,-2.04896 -1.12717,0 -2.0682,0.71714 -2.2739,1.66232 v 0.77293 c 0.20571,0.94509 1.14673,1.66294 2.2739,1.66294" />
    <path
       inkscape:connector-curvature="0"
       id="path4979"
       style="fill:#d1c8ed;fill-opacity:1;fill-rule:nonzero;stroke:none;stroke-width:0.09668346"
       d="m 122.47962,197.49535 v 0.28014 h 0.38362 c -0.13474,-0.0864 -0.2643,-0.17727 -0.38362,-0.28014" />
    <path
       inkscape:connector-curvature="0"
       id="path4981"
       style="fill:#ff9b01;fill-opacity:1;fill-rule:nonzero;stroke:none;stroke-width:0.09668346"
       d="m 141.30536,196.3066 h 29.83323 c 0.25712,0 0.46383,0.1837 0.46383,0.40973 0,0.22647 -0.20672,0.40902 -0.46383,0.40902 h -29.83323 c -0.25505,0 -0.46382,-0.18242 -0.46382,-0.40902 0,-0.22621 0.20876,-0.40973 0.46382,-0.40973 z m -13.30502,-0.85239 c 0,0.9561 -0.53891,1.80037 -1.35653,2.32128 h 56.04426 c -0.81659,-0.52091 -1.35551,-1.36518 -1.35551,-2.32128 0,-0.95724 0.53892,-1.79973 1.35447,-2.32163 h -56.04219 c 0.81659,0.5219 1.3555,1.36439 1.3555,2.32163" />
    <path
       inkscape:connector-curvature="0"
       id="path4983"
       style="fill:#d1c8ed;fill-opacity:1;fill-rule:nonzero;stroke:none;stroke-width:0.09668346"
       d="m 186.89647,197.77549 v -0.32204 c -0.13178,0.11827 -0.2755,0.22363 -0.42887,0.32204 h 0.42887" />
    <path
       inkscape:connector-curvature="0"
       id="path4985"
       style="fill:#ff754a;fill-opacity:1;fill-rule:nonzero;stroke:none;stroke-width:0.09668346"
       d="m 98.382062,221.29005 h 1.041819 v -5.12009 h -1.041819 v 5.12009" />
    <path
       inkscape:connector-curvature="0"
       id="path4987"
       style="fill:#ff754a;fill-opacity:1;fill-rule:nonzero;stroke:none;stroke-width:0.09668346"
       d="m 208.2131,221.29005 h 1.04183 v -5.12009 h -1.04183 v 5.12009" />
    <path
       inkscape:connector-curvature="0"
       id="path4989"
       style="fill:#ff754a;fill-opacity:1;fill-rule:nonzero;stroke:none;stroke-width:0.09668346"
       d="m 180.40695,203.78065 h 5.9095 c 0.25508,0 0.46382,0.18346 0.46382,0.40977 0,0.22646 -0.20874,0.41 -0.46382,0.41 h -5.9095 c -0.25508,0 -0.4628,-0.18345 -0.4628,-0.41 0,-0.22621 0.20786,-0.40977 0.4628,-0.40977 z m -25.68137,11.5702 h 54.52935 v -14.64168 h -54.52935 v 14.64168" />
    <path
       inkscape:connector-curvature="0"
       id="path4991"
       style="fill:#9c4892;fill-opacity:1;fill-rule:nonzero;stroke:none;stroke-width:0.09668346"
       d="m 142.62898,170.6182 c 0.1625,-0.17468 0.45869,-0.19737 0.65306,-0.0529 l 11.27694,8.32817 c 0.19644,0.14556 0.22316,0.40377 0.0576,0.57736 -0.0894,0.0972 -0.22214,0.14635 -0.35481,0.14635 -0.10489,0 -0.21083,-0.0309 -0.29722,-0.0945 l -11.27693,-8.32756 c -0.19745,-0.14505 -0.22316,-0.40438 -0.0586,-0.5769 z m 3.39491,-2.99877 c 0.16042,-0.17521 0.45045,-0.20458 0.65101,-0.0601 l 12.05032,8.60023 c 0.1985,0.14171 0.22832,0.39983 0.0678,0.57516 -0.0926,0.101 -0.22523,0.15278 -0.36201,0.15278 -0.0998,0 -0.20469,-0.0299 -0.29106,-0.0909 l -12.04828,-8.60093 c -0.19849,-0.14173 -0.23036,-0.40086 -0.0678,-0.57629 z m -15.55117,20.76973 h 50.35797 c 0.25509,0 0.46382,-0.18473 0.46382,-0.41012 v -26.2111 c 0,-0.22546 -0.20873,-0.41074 -0.46382,-0.41074 h -50.35797 c -0.25505,0 -0.46177,0.18524 -0.46177,0.41074 v 26.2111 c 0,0.22546 0.20673,0.41012 0.46177,0.41012" />
    <path
       inkscape:connector-curvature="0"
       id="path4993"
       style="fill:#ff754a;fill-opacity:1;fill-rule:nonzero;stroke:none;stroke-width:0.09668346"
       d="m 153.74137,221.29005 h 1.04285 v -5.12009 h -1.04285 v 5.12009" />
    <path
       inkscape:connector-curvature="0"
       id="path4995"
       style="fill:#ff754a;fill-opacity:1;fill-rule:nonzero;stroke:none;stroke-width:0.09668346"
       d="m 128.38806,204.60042 h -5.90844 c -0.2571,0 -0.46383,-0.18345 -0.46383,-0.41 0,-0.22621 0.20673,-0.40977 0.46383,-0.40977 h 5.90844 c 0.25712,0 0.46383,0.18346 0.46383,0.40977 0,0.22646 -0.20672,0.41 -0.46383,0.41 z m 25.40986,-3.89125 H 98.382062 v 14.64168 h 55.415858 v -14.64168" />
    <path
       inkscape:connector-curvature="0"
       id="path4997"
       style="fill:#5d2169;fill-opacity:1;fill-rule:nonzero;stroke:none;stroke-width:0.09668346"
       d="m 128.00034,160.06199 c 0,-0.22647 0.20876,-0.41081 0.46382,-0.41081 h 54.37507 c 0.25713,0 0.46385,0.18423 0.46385,0.41081 v 29.62417 c 0,0.22546 -0.20669,0.40964 -0.46385,0.40964 h -54.37507 c -0.25505,0 -0.46382,-0.18423 -0.46382,-0.40964 z m 0.46382,30.85294 h 54.37507 c 0.76722,0 1.39151,-0.55171 1.39151,-1.22877 v -29.62417 c 0,-0.67812 -0.62429,-1.22983 -1.39151,-1.22983 h -54.37507 c -0.76722,0 -1.39046,0.55171 -1.39046,1.22983 v 29.62417 c 0,0.67706 0.62324,1.22877 1.39046,1.22877" />
    <path
       inkscape:connector-curvature="0"
       id="path4999"
       style="fill:#5d2169;fill-opacity:1;fill-rule:nonzero;stroke:none;stroke-width:0.09668346"
       d="m 130.01095,161.76794 c 0,-0.22546 0.20673,-0.41074 0.46177,-0.41074 h 50.35797 c 0.25509,0 0.46382,0.18524 0.46382,0.41074 v 26.2111 c 0,0.22546 -0.20873,0.41012 -0.46382,0.41012 h -50.35797 c -0.25505,0 -0.46177,-0.18473 -0.46177,-0.41012 z m 0.46177,27.43997 h 50.35797 c 0.76721,0 1.38943,-0.55072 1.38943,-1.22887 v -26.2111 c 0,-0.67805 -0.62222,-1.22877 -1.38943,-1.22877 h -50.35797 c -0.76516,0 -1.39046,0.55072 -1.39046,1.22877 v 26.2111 c 0,0.67815 0.6253,1.22887 1.39046,1.22887" />
    <path
       inkscape:connector-curvature="0"
       id="path5001"
       style="fill:#5d2169;fill-opacity:1;fill-rule:nonzero;stroke:none;stroke-width:0.09668346"
       d="m 158.14004,176.79661 c 0.0864,0.0611 0.19129,0.0909 0.29105,0.0909 0.13679,0 0.26946,-0.0517 0.36202,-0.15279 0.16042,-0.17519 0.1306,-0.43345 -0.0679,-0.57515 l -12.05033,-8.6002 c -0.20055,-0.14454 -0.49057,-0.11542 -0.65101,0.0601 -0.16249,0.17545 -0.1306,0.43462 0.0678,0.57625 l 12.04827,8.60093" />
    <path
       inkscape:connector-curvature="0"
       id="path5003"
       style="fill:#5d2169;fill-opacity:1;fill-rule:nonzero;stroke:none;stroke-width:0.09668346"
       d="m 153.96453,179.52263 c 0.0864,0.0637 0.19232,0.0945 0.29722,0.0945 0.13268,0 0.26536,-0.049 0.35482,-0.14635 0.16559,-0.17366 0.13883,-0.43174 -0.0576,-0.57732 l -11.2769,-8.32818 c -0.19439,-0.14454 -0.49057,-0.12187 -0.65307,0.0529 -0.16453,0.17262 -0.13885,0.43171 0.0586,0.57687 l 11.27694,8.32756" />
    <path
       inkscape:connector-curvature="0"
       id="path5005"
       style="fill:#5d2169;fill-opacity:1;fill-rule:nonzero;stroke:none;stroke-width:0.09668346"
       d="m 122.47962,197.49535 c 0.1193,0.10276 0.24888,0.19374 0.38362,0.28014 h -0.38362 z m 0,-2.42778 c 0.20571,-0.94518 1.14673,-1.66232 2.2739,-1.66232 1.28042,0 2.32018,0.91884 2.32018,2.04896 0,1.1297 -1.03976,2.04923 -2.32018,2.04923 -1.12717,0 -2.0682,-0.71785 -2.2739,-1.66294 z m 0,-1.93499 h 0.38362 c -0.13474,0.0864 -0.2643,0.17726 -0.38362,0.28014 z m 60.20741,0 c -0.81555,0.5219 -1.35447,1.36439 -1.35447,2.32163 0,0.9561 0.53892,1.80037 1.35551,2.32128 h -56.04426 c 0.81762,-0.52091 1.35653,-1.36518 1.35653,-2.32128 0,-0.95724 -0.53891,-1.79973 -1.3555,-2.32163 z m 1.89132,0.27267 c 1.27836,0 2.31812,0.91884 2.31812,2.04896 0,1.1297 -1.03976,2.04923 -2.31812,2.04923 -1.27938,0 -2.32019,-0.91953 -2.32019,-2.04923 0,-1.13012 1.04081,-2.04896 2.32019,-2.04896 z m 2.31812,-0.27267 v 0.32202 c -0.13178,-0.11928 -0.2755,-0.22363 -0.42887,-0.32202 z m 0,4.64291 h -0.42887 c 0.15335,-0.0985 0.29725,-0.20382 0.42887,-0.32204 z m -65.34245,0.409 c 0,0.22622 0.20673,0.40967 0.46384,0.40967 h 65.34243 c 0.25508,0 0.4628,-0.18345 0.4628,-0.40967 v -5.46094 c 0,-0.2262 -0.20786,-0.40972 -0.4628,-0.40972 h -65.34243 c -0.25713,0 -0.46384,0.18345 -0.46384,0.40972 v 2.32693 c -0.0207,0.13268 -0.0463,0.26522 -0.0463,0.40373 0,0.1381 0.0256,0.2705 0.0463,0.40257 v 2.32771" />
    <path
       inkscape:connector-curvature="0"
       id="path5007"
       style="fill:#5d2169;fill-opacity:1;fill-rule:nonzero;stroke:none;stroke-width:0.09668346"
       d="m 141.30536,197.12535 h 29.83323 c 0.25712,0 0.46383,-0.18242 0.46383,-0.40902 0,-0.22621 -0.20672,-0.40973 -0.46383,-0.40973 h -29.83323 c -0.25505,0 -0.46382,0.1837 -0.46382,0.40973 0,0.22647 0.20876,0.40902 0.46382,0.40902" />
    <path
       inkscape:connector-curvature="0"
       id="path5009"
       style="fill:#5d2169;fill-opacity:1;fill-rule:nonzero;stroke:none;stroke-width:0.09668346"
       d="m 180.40695,204.60042 h 5.9095 c 0.25508,0 0.46382,-0.18345 0.46382,-0.41 0,-0.22621 -0.20874,-0.40977 -0.46382,-0.40977 h -5.9095 c -0.25508,0 -0.4628,0.18346 -0.4628,0.40977 0,0.22646 0.20786,0.41 0.4628,0.41" />
    <path
       inkscape:connector-curvature="0"
       id="path5011"
       style="fill:#5d2169;fill-opacity:1;fill-rule:nonzero;stroke:none;stroke-width:0.09668346"
       d="m 128.38806,203.78065 h -5.90844 c -0.2571,0 -0.46383,0.18346 -0.46383,0.40977 0,0.22646 0.20673,0.41 0.46383,0.41 h 5.90844 c 0.25712,0 0.46383,-0.18345 0.46383,-0.41 0,-0.22621 -0.20672,-0.40977 -0.46383,-0.40977" />
    <path
       inkscape:connector-curvature="0"
       id="path5013"
       style="fill:#5d2169;fill-opacity:1;fill-rule:nonzero;stroke:none;stroke-width:0.09668346"
       d="m 209.25493,215.35085 h -54.52935 v -14.64168 h 54.52935 z m 0,5.9392 h -1.04183 v -5.12009 h 1.04183 z m -1.97049,0 h -51.57463 v -5.12009 h 51.57463 z m -52.50022,0 h -1.04285 v -5.12009 h 1.04285 z m -54.897538,-5.9392 h -1.50462 v -14.64168 h 55.415858 v 14.64168 h -0.52039 z m 52.927018,5.9392 h -52.46319 v -5.12009 h 52.46319 z m -53.389819,0 h -1.041819 v -5.12009 h 1.041819 z m -24.033801,0 0.960568,-0.75097 h 13.210418 l 1.366805,0.75097 z m -2.767555,-1.5708 c -0.765166,0 -1.390463,-0.55059 -1.390463,-1.22803 v -1.50224 h 24.408159 v 1.50224 c 0,0.67744 -0.625296,1.22803 -1.390463,1.22803 h -18.046177 -0.0021 z m 0,-4.3684 h 21.627233 c 0.602671,0 1.111753,0.34365 1.3051,0.81911 H 71.317425 c 0.193342,-0.47546 0.702429,-0.81911 1.3051,-0.81911 z m 139.541895,5.9392 h -1.98286 v -20.99062 c 0,-0.22646 -0.20669,-0.409 -0.46176,-0.409 H 97.918235 c -0.257129,0 -0.46486,0.18242 -0.46486,0.409 v 15.46151 5.52911 h -4.770971 l -1.366809,-0.75097 h 2.934163 c 1.277333,0 2.316067,-0.91888 2.316067,-2.04786 v -1.91127 c 0,-1.12967 -1.038734,-2.04784 -2.316067,-2.04784 H 72.622525 c -1.277332,0 -2.316066,0.91817 -2.316066,2.04784 v 1.91127 c 0,1.12898 1.038734,2.04786 2.316066,2.04786 h 2.330462 l -0.961598,0.75097 h -6.905 c -0.313677,0 -0.566674,0.1824 -0.566674,0.409 0,0.22621 0.252989,0.40964 0.566674,0.40964 h 30.831846 1.968447 53.390848 1.96845 52.5033 1.97052 2.44462 c 0.31263,0 0.56562,-0.18343 0.56562,-0.40964 0,-0.22647 -0.25304,-0.409 -0.56562,-0.409" />
    <path
       inkscape:connector-curvature="0"
       id="path5015"
       style="fill:#5d2169;fill-opacity:1;fill-rule:nonzero;stroke:none;stroke-width:0.09668346"
       d="m 74.707188,217.12532 h -2.160769 c -0.257099,0 -0.46383,0.1837 -0.46383,0.40973 0,0.22647 0.206723,0.40901 0.46383,0.40901 h 2.160769 c 0.257099,0 0.463831,-0.1824 0.463831,-0.40901 0,-0.22621 -0.206723,-0.40973 -0.463831,-0.40973" />
    <path
       inkscape:connector-curvature="0"
       id="path5017"
       style="fill:#5d2169;fill-opacity:1;fill-rule:nonzero;stroke:none;stroke-width:0.09668346"
       d="m 74.707188,218.21783 h -2.160769 c -0.257099,0 -0.46383,0.18345 -0.46383,0.40974 0,0.22647 0.206723,0.40901 0.46383,0.40901 h 2.160769 c 0.257099,0 0.463831,-0.18241 0.463831,-0.40901 0,-0.22621 -0.206723,-0.40974 -0.463831,-0.40974" />
    <path
       inkscape:connector-curvature="0"
       id="path5019"
       style="fill:#5d2169;fill-opacity:1;fill-rule:nonzero;stroke:none;stroke-width:0.09668346"
       d="m 191.87621,167.73948 0.07,-0.005 c 2.30476,-0.30531 5.76755,-0.75693 6.37226,-0.81519 l 0.15831,-0.0113 c 0.2405,-0.0536 0.41344,-0.27086 0.36511,-0.48426 -0.0402,-0.17546 -0.0875,-0.27269 -0.57388,-0.26914 l -0.0175,-0.042 -0.12245,0.0467 c -0.78882,0.0314 -2.50632,0.25985 -6.32083,0.76511 -0.25305,0.0338 -0.42785,0.24168 -0.3898,0.46543 0.0338,0.20329 0.23235,0.34905 0.45767,0.34905" />
    <path
       inkscape:connector-curvature="0"
       id="path5021"
       style="fill:#5d2169;fill-opacity:1;fill-rule:nonzero;stroke:none;stroke-width:0.09668346"
       d="m 192.91908,172.24496 c -0.2551,0 -0.46281,0.18241 -0.46281,0.40902 0,0.2262 0.20786,0.40972 0.46281,0.40972 h 4.75039 c 0.25713,0 0.46382,-0.1837 0.46382,-0.40972 0,-0.22647 -0.20669,-0.40902 -0.46382,-0.40902 h -4.75039" />
    <path
       inkscape:connector-curvature="0"
       id="path5023"
       style="fill:#5d2169;fill-opacity:1;fill-rule:nonzero;stroke:none;stroke-width:0.09668346"
       d="m 147.3876,150.53833 0.0782,-0.008 c 0.25299,-0.0383 0.4227,-0.24989 0.37847,-0.47188 l -1.00478,-5.11979 c -0.0442,-0.2226 -0.28692,-0.37808 -0.5348,-0.33356 -0.25299,0.0392 -0.42166,0.2499 -0.37744,0.47264 l 1.0048,5.12 c 0.038,0.19888 0.23447,0.33982 0.45559,0.33982" />
    <path
       inkscape:connector-curvature="0"
       id="path5025"
       style="fill:#5d2169;fill-opacity:1;fill-rule:nonzero;stroke:none;stroke-width:0.09668346"
       d="m 116.2246,152.24609 c 0.0926,0.0901 0.21906,0.1345 0.34557,0.1345 0.11107,0 0.22112,-0.0346 0.31162,-0.1043 0.18922,-0.152 0.20464,-0.41012 0.0339,-0.58016 l -3.12957,-3.07012 c -0.17279,-0.16721 -0.46383,-0.18267 -0.6541,-0.0309 -0.1913,0.15175 -0.20567,0.41081 -0.0349,0.5788 l 3.12752,3.0722" />
    <path
       inkscape:connector-curvature="0"
       id="path5027"
       style="fill:#5d2169;fill-opacity:1;fill-rule:nonzero;stroke:none;stroke-width:0.09668346"
       d="m 114.62845,167.64042 c -0.14707,0.18525 -0.0987,0.4409 0.11006,0.57088 l 4.80902,3.00295 0.26739,0.0751 c 0.14399,0 0.28692,-0.0601 0.37743,-0.17365 0.1481,-0.18344 0.0987,-0.4399 -0.11106,-0.56978 l -4.80799,-3.00297 c -0.20571,-0.13115 -0.49675,-0.0893 -0.64485,0.0974" />
    <path
       inkscape:connector-curvature="0"
       id="path5029"
       style="fill:#5d2169;fill-opacity:1;fill-rule:nonzero;stroke:none;stroke-width:0.09668346"
       d="m 119.65757,175.13612 -4.808,1.53516 c -0.24167,0.0781 -0.36613,0.31284 -0.27975,0.52445 0.0678,0.16721 0.24683,0.27083 0.43606,0.27083 l 0.15838,-0.0232 4.80697,-1.53624 c 0.24066,-0.0781 0.3651,-0.31238 0.27873,-0.52542 -0.0874,-0.21051 -0.35482,-0.31887 -0.59238,-0.24528" />
    <path
       inkscape:connector-curvature="0"
       id="path5049"
       style="fill:#1a1a1a;fill-opacity:1;fill-rule:nonzero;stroke:none;stroke-width:0.09668346"
       d="m 89.013931,126.87752 c -7.05721,0 -12.798009,5.07356 -12.798009,11.31051 0,6.23696 5.740799,11.31141 12.798009,11.31141 7.058239,0 12.799039,-5.07445 12.799039,-11.31141 0,-6.23695 -5.7408,-11.31051 -12.799039,-11.31051 z m 0,23.07639 c -7.340035,0 -13.312233,-5.27806 -13.312233,-11.76588 0,-6.48782 5.972198,-11.76495 13.312233,-11.76495 7.341063,0 13.313259,5.27713 13.313259,11.76495 0,6.48782 -5.972196,11.76588 -13.313259,11.76588" />
    <path
       inkscape:connector-curvature="0"
       id="path5051"
       style="fill:#1a1a1a;fill-opacity:1;fill-rule:nonzero;stroke:none;stroke-width:0.09668346"
       d="m 84.491844,131.53115 c -0.362015,0 -0.657178,0.25996 -0.657178,0.57991 v 11.50137 c 0,0.31991 0.295163,0.57988 0.657178,0.57988 h 9.046228 c 0.360986,0 0.657179,-0.25997 0.657179,-0.57988 v -11.50137 c 0,-0.31995 -0.296193,-0.57991 -0.657179,-0.57991 z m 9.046228,13.04745 h -9.046228 c -0.6037,0 -1.09427,-0.43265 -1.09427,-0.96617 v -11.50137 c 0,-0.53354 0.49057,-0.9671 1.09427,-0.9671 h 9.046228 c 0.603701,0 1.093241,0.43356 1.093241,0.9671 v 11.50137 c 0,0.53352 -0.48954,0.96617 -1.093241,0.96617" />
    <path
       inkscape:connector-curvature="0"
       id="path5053"
       style="fill:#1a1a1a;fill-opacity:1;fill-rule:nonzero;stroke:none;stroke-width:0.09668346"
       d="m 91.318683,133.40352 c 0,-0.47536 0.437089,-0.86256 0.975997,-0.86256 0.538905,0 0.975997,0.3872 0.975997,0.86256 0,0.47627 -0.437092,0.86346 -0.975997,0.86346 -0.538908,0 -0.975997,-0.38719 -0.975997,-0.86346" />
    <path
       inkscape:connector-curvature="0"
       id="path5055"
       style="fill:#1a1a1a;fill-opacity:1;fill-rule:nonzero;stroke:none;stroke-width:0.09668346"
       d="m 88.280646,135.83214 h -3.502894 c -0.120314,0 -0.219055,-0.0855 -0.219055,-0.19273 0,-0.10638 0.09874,-0.19272 0.219055,-0.19272 h 3.502894 c 0.120314,0 0.218034,0.0864 0.218034,0.19272 0,0.10716 -0.09769,0.19273 -0.218034,0.19273" />
    <path
       inkscape:connector-curvature="0"
       id="path5057"
       style="fill:#1a1a1a;fill-opacity:1;fill-rule:nonzero;stroke:none;stroke-width:0.09668346"
       d="m 93.251136,135.83214 h -3.502894 c -0.120344,0 -0.219055,-0.0855 -0.219055,-0.19273 0,-0.10638 0.09874,-0.19272 0.219055,-0.19272 h 3.502894 c 0.120342,0 0.218034,0.0864 0.218034,0.19272 0,0.10716 -0.09769,0.19273 -0.218034,0.19273" />
    <path
       inkscape:connector-curvature="0"
       id="path5059"
       style="fill:#1a1a1a;fill-opacity:1;fill-rule:nonzero;stroke:none;stroke-width:0.09668346"
       d="m 88.280646,137.66814 h -3.502894 c -0.120314,0 -0.219055,-0.0873 -0.219055,-0.19349 0,-0.10639 0.09874,-0.19349 0.219055,-0.19349 h 3.502894 c 0.120314,0 0.218034,0.0873 0.218034,0.19349 0,0.10639 -0.09769,0.19349 -0.218034,0.19349" />
    <path
       inkscape:connector-curvature="0"
       id="path5061"
       style="fill:#1a1a1a;fill-opacity:1;fill-rule:nonzero;stroke:none;stroke-width:0.09668346"
       d="m 91.726978,137.66814 h -1.978736 c -0.120344,0 -0.219055,-0.0873 -0.219055,-0.19349 0,-0.10639 0.09874,-0.19349 0.219055,-0.19349 h 1.978736 c 0.120342,0 0.219054,0.0873 0.219054,0.19349 0,0.10639 -0.09874,0.19349 -0.219054,0.19349" />
    <path
       inkscape:connector-curvature="0"
       id="path5063"
       style="fill:#1a1a1a;fill-opacity:1;fill-rule:nonzero;stroke:none;stroke-width:0.09668346"
       d="m 88.416402,139.16421 h -1.367834 c -0.120315,0 -0.219055,-0.0864 -0.219055,-0.1935 0,-0.10638 0.09874,-0.19169 0.219055,-0.19169 h 1.367834 c 0.121363,0 0.219055,0.0855 0.219055,0.19169 0,0.10716 -0.09769,0.1935 -0.219055,0.1935" />
    <path
       inkscape:connector-curvature="0"
       id="path5065"
       style="fill:#1a1a1a;fill-opacity:1;fill-rule:nonzero;stroke:none;stroke-width:0.09668346"
       d="m 90.980323,139.16421 h -1.368864 c -0.120313,0 -0.218034,-0.0864 -0.218034,-0.1935 0,-0.10638 0.09769,-0.19169 0.218034,-0.19169 h 1.368864 c 0.120343,0 0.218035,0.0855 0.218035,0.19169 0,0.10716 -0.09769,0.1935 -0.218035,0.1935" />
    <path
       inkscape:connector-curvature="0"
       id="path5067"
       style="fill:#1a1a1a;fill-opacity:1;fill-rule:nonzero;stroke:none;stroke-width:0.09668346"
       d="m 88.416402,140.54031 h -1.367834 c -0.120315,0 -0.219055,-0.0873 -0.219055,-0.19349 0,-0.10639 0.09874,-0.19273 0.219055,-0.19273 h 1.367834 c 0.121363,0 0.219055,0.0864 0.219055,0.19273 0,0.10638 -0.09769,0.19349 -0.219055,0.19349" />
    <path
       inkscape:connector-curvature="0"
       id="path5069"
       style="fill:#1a1a1a;fill-opacity:1;fill-rule:nonzero;stroke:none;stroke-width:0.09668346"
       d="m 90.980323,140.54031 h -1.368864 c -0.120313,0 -0.218034,-0.0873 -0.218034,-0.19349 0,-0.10639 0.09769,-0.19273 0.218034,-0.19273 h 1.368864 c 0.120343,0 0.218035,0.0864 0.218035,0.19273 0,0.10638 -0.09769,0.19349 -0.218035,0.19349" />
    <path
       inkscape:connector-curvature="0"
       id="path5071"
       style="fill:#1a1a1a;fill-opacity:1;fill-rule:nonzero;stroke:none;stroke-width:0.09668346"
       d="m 85.89259,142.10726 c -0.229346,0 -0.416522,0.16464 -0.416522,0.36812 0,0.20353 0.18719,0.36901 0.416522,0.36901 0.230366,0 0.41755,-0.1654 0.41755,-0.36901 0,-0.20355 -0.187161,-0.36812 -0.41755,-0.36812 z m 0,1.12432 c -0.47103,0 -0.85464,-0.33993 -0.85464,-0.7562 0,-0.41629 0.38361,-0.75531 0.85464,-0.75531 0.471031,0 0.855668,0.33902 0.855668,0.75531 0,0.41627 -0.384637,0.7562 -0.855668,0.7562" />
    <path
       inkscape:connector-curvature="0"
       id="path5073"
       style="fill:#1a1a1a;fill-opacity:1;fill-rule:nonzero;stroke:none;stroke-width:0.09668346"
       d="m 88.416402,142.10726 c -0.229346,0 -0.416522,0.16464 -0.416522,0.36812 0,0.20353 0.187162,0.36901 0.416522,0.36901 0.230366,0 0.41755,-0.1654 0.41755,-0.36901 0,-0.20355 -0.18719,-0.36812 -0.41755,-0.36812 z m 0,1.12432 c -0.471028,0 -0.85464,-0.33993 -0.85464,-0.7562 0,-0.41629 0.383612,-0.75531 0.85464,-0.75531 0.471029,0 0.85464,0.33902 0.85464,0.75531 0,0.41627 -0.383611,0.7562 -0.85464,0.7562" />
    <path
       inkscape:connector-curvature="0"
       id="path5075"
       style="fill:#1a1a1a;fill-opacity:1;fill-rule:nonzero;stroke:none;stroke-width:0.09668346"
       d="m 90.939186,142.10635 -0.239637,0.0682 c -0.09154,0.0564 -0.152207,0.14172 -0.170719,0.2391 -0.01866,0.0974 0.0061,0.1935 0.07096,0.2745 0.127514,0.15819 0.399038,0.20174 0.582101,0.0873 0.09154,-0.0564 0.151187,-0.14169 0.169699,-0.23909 0.01866,-0.0974 -0.0061,-0.19451 -0.06993,-0.27449 -0.07918,-0.0972 -0.206724,-0.15537 -0.342474,-0.15537 z m 0.0021,1.12434 c -0.276661,0 -0.538908,-0.12008 -0.698317,-0.31905 -0.131654,-0.1636 -0.184099,-0.36446 -0.145005,-0.56352 0.03804,-0.19814 0.161477,-0.37266 0.348644,-0.48991 0.373326,-0.23447 0.929717,-0.14634 1.190945,0.18008 0.132674,0.16361 0.184099,0.36451 0.146026,0.56355 -0.03804,0.19813 -0.162498,0.37266 -0.348645,0.4899 -0.146027,0.091 -0.31676,0.13911 -0.493654,0.13911" />
    <path
       inkscape:connector-curvature="0"
       id="path5077"
       style="fill:#1a1a1a;fill-opacity:1;fill-rule:nonzero;stroke:none;stroke-width:0.09668346"
       d="m 98.528103,150.50279 c -0.133694,0 -0.267389,-0.0462 -0.368186,-0.13706 l -1.074725,-0.97917 c -0.197453,-0.17959 -0.193342,-0.46703 0.01021,-0.64243 0.204653,-0.17544 0.529652,-0.17004 0.727114,0.008 l 1.074728,0.97806 c 0.197453,0.18062 0.193342,0.46791 -0.01021,0.64262 -0.100779,0.0864 -0.229346,0.12882 -0.358928,0.12882" />
    <path
       inkscape:connector-curvature="0"
       id="path5079"
       style="fill:#1a1a1a;fill-opacity:1;fill-rule:nonzero;stroke:none;stroke-width:0.09668346"
       d="m 101.95592,153.62573 c -0.13369,0 -0.26739,-0.0462 -0.36818,-0.13811 l -1.714427,-1.56149 c -0.197452,-0.18009 -0.193342,-0.46792 0.01021,-0.64262 0.205697,-0.17546 0.530677,-0.169 0.727107,0.0113 l 1.71443,1.56151 c 0.19745,0.18009 0.19232,0.46901 -0.0102,0.64261 -0.10078,0.0864 -0.23037,0.12883 -0.35893,0.12883 z m 3.42782,3.1212 c -0.1337,0 -0.26739,-0.0462 -0.36819,-0.13707 l -1.71442,-1.56142 c -0.19745,-0.18009 -0.19232,-0.46899 0.0102,-0.6427 0.2057,-0.1752 0.53068,-0.17003 0.72711,0.0113 l 1.71443,1.56077 c 0.19745,0.18062 0.19232,0.46899 -0.0102,0.64335 -0.10078,0.0855 -0.23037,0.12803 -0.35893,0.12803" />
    <path
       inkscape:connector-curvature="0"
       id="path5081"
       style="fill:#1a1a1a;fill-opacity:1;fill-rule:nonzero;stroke:none;stroke-width:0.09668346"
       d="m 108.17186,159.28661 c -0.13472,0 -0.26739,-0.0467 -0.36818,-0.13732 l -1.07473,-0.97781 c -0.19745,-0.18114 -0.19334,-0.46792 0.0102,-0.6437 0.20465,-0.17547 0.52862,-0.17082 0.72711,0.0113 l 1.07473,0.9781 c 0.19745,0.18087 0.19334,0.46799 -0.0102,0.64231 -0.10078,0.0866 -0.22935,0.12933 -0.35893,0.12933" />
    <path
       inkscape:connector-curvature="0"
       id="path5083"
       style="fill:#333333;fill-opacity:1;fill-rule:nonzero;stroke:none;stroke-width:0.09668346"
       d="m 66.293454,200.98295 -0.241677,-0.0536 -1.362692,-0.63807 c -0.250948,-0.11722 -0.346587,-0.39194 -0.212904,-0.61354 0.131655,-0.22183 0.443261,-0.30709 0.695232,-0.18808 l 1.362692,0.63807 c 0.250948,0.11722 0.346586,0.39156 0.212874,0.61351 -0.09154,0.15383 -0.27048,0.24168 -0.453545,0.24168" />
    <path
       inkscape:connector-curvature="0"
       id="path5085"
       style="fill:#333333;fill-opacity:1;fill-rule:nonzero;stroke:none;stroke-width:0.09668346"
       d="m 70.306459,202.86076 -0.240656,-0.0526 -1.363722,-0.63845 c -0.250948,-0.11723 -0.346587,-0.39266 -0.212874,-0.61422 0.131625,-0.2208 0.44326,-0.30639 0.695231,-0.18808 l 1.362692,0.63805 c 0.250949,0.11723 0.346587,0.39264 0.212904,0.61452 -0.09049,0.15354 -0.26946,0.24089 -0.453546,0.24089" />
    <path
       inkscape:connector-curvature="0"
       id="path5087"
       style="fill:#5d2169;fill-opacity:1;fill-rule:nonzero;stroke:none;stroke-width:0.09668346"
       d="m 170.34772,145.92562 -0.21495,-0.0416 c -0.25815,-0.10463 -0.37024,-0.37449 -0.25197,-0.60264 l 0.64484,-1.23882 c 0.11929,-0.22905 0.4268,-0.32814 0.68186,-0.22363 0.25814,0.1054 0.37127,0.37536 0.25197,0.6035 l -0.64381,1.23885 c -0.0864,0.16645 -0.27357,0.2645 -0.46794,0.2645" />
    <path
       inkscape:connector-curvature="0"
       id="path5089"
       style="fill:#5d2169;fill-opacity:1;fill-rule:nonzero;stroke:none;stroke-width:0.09668346"
       d="m 168.0481,150.34556 -0.21494,-0.0415 c -0.25814,-0.10485 -0.37024,-0.37467 -0.25197,-0.60289 l 1.14981,-2.20949 c 0.11828,-0.22903 0.4268,-0.329 0.68186,-0.22362 0.25815,0.1054 0.37127,0.37538 0.25197,0.60261 l -1.14981,2.21029 c -0.0864,0.16721 -0.27252,0.26459 -0.46691,0.26459" />
    <path
       inkscape:connector-curvature="0"
       id="path5091"
       style="fill:#5d2169;fill-opacity:1;fill-rule:nonzero;stroke:none;stroke-width:0.09668346"
       d="m 166.25449,153.79476 -0.21494,-0.0415 c -0.25816,-0.10485 -0.37025,-0.37458 -0.25197,-0.60287 l 0.64483,-1.23874 c 0.11828,-0.22906 0.42681,-0.32705 0.68187,-0.22262 0.25815,0.1043 0.37024,0.37455 0.25196,0.6025 l -0.64483,1.23911 c -0.0864,0.16722 -0.27358,0.26414 -0.46692,0.26414" />
    <text
       xml:space="preserve"
       style="font-style:normal;font-variant:normal;font-weight:bold;font-stretch:normal;font-size:17.17009163px;line-height:1.25;font-family:Roboto;-inkscape-font-specification:'Roboto Bold';letter-spacing:0px;word-spacing:0px;fill:#4d4d4d;fill-opacity:1;stroke:none;stroke-width:0.42925227;"
       x="18.92008"
       y="92.812195"
       id="text8386"
       transform="scale(0.92595171,1.0799699)"><tspan
         sodipodi:role="line"
         id="tspan8384"
         x="18.92008"
         y="92.812195"
         style="fill:#4d4d4d;stroke-width:0.42925227;">Sala de Estar</tspan></text>
  </g>
</svg>
