<?xml version="1.0" encoding="UTF-8" standalone="no"?>
<!-- Created with Inkscape (http://www.inkscape.org/) -->

<svg
   xmlns:dc="http://purl.org/dc/elements/1.1/"
   xmlns:cc="http://creativecommons.org/ns#"
   xmlns:rdf="http://www.w3.org/1999/02/22-rdf-syntax-ns#"
   xmlns:svg="http://www.w3.org/2000/svg"
   xmlns="http://www.w3.org/2000/svg"
   xmlns:sodipodi="http://sodipodi.sourceforge.net/DTD/sodipodi-0.dtd"
   xmlns:inkscape="http://www.inkscape.org/namespaces/inkscape"
   width="44.450001mm"
   height="57.85556mm"
   viewBox="0 0 44.450001 57.85556"
   version="1.1"
   id="svg8"
   inkscape:version="0.92.3 (2405546, 2018-03-11)"
   sodipodi:docname="smart-home-office.svg">
  <defs
     id="defs2" />
  <sodipodi:namedview
     id="base"
     pagecolor="#ffffff"
     bordercolor="#666666"
     borderopacity="1.0"
     inkscape:pageopacity="0.0"
     inkscape:pageshadow="2"
     inkscape:zoom="0.98994949"
     inkscape:cx="117.84939"
     inkscape:cy="80.691067"
     inkscape:document-units="mm"
     inkscape:current-layer="g20"
     showgrid="false"
     inkscape:window-width="1024"
     inkscape:window-height="572"
     inkscape:window-x="0"
     inkscape:window-y="1"
     inkscape:window-maximized="1"
     fit-margin-top="0"
     fit-margin-left="0"
     fit-margin-right="0"
     fit-margin-bottom="0" />
  <metadata
     id="metadata5">
    <rdf:RDF>
      <cc:Work
         rdf:about="">
        <dc:format>image/svg+xml</dc:format>
        <dc:type
           rdf:resource="http://purl.org/dc/dcmitype/StillImage" />
        <dc:title></dc:title>
      </cc:Work>
    </rdf:RDF>
  </metadata>
  <g
     inkscape:label="Camada 1"
     inkscape:groupmode="layer"
     id="layer1"
     transform="translate(-152.80127,-188.74521)">
    <g
       transform="matrix(0.35277777,0,0,-0.35277777,13.127686,235.51588)"
       inkscape:label="ink_ext_XXXXXX"
       id="g18">
      <g
         transform="scale(0.1)"
         id="g20">
        <g
           id="g1042"
           transform="translate(0,-60)">
          <path
             d="m 5072.9417,812.33983 v 0 c 1.2799,0 2.3214,-1.02925 2.3214,-2.28279 v -4.29039 c 0,-1.25861 -1.0415,-2.28794 -2.3214,-2.28794 v 0 c -1.2747,0 -2.3215,1.02933 -2.3215,2.28794 v 4.29039 c 0,1.25354 1.0468,2.28279 2.3215,2.28279"
             style="fill:#888383;fill-opacity:1;fill-rule:evenodd;stroke:none;stroke-width:0.51385009"
             id="path260"
             inkscape:connector-curvature="0" />
          <path
             d="m 5072.9417,802.02141 v 0 c 1.2799,0 2.3214,-1.02422 2.3214,-2.28278 v -4.29043 c 0,-1.2535 -1.0415,-2.2879 -2.3214,-2.2879 v 0 c -1.2747,0 -2.3215,1.0344 -2.3215,2.2879 v 4.29043 c 0,1.25856 1.0468,2.28278 2.3215,2.28278"
             style="fill:#888383;fill-opacity:1;fill-rule:evenodd;stroke:none;stroke-width:0.51385009"
             id="path262"
             inkscape:connector-curvature="0" />
          <path
             d="m 5072.9417,791.85074 v 0 c 1.2799,0 2.3214,-1.03436 2.3214,-2.29296 v -4.28537 c 0,-1.25856 -1.0415,-2.28786 -2.3214,-2.28786 v 0 c -1.2747,0 -2.3215,1.0293 -2.3215,2.28786 v 4.28537 c 0,1.2586 1.0468,2.29296 2.3215,2.29296"
             style="fill:#888383;fill-opacity:1;fill-rule:evenodd;stroke:none;stroke-width:0.51385009"
             id="path264"
             inkscape:connector-curvature="0" />
          <path
             d="m 5072.9417,781.66989 v 0 c 1.2799,0 2.3214,-1.0344 2.3214,-2.2879 v -4.29043 c 0,-1.2535 -1.0415,-2.2777 -2.3214,-2.2777 v 0 c -1.2747,0 -2.3215,1.0242 -2.3215,2.2777 v 4.29043 c 0,1.2535 1.0468,2.2879 2.3215,2.2879"
             style="fill:#888383;fill-opacity:1;fill-rule:evenodd;stroke:none;stroke-width:0.51385009"
             id="path266"
             inkscape:connector-curvature="0" />
          <path
             d="m 5072.9417,771.48394 v 0 c 1.2799,0 2.3214,-1.01914 2.3214,-2.2777 v -4.29047 c 0,-1.2535 -1.0415,-2.28279 -2.3214,-2.28279 v 0 c -1.2747,0 -2.3215,1.02929 -2.3215,2.28279 v 4.29047 c 0,1.25856 1.0468,2.2777 2.3215,2.2777"
             style="fill:#888383;fill-opacity:1;fill-rule:evenodd;stroke:none;stroke-width:0.51385009"
             id="path268"
             inkscape:connector-curvature="0" />
          <path
             d="m 5072.9417,761.31326 v 0 c 1.2799,0 2.3214,-1.0293 2.3214,-2.2828 v -4.29043 c 0,-1.25861 -1.0415,-2.2828 -2.3214,-2.2828 v 0 c -1.2747,0 -2.3215,1.02419 -2.3215,2.2828 v 4.29043 c 0,1.2535 1.0468,2.2828 2.3215,2.2828"
             style="fill:#888383;fill-opacity:1;fill-rule:evenodd;stroke:none;stroke-width:0.51385009"
             id="path270"
             inkscape:connector-curvature="0" />
          <path
             d="m 5072.9417,751.13747 v 0 c 1.2799,0 2.3214,-1.0242 2.3214,-2.2828 v -4.29043 c 0,-1.2535 -1.0415,-2.2828 -2.3214,-2.2828 v 0 c -1.2747,0 -2.3215,1.0293 -2.3215,2.2828 v 4.29043 c 0,1.2586 1.0468,2.2828 2.3215,2.2828"
             style="fill:#888383;fill-opacity:1;fill-rule:evenodd;stroke:none;stroke-width:0.51385009"
             id="path272"
             inkscape:connector-curvature="0" />
          <path
             d="m 5072.9417,740.96172 v 0 c 1.2799,0 2.3214,-1.0293 2.3214,-2.2879 v -4.28533 c 0,-1.2586 -1.0415,-2.2828 -2.3214,-2.2828 v 0 c -1.2747,0 -2.3215,1.0242 -2.3215,2.2828 v 4.28533 c 0,1.2586 1.0468,2.2879 2.3215,2.2879"
             style="fill:#888383;fill-opacity:1;fill-rule:evenodd;stroke:none;stroke-width:0.51385009"
             id="path274"
             inkscape:connector-curvature="0" />
          <path
             d="m 5071.3923,734.8624 c -0.8654,0 -1.7929,-0.69301 -2.0676,-1.54397 l -5.6741,-17.62543 c -0.2694,-0.85095 0.2073,-1.54392 1.0727,-1.54392 h 16.4368 c 0.8601,0 1.342,0.69297 1.0726,1.54392 l -5.6741,17.62543 c -0.2694,0.85096 -1.2022,1.54397 -2.0676,1.54397 h -3.0987"
             style="fill:#888383;fill-opacity:1;fill-rule:evenodd;stroke:none;stroke-width:0.51385009"
             id="path276"
             inkscape:connector-curvature="0" />
          <path
             d="m 5023.5536,804.44684 h 4.9279 c 1.1763,0 2.1349,-1.83945 2.1349,-4.09166 V 55.39868 c 0,-2.251204 -0.9586,-4.090692 -2.1349,-4.090692 h -4.9279 c -1.1711,0 -2.1349,1.839488 -2.1349,4.090692 v 744.9565 c 0,2.25221 0.9638,4.09166 2.1349,4.09166"
             style="fill:#888383;fill-opacity:1;fill-rule:evenodd;stroke:none;stroke-width:0.51385009"
             id="path278"
             inkscape:connector-curvature="0" />
          <path
             d="m 5017.5738,834.8927 h 16.8823 c 4.0264,0 7.322,-3.24084 7.322,-7.19999 v -46.49163 c 0,-3.95921 -3.2956,-7.19487 -7.322,-7.19487 h -16.8823 c -4.0316,0 -7.322,3.23566 -7.322,7.19487 v 46.49163 c 0,3.95915 3.2904,7.19999 7.322,7.19999"
             style="fill:#888383;fill-opacity:1;fill-rule:evenodd;stroke:none;stroke-width:0.51385009"
             id="path280"
             inkscape:connector-curvature="0" />
          <path
             d="m 5018.1955,95.734878 h 15.6337 c 3.7257,0 6.7778,-3.815531 6.7778,-8.477427 V 49.427226 c 0,-4.661386 -3.0521,-8.483032 -6.7778,-8.483032 h -15.6337 c -3.7257,0 -6.7726,3.821646 -6.7726,8.483032 v 37.830225 c 0,4.661896 3.0469,8.477427 6.7726,8.477427"
             style="fill:#888383;fill-opacity:1;fill-rule:evenodd;stroke:none;stroke-width:0.51385009"
             id="path282"
             inkscape:connector-curvature="0" />
          <path
             d="m 4988.1668,36.704204 h 75.7015 c 4.0781,0 7.4152,3.286106 7.4152,7.30087 v 0 c 0,4.01477 -3.3371,7.302914 -7.4152,7.302914 h -75.7015 c -4.0833,0 -7.4204,-3.288144 -7.4204,-7.302914 v 0 c 0,-4.014764 3.3371,-7.30087 7.4204,-7.30087"
             style="fill:#888383;fill-opacity:1;fill-rule:evenodd;stroke:none;stroke-width:0.51385009"
             id="path284"
             inkscape:connector-curvature="0" />
          <path
             d="m 5026.015,941.99049 h -36.1071 c -5.5342,0 -11.4985,-4.4637 -13.2551,-9.9006 l -36.3817,-113.03924 c -1.7515,-5.44198 1.3421,-9.9006 6.8815,-9.9006 h 78.8624 78.8623 c 5.5394,0 8.633,4.45862 6.8764,9.9006 l -36.3818,113.03924 c -1.7514,5.4369 -7.7157,9.9006 -13.2551,9.9006 h -36.1018"
             style="fill:#ffffff;fill-opacity:1;fill-rule:evenodd;stroke:none;stroke-width:0.51385009"
             id="path286"
             inkscape:connector-curvature="0" />
          <path
             d="m 5072.9469,801.47618 c 0.7151,0 1.3006,0.57583 1.3006,1.27899 0,0.70316 -0.5855,1.27899 -1.3006,1.27899 -0.7203,0 -1.3059,-0.57583 -1.3059,-1.27899 0,-0.70316 0.5856,-1.27899 1.3059,-1.27899"
             style="fill:#888383;fill-opacity:1;fill-rule:evenodd;stroke:none;stroke-width:0.51385009"
             id="path288"
             inkscape:connector-curvature="0" />
          <path
             d="m 5072.9469,791.30044 c 0.7151,0 1.3006,0.5758 1.3006,1.27387 0,0.71337 -0.5855,1.2841 -1.3006,1.2841 -0.7203,0 -1.3059,-0.57073 -1.3059,-1.2841 0,-0.69807 0.5856,-1.27387 1.3059,-1.27387"
             style="fill:#888383;fill-opacity:1;fill-rule:evenodd;stroke:none;stroke-width:0.51385009"
             id="path290"
             inkscape:connector-curvature="0" />
          <path
             d="m 5072.9469,781.12466 c 0.7151,0 1.3006,0.57069 1.3006,1.279 0,0.70317 -0.5855,1.28406 -1.3006,1.28406 -0.7203,0 -1.3059,-0.58089 -1.3059,-1.28406 0,-0.70831 0.5856,-1.279 1.3059,-1.279"
             style="fill:#888383;fill-opacity:1;fill-rule:evenodd;stroke:none;stroke-width:0.51385009"
             id="path292"
             inkscape:connector-curvature="0" />
          <path
             d="m 5072.9469,770.94381 c 0.7151,0 1.3006,0.57579 1.3006,1.28407 0,0.70826 -0.5855,1.2739 -1.3006,1.2739 -0.7203,0 -1.3059,-0.56564 -1.3059,-1.2739 0,-0.70828 0.5856,-1.28407 1.3059,-1.28407"
             style="fill:#888383;fill-opacity:1;fill-rule:evenodd;stroke:none;stroke-width:0.51385009"
             id="path294"
             inkscape:connector-curvature="0" />
          <path
             d="m 5072.9469,760.76802 c 0.7151,0 1.3006,0.57579 1.3006,1.27901 0,0.70827 -0.5855,1.28405 -1.3006,1.28405 -0.7203,0 -1.3059,-0.57578 -1.3059,-1.28405 0,-0.70322 0.5856,-1.27901 1.3059,-1.27901"
             style="fill:#888383;fill-opacity:1;fill-rule:evenodd;stroke:none;stroke-width:0.51385009"
             id="path296"
             inkscape:connector-curvature="0" />
          <path
             d="m 5072.9469,750.59737 c 0.7151,0 1.3006,0.5707 1.3006,1.27387 0,0.70827 -0.5855,1.28406 -1.3006,1.28406 -0.7203,0 -1.3059,-0.57579 -1.3059,-1.28406 0,-0.70317 0.5856,-1.27387 1.3059,-1.27387"
             style="fill:#888383;fill-opacity:1;fill-rule:evenodd;stroke:none;stroke-width:0.51385009"
             id="path298"
             inkscape:connector-curvature="0" />
          <path
             d="m 5072.9469,740.41649 c 0.7151,0 1.3006,0.57579 1.3006,1.27896 0,0.70321 -0.5855,1.279 -1.3006,1.279 -0.7203,0 -1.3059,-0.57579 -1.3059,-1.279 0,-0.70317 0.5856,-1.27896 1.3059,-1.27896"
             style="fill:#888383;fill-opacity:1;fill-rule:evenodd;stroke:none;stroke-width:0.51385009"
             id="path300"
             inkscape:connector-curvature="0" />
          <path
             d="m 4949.5259,847.81493 -8.3013,-25.79356 h 169.5756 l -8.3013,25.79356 z m 6.6638,20.69805 -4.1455,-12.89678 h 147.9415 l -4.1506,12.89678 h -139.6454 v 0"
             style="fill:#d5d4d3;fill-opacity:1;fill-rule:evenodd;stroke:none;stroke-width:0.51385009"
             id="path302"
             inkscape:connector-curvature="0" />
          <path
             d="m 4254.0477,36.704204 h -149.0064 c -4.0055,0 -7.2887,5.181132 -7.2887,11.501115 V 370.76601 c 0,6.31947 3.2832,11.5006 7.2887,11.5006 h 149.0064 c 4.0076,0 7.2867,-5.18113 7.2867,-11.5006 V 48.205319 c 0,-6.319983 -3.2812,-11.501115 -7.2867,-11.501115"
             style="fill:#ffffff;fill-opacity:1;fill-rule:evenodd;stroke:none;stroke-width:0.51385009"
             id="path304"
             inkscape:connector-curvature="0" />
          <path
             d="m 4169.0091,374.32269 h 21.0714 c 4.8963,0 8.9019,-3.93885 8.9019,-8.75361 v 0 c 0,-4.81527 -4.0056,-8.75412 -8.9019,-8.75412 h -21.0714 c -4.899,0 -8.9045,3.93885 -8.9045,8.75412 v 0 c 0,4.81476 4.0055,8.75361 8.9045,8.75361"
             style="fill:#dddedb;fill-opacity:1;fill-rule:evenodd;stroke:none;stroke-width:0.51385009"
             id="path306"
             inkscape:connector-curvature="0" />
          <path
             d="m 4127.4165,240.96355 h 104.2518 c 9.1517,0 16.6285,-7.35285 16.6285,-16.35767 V 76.367797 c 0,-9.004816 -7.4768,-16.35155 -16.6285,-16.35155 h -104.2518 c -9.1454,0 -16.6285,7.346734 -16.6285,16.35155 V 224.60588 c 0,9.00482 7.4831,16.35767 16.6285,16.35767"
             style="fill:#dddedb;fill-opacity:1;fill-rule:evenodd;stroke:none;stroke-width:0.51385009"
             id="path308"
             inkscape:connector-curvature="0" />
          <path
             d="m 4126.9973,345.96098 h 19.4827 c 1.7913,0 3.2588,-1.44102 3.2588,-3.20458 v -3.94904 c 0,-1.75744 -1.4675,-3.20458 -3.2588,-3.20458 h -19.4827 c -1.797,0 -3.263,1.44714 -3.263,3.20458 v 3.94904 c 0,1.76356 1.466,3.20458 3.263,3.20458"
             style="fill:#d5d4d3;fill-opacity:1;fill-rule:evenodd;stroke:none;stroke-width:0.51385009"
             id="path310"
             inkscape:connector-curvature="0" />
          <path
             d="m 4169.8065,345.96098 h 19.4781 c 1.7934,0 3.2593,-1.44102 3.2593,-3.20458 v -3.94904 c 0,-1.75744 -1.4659,-3.20458 -3.2593,-3.20458 h -19.4781 c -1.7975,0 -3.265,1.44714 -3.265,3.20458 v 3.94904 c 0,1.76356 1.4675,3.20458 3.265,3.20458"
             style="fill:#d5d4d3;fill-opacity:1;fill-rule:evenodd;stroke:none;stroke-width:0.51385009"
             id="path312"
             inkscape:connector-curvature="0" />
          <path
             d="m 4212.6111,345.96098 h 19.4827 c 1.7914,0 3.2567,-1.44102 3.2567,-3.20458 v -3.94904 c 0,-1.75744 -1.4653,-3.20458 -3.2567,-3.20458 h -19.4827 c -1.7976,0 -3.2609,1.44714 -3.2609,3.20458 v 3.94904 c 0,1.76356 1.4633,3.20458 3.2609,3.20458"
             style="fill:#d5d4d3;fill-opacity:1;fill-rule:evenodd;stroke:none;stroke-width:0.51385009"
             id="path314"
             inkscape:connector-curvature="0" />
          <path
             d="m 4179.5463,280.11147 c 3.0365,0 5.5161,2.43617 5.5161,5.42775 0,2.99158 -2.4796,5.42623 -5.5161,5.42623 -3.0423,0 -5.5218,-2.43465 -5.5218,-5.42623 0,-2.99158 2.4795,-5.42775 5.5218,-5.42775"
             style="fill:#d5d4d3;fill-opacity:1;fill-rule:evenodd;stroke:none;stroke-width:0.51385009"
             id="path316"
             inkscape:connector-curvature="0" />
          <path
             d="m 4238.7229,867.74861 c 37.1594,16.05098 43.0497,-25.45216 26.5445,-58.19604 -11.171,-22.15021 -51.4215,-78.87362 -78.5328,-127.12318 h -30.9335 c 10.5782,72.99345 44.5156,168.73326 82.9218,185.31922"
             style="fill:#8dd6a1;fill-opacity:1;fill-rule:evenodd;stroke:none;stroke-width:0.51385009"
             id="path318"
             inkscape:connector-curvature="0" />
          <path
             d="m 4166.8472,682.42939 c 26.3828,88.4329 87.1378,171.78549 87.3808,172.11673 0.5198,0.72354 1.54,0.8917 2.2769,0.37707 0.7327,-0.51978 0.9026,-1.52865 0.3767,-2.25226 -0.2389,-0.33117 -60.3524,-82.80738 -86.6745,-170.24154 h -3.3599"
             style="fill:#66aa7d;fill-opacity:1;fill-rule:evenodd;stroke:none;stroke-width:0.51385009"
             id="path320"
             inkscape:connector-curvature="0" />
          <path
             d="m 4160.2036,998.89224 c -37.4668,36.70816 -63.0583,-9.83432 -57.8382,-56.59096 4.9492,-44.33615 48.2015,-196.48864 43.0316,-260.46806 l 14.762,-0.0204 c 33.5747,82.01764 48.0092,270.08332 0.045,317.0794"
             style="fill:#66aa7d;fill-opacity:1;fill-rule:evenodd;stroke:none;stroke-width:0.51385009"
             id="path322"
             inkscape:connector-curvature="0" />
          <path
             d="m 4154.7305,681.82302 c 31.1496,129.2888 -18.8691,308.11637 -19.0371,308.7278 -0.3057,1.10576 -1.4576,1.78854 -2.5686,1.52873 -1.1094,-0.27519 -1.7633,-1.3911 -1.4597,-2.50193 0.1658,-0.60636 50.2498,-179.64791 18.7945,-307.7495 l 4.2709,-0.005"
             style="fill:#8dd6a1;fill-opacity:1;fill-rule:evenodd;stroke:none;stroke-width:0.51385009"
             id="path324"
             inkscape:connector-curvature="0" />
          <path
             d="m 4067.9772,917.71028 c -39.2789,18.74135 -46.8106,-25.36551 -30.1235,-61.07498 13.8308,-29.58469 72.811,-116.48378 96.2505,-172.81483 l 19.4723,0.66752 c -2.1696,78.89406 -39.2343,211.0924 -85.5993,233.22229"
             style="fill:#8dd6a1;fill-opacity:1;fill-rule:evenodd;stroke:none;stroke-width:0.51385009"
             id="path326"
             inkscape:connector-curvature="0" />
          <path
             d="m 4146.4639,684.2485 c -17.8432,106.17549 -95.1862,219.59681 -95.4634,220.00448 -0.5405,0.79496 -1.6256,1.01917 -2.4251,0.4994 -0.799,-0.52485 -1.012,-1.59493 -0.4736,-2.38982 0.2777,-0.4076 77.1244,-113.09524 94.9006,-218.23635 l 3.4615,0.12229"
             style="fill:#66aa7d;fill-opacity:1;fill-rule:evenodd;stroke:none;stroke-width:0.51385009"
             id="path328"
             inkscape:connector-curvature="0" />
          <path
             d="m 4136.7863,677.69565 h 46.578 l 12.1607,-10.78723 -9.9341,-37.63048 h -25.5148 -25.5164 l -9.9347,37.63048 12.1613,10.78723"
             style="fill:#f68b74;fill-opacity:1;fill-rule:evenodd;stroke:none;stroke-width:0.51385009"
             id="path330"
             inkscape:connector-curvature="0" />
          <path
             d="m 4140.4903,677.69565 h 42.874 l 12.1607,-10.78723 -3.7241,-14.10952 -66.3317,10.92481 -0.8442,3.18471 11.6773,10.35411 4.188,0.43312"
             style="fill:#ea5153;fill-opacity:1;fill-rule:evenodd;stroke:none;stroke-width:0.51385009"
             id="path332"
             inkscape:connector-curvature="0" />
          <path
             d="m 4124.625,691.69814 h 70.9 c 2.1215,0 3.8563,-1.70698 3.8563,-3.79106 v -17.20759 c 0,-2.08917 -1.7348,-3.79617 -3.8563,-3.79617 h -70.9 c -2.1193,0 -3.8537,1.707 -3.8537,3.79617 v 17.20759 c 0,2.08408 1.7344,3.79106 3.8537,3.79106"
             style="fill:#f68b74;fill-opacity:1;fill-rule:evenodd;stroke:none;stroke-width:0.51385009"
             id="path334"
             inkscape:connector-curvature="0" />
          <path
             d="m 4373.5284,1100.8691 h 0.01 c 1.2747,0 2.3163,-1.0243 2.3163,-2.2778 v -5.5643 c 0,-1.2586 -1.0416,-2.2777 -2.3163,-2.2777 h -0.01 c -1.2747,0 -2.3215,1.0191 -2.3215,2.2777 v 5.5643 c 0,1.2535 1.0468,2.2778 2.3215,2.2778"
             style="fill:#454343;fill-opacity:1;fill-rule:evenodd;stroke:none;stroke-width:0.51385009"
             id="path336"
             inkscape:connector-curvature="0" />
          <path
             d="m 4373.5284,914.49497 h 0.01 c 1.2747,0 2.3163,-1.0191 2.3163,-2.27257 v -5.57453 c 0,-1.25346 -1.0416,-2.27256 -2.3163,-2.27256 h -0.01 c -1.2747,0 -2.3215,1.0191 -2.3215,2.27256 v 5.57453 c 0,1.25347 1.0468,2.27257 2.3215,2.27257"
             style="fill:#454343;fill-opacity:1;fill-rule:evenodd;stroke:none;stroke-width:0.51385009"
             id="path338"
             inkscape:connector-curvature="0" />
          <path
             d="m 4423.4865,1087.7073 h 0.01 c 1.1037,-0.6267 1.4871,-2.028 0.8447,-3.1133 l -2.8293,-4.8204 c -0.6375,-1.0854 -2.0572,-1.4624 -3.161,-0.8357 l -0.01,0.01 c -1.1037,0.6267 -1.4923,2.0279 -0.8498,3.1184 l 2.8241,4.8102 c 0.6374,1.0904 2.0676,1.4675 3.1713,0.8357"
             style="fill:#454343;fill-opacity:1;fill-rule:evenodd;stroke:none;stroke-width:0.51385009"
             id="path340"
             inkscape:connector-curvature="0" />
          <path
             d="m 4328.7205,926.30137 0.01,-0.007 c 1.1052,-0.62674 1.4815,-2.02291 0.8461,-3.11336 l -2.8277,-4.81525 c -0.6394,-1.08537 -2.0644,-1.46244 -3.1656,-0.83564 l -0.01,0.007 c -1.1053,0.62673 -1.4877,2.02298 -0.8503,3.11343 l 2.8257,4.81524 c 0.6379,1.09046 2.0649,1.46245 3.1717,0.83572"
             style="fill:#454343;fill-opacity:1;fill-rule:evenodd;stroke:none;stroke-width:0.51385009"
             id="path342"
             inkscape:connector-curvature="0" />
          <path
             d="m 4460.0547,1051.743 h 0.01 c 0.6374,-1.0853 0.2591,-2.4866 -0.8498,-3.1133 l -4.902,-2.7822 c -1.0986,-0.6267 -2.5236,-0.2547 -3.1661,0.8306 v 0.01 c -0.6374,1.0854 -0.2591,2.4867 0.8498,3.1134 l 4.8968,2.7873 c 1.1038,0.6268 2.5287,0.2446 3.1662,-0.8459"
             style="fill:#454343;fill-opacity:1;fill-rule:evenodd;stroke:none;stroke-width:0.51385009"
             id="path344"
             inkscape:connector-curvature="0" />
          <path
             d="m 4295.9154,958.56115 v -0.007 c 0.6414,-1.08538 0.2611,-2.48662 -0.8421,-3.11343 l -4.9004,-2.78726 c -1.1095,-0.62674 -2.5304,-0.24967 -3.1683,0.84079 l -0.01,0.007 c -0.6379,1.09045 -0.2555,2.48662 0.8498,3.1185 l 4.8984,2.77197 c 1.1032,0.62673 2.5282,0.25474 3.1661,-0.83064"
             style="fill:#454343;fill-opacity:1;fill-rule:evenodd;stroke:none;stroke-width:0.51385009"
             id="path346"
             inkscape:connector-curvature="0" />
          <path
             d="m 4473.4446,1002.6273 v -0.015 c 0,-1.2484 -1.0416,-2.2726 -2.3215,-2.2726 h -5.6534 c -1.2747,0 -2.3162,1.0242 -2.3162,2.2726 v 0.015 c 0,1.2534 1.0415,2.2777 2.3162,2.2777 h 5.6534 c 1.2799,0 2.3215,-1.0243 2.3215,-2.2777"
             style="fill:#454343;fill-opacity:1;fill-rule:evenodd;stroke:none;stroke-width:0.51385009"
             id="path348"
             inkscape:connector-curvature="0" />
          <path
             d="m 4283.9142,1002.6273 v -0.015 c 0,-1.2484 -1.0467,-2.2726 -2.3199,-2.2726 h -5.6575 c -1.2773,0 -2.3194,1.0242 -2.3194,2.2726 v 0.015 c 0,1.2534 1.0421,2.2777 2.3194,2.2777 h 5.6575 c 1.2732,0 2.3199,-1.0243 2.3199,-2.2777"
             style="fill:#454343;fill-opacity:1;fill-rule:evenodd;stroke:none;stroke-width:0.51385009"
             id="path350"
             inkscape:connector-curvature="0" />
          <path
             d="m 4460.0599,953.50132 -0.01,-0.007 c -0.6374,-1.09046 -2.0624,-1.4676 -3.1661,-0.84079 l -4.8969,2.78726 c -1.1088,0.62674 -1.4871,2.02798 -0.8498,3.11336 v 0.007 c 0.6426,1.08538 2.0676,1.4573 3.1661,0.83057 l 4.902,-2.77197 c 1.109,-0.63181 1.4821,-2.02805 0.8499,-3.11843"
             style="fill:#454343;fill-opacity:1;fill-rule:evenodd;stroke:none;stroke-width:0.51385009"
             id="path352"
             inkscape:connector-curvature="0" />
          <path
             d="m 4295.9174,1046.6883 v -0.01 c -0.6378,-1.0854 -2.0629,-1.4574 -3.1661,-0.8307 l -4.9004,2.7822 c -1.1048,0.6319 -1.4857,2.0281 -0.8478,3.1134 h 0.01 c 0.6379,1.0904 2.0587,1.4727 3.1681,0.8459 l 4.8964,-2.7822 c 1.1052,-0.6318 1.4877,-2.0331 0.8461,-3.1185"
             style="fill:#454343;fill-opacity:1;fill-rule:evenodd;stroke:none;stroke-width:0.51385009"
             id="path354"
             inkscape:connector-curvature="0" />
          <path
             d="m 4423.4917,917.53705 -0.01,-0.007 c -1.109,-0.62673 -2.534,-0.24974 -3.1713,0.83564 l -2.8242,4.81525 c -0.6425,1.09045 -0.259,2.48669 0.8447,3.11343 l 0.01,0.007 c 1.1037,0.63188 2.5235,0.25481 3.1609,-0.83565 l 2.8293,-4.81524 c 0.6425,-1.09046 0.2591,-2.4867 -0.8447,-3.11343"
             style="fill:#454343;fill-opacity:1;fill-rule:evenodd;stroke:none;stroke-width:0.51385009"
             id="path356"
             inkscape:connector-curvature="0" />
          <path
             d="m 4328.7205,1078.943 -0.01,-0.01 c -1.1052,-0.6267 -2.5303,-0.2496 -3.1681,0.8357 l -2.8257,4.8204 c -0.6374,1.0904 -0.2611,2.4866 0.8482,3.1133 l 0.01,0.01 c 1.1053,0.6268 2.5303,0.2497 3.1676,-0.8357 l 2.8257,-4.8153 c 0.6395,-1.0904 0.2591,-2.4917 -0.8482,-3.1184"
             style="fill:#454343;fill-opacity:1;fill-rule:evenodd;stroke:none;stroke-width:0.51385009"
             id="path358"
             inkscape:connector-curvature="0" />
          <path
             d="m 4376.8189,1002.6273 c 0,-1.7937 -1.4717,-3.24081 -3.2853,-3.24081 -1.8188,0 -3.2905,1.44711 -3.2905,3.24081 v 61.8189 c 0,1.7783 1.4717,3.2356 3.2905,3.2356 1.8136,0 3.2853,-1.4573 3.2853,-3.2356 v -61.8189"
             style="fill:#454343;fill-opacity:1;fill-rule:evenodd;stroke:none;stroke-width:0.51385009"
             id="path360"
             inkscape:connector-curvature="0" />
          <path
             d="m 4371.7977,999.88082 c -1.539,0.93748 -2.0106,2.93498 -1.0571,4.44828 0.9586,1.5135 2.9847,1.972 4.5237,1.0344 l 47.3205,-29.0801 c 1.5391,-0.94268 2.0106,-2.9299 1.0519,-4.4484 -0.9534,-1.50828 -2.9795,-1.972 -4.5237,-1.0344 l -47.3153,29.08022"
             style="fill:#454343;fill-opacity:1;fill-rule:evenodd;stroke:none;stroke-width:0.51385009"
             id="path362"
             inkscape:connector-curvature="0" />
          <path
             d="m 4344.7096,693.54274 h -22.9944 c -2.7329,0 -5.2222,-1.10062 -7.024,-2.88407 -1.8074,-1.76815 -2.9267,-4.214 -2.9267,-6.89935 v -19.04198 c 0,-2.68535 1.1193,-5.13629 2.9267,-6.90953 1.8018,-1.77834 4.2911,-2.87898 7.024,-2.87898 h 22.9944 c 2.7386,0 5.2264,1.10064 7.0297,2.87898 1.8038,1.77324 2.9272,4.22418 2.9272,6.90953 v 19.04198 c 0,2.68535 -1.1214,5.1312 -2.9272,6.89935 -1.8033,1.78345 -4.2911,2.88407 -7.0297,2.88407 z m -22.9944,6.20128 h 22.9944 c 4.4791,0 8.5438,-1.79364 11.4913,-4.69302 2.9427,-2.89935 4.7709,-6.89933 4.7709,-11.29168 v -19.04198 c 0,-4.40253 -1.8282,-8.40253 -4.7709,-11.29678 -2.9475,-2.89936 -7.0122,-4.69808 -11.4913,-4.69808 h -22.9944 c -4.4735,0 -8.5402,1.79872 -11.4871,4.69808 -2.9433,2.89425 -4.773,6.89425 -4.773,11.29678 v 19.04198 c 0,4.39235 1.8297,8.39233 4.773,11.29168 2.9469,2.89938 7.0136,4.69302 11.4871,4.69302 v 0"
             style="fill:#ffffff;fill-opacity:1;fill-rule:evenodd;stroke:none;stroke-width:0.51385009"
             id="path364"
             inkscape:connector-curvature="0" />
          <path
             d="m 4340.8517,671.66254 v -24.30567 c 0,-8.18341 -6.8115,-14.88403 -15.1387,-14.88403 h -22.357 c -8.3293,0 -15.1388,6.70062 -15.1388,14.88403 v 20.43817 3.8675 33.63051 c 0,2.76176 2.3018,5.02416 5.1135,5.02416 h 42.4097 c 2.8116,0 5.1113,-2.2624 5.1113,-5.02416 v -33.63051"
             style="fill:#ffffff;fill-opacity:1;fill-rule:evenodd;stroke:none;stroke-width:0.51385009"
             id="path366"
             inkscape:connector-curvature="0" />
          <path
             d="m 4327.735,686.54149 v -24.29548 c 0,-2.65478 -0.7167,-5.15667 -1.9655,-7.31718 -1.496,-2.58853 -3.7589,-4.69298 -6.4752,-6.02801 -2.022,-0.98344 -4.2932,-1.54395 -6.696,-1.54395 h -24.3811 c 0,-8.18341 6.8095,-14.88403 15.1388,-14.88403 h 12.9628 9.3983 c 8.3231,0 15.1346,6.70062 15.1346,14.88403 v 1.36561 6.20635 12.86621 3.8675 21.8802 6.20128 5.54903 c 0,2.76176 -2.2997,5.02416 -5.1113,5.02416 h -8.0054 v -10.57319 -6.20128 -7.00125"
             style="fill:#ebeae6;fill-opacity:1;fill-rule:evenodd;stroke:none;stroke-width:0.51385009"
             id="path368"
             inkscape:connector-curvature="0" />
          <path
             d="m 4921.5957,696.98731 h -18.7478 c -1.3577,0 -2.4666,1.08536 -2.4666,2.42038 v 9.70188 c 0,1.33503 1.1089,2.42548 2.4666,2.42548 h 18.7478 c 1.3473,0 2.4562,-1.09045 2.4562,-2.42548 v -9.70188 c 0,-1.33502 -1.1089,-2.42038 -2.4562,-2.42038"
             style="fill:#454343;fill-opacity:1;fill-rule:evenodd;stroke:none;stroke-width:0.51385009"
             id="path370"
             inkscape:connector-curvature="0" />
          <path
             d="m 4984.2597,704.26375 h -86.2258 c -4.5237,0 -8.2235,-3.63822 -8.2235,-8.09173 v -58.81257 c 0,-4.4433 3.6998,-8.08151 8.2235,-8.08151 h 86.2258 c 4.5238,0 8.2184,3.63821 8.2184,8.08151 v 58.81257 c 0,4.45351 -3.6946,8.09173 -8.2184,8.09173"
             style="fill:#454343;fill-opacity:1;fill-rule:evenodd;stroke:none;stroke-width:0.51385009"
             id="path372"
             inkscape:connector-curvature="0" />
          <path
             d="m 4906.014,703.67266 v -58.8075 c 0,-4.4484 3.6998,-8.0866 8.2287,-8.0866 h 78.2147 c -0.3058,-4.17833 -3.876,-7.50062 -8.2029,-7.50062 h -86.2206 c -4.5237,0 -8.2235,3.63821 -8.2235,8.08661 v 58.80747 c 0,4.45351 3.6998,8.09173 8.2235,8.09173 h 8.0008 c -0.01,-0.19874 -0.021,-0.39239 -0.021,-0.59109"
             style="fill:#454343;fill-opacity:1;fill-rule:evenodd;stroke:none;stroke-width:0.51385009"
             id="path374"
             inkscape:connector-curvature="0" />
          <path
             d="m 4925.249,689.66505 c -14.6128,0 -26.4585,-11.64838 -26.4585,-26.02287 0,-14.36429 11.8457,-26.01776 26.4585,-26.01776 14.6127,0 26.4584,11.65347 26.4584,26.01776 0,14.37449 -11.8457,26.02287 -26.4584,26.02287"
             style="fill:#26293b;fill-opacity:1;fill-rule:evenodd;stroke:none;stroke-width:0.51385009"
             id="path376"
             inkscape:connector-curvature="0" />
          <path
             d="m 4889.8104,659.89697 v -22.53242 c 0,-4.4484 3.6998,-8.08661 8.2235,-8.08661 h 86.2206 c 4.529,0 8.2236,3.63821 8.2236,8.08661 v 22.53242 h -102.6677"
             style="fill:#ffffff;fill-opacity:1;fill-rule:evenodd;stroke:none;stroke-width:0.51385009"
             id="path378"
             inkscape:connector-curvature="0" />
          <path
             d="m 4906.014,645.77726 v -0.9121 c 0,-4.4484 3.6998,-8.0866 8.2287,-8.0866 h 78.2147 c -0.3058,-4.17833 -3.876,-7.50062 -8.2029,-7.50062 h -86.2206 c -4.5237,0 -8.2235,3.63821 -8.2235,8.08661 v 22.53242 h 9.2548 6.9488 45.4188 c -1.8447,-12.59614 -12.8613,-22.27255 -26.1838,-22.27255 -7.5759,0 -14.4107,3.13374 -19.235,8.15284"
             style="fill:#ffffff;fill-opacity:1;fill-rule:evenodd;stroke:none;stroke-width:0.51385009"
             id="path380"
             inkscape:connector-curvature="0" />
          <path
             d="m 4927.871,639.79002 c 15.1154,0 27.4378,12.11716 27.4378,26.98082 0,14.85856 -12.3224,26.9859 -27.4378,26.9859 -15.1155,0 -27.4378,-12.12734 -27.4378,-26.9859 0,-14.86366 12.3223,-26.98082 27.4378,-26.98082"
             style="fill:#9b9185;fill-opacity:1;fill-rule:evenodd;stroke:none;stroke-width:0.51385009"
             id="path382"
             inkscape:connector-curvature="0" />
          <path
             d="m 4927.871,690.42427 c -13.2863,0 -24.0593,-10.5885 -24.0593,-23.65343 0,-13.06494 10.773,-23.65854 24.0593,-23.65854 13.2862,0 24.0592,10.5936 24.0592,23.65854 0,13.06493 -10.773,23.65343 -24.0592,23.65343"
             style="fill:#454343;fill-opacity:1;fill-rule:evenodd;stroke:none;stroke-width:0.51385009"
             id="path384"
             inkscape:connector-curvature="0" />
          <path
             d="m 4927.871,648.40655 c 10.2859,0 18.6753,8.24966 18.6753,18.36429 0,10.11462 -8.3894,18.35919 -18.6753,18.35919 -10.286,0 -18.6702,-8.24457 -18.6702,-18.35919 0,-10.11463 8.3842,-18.36429 18.6702,-18.36429"
             style="fill:#bad1ed;fill-opacity:1;fill-rule:evenodd;stroke:none;stroke-width:0.51385009"
             id="path386"
             inkscape:connector-curvature="0" />
          <path
             d="m 4927.871,681.37462 c -8.2081,0 -14.8615,-6.53756 -14.8615,-14.60378 0,-8.06622 6.6534,-14.60888 14.8615,-14.60888 8.2028,0 14.8563,6.54266 14.8563,14.60888 0,8.06622 -6.6535,14.60378 -14.8563,14.60378"
             style="fill:#cee0f2;fill-opacity:1;fill-rule:evenodd;stroke:none;stroke-width:0.51385009"
             id="path388"
             inkscape:connector-curvature="0" />
          <path
             d="m 4930.4153,662.62308 c 4.5081,0 8.1872,3.61782 8.1872,8.05093 0,4.43821 -3.6791,8.05093 -8.1872,8.05093 -4.5135,0 -8.1925,-3.61272 -8.1925,-8.05093 0,-4.43311 3.679,-8.05093 8.1925,-8.05093"
             style="fill:#ffffff;fill-opacity:1;fill-rule:evenodd;stroke:none;stroke-width:0.51385009"
             id="path390"
             inkscape:connector-curvature="0" />
          <path
             d="m 4920.5542,657.32373 c 1.7929,0 3.2542,1.43694 3.2542,3.20509 0,1.76305 -1.4613,3.20508 -3.2542,3.20508 -1.7981,0 -3.2542,-1.44203 -3.2542,-3.20508 0,-1.76815 1.4561,-3.20509 3.2542,-3.20509"
             style="fill:#ffffff;fill-opacity:1;fill-rule:evenodd;stroke:none;stroke-width:0.51385009"
             id="path392"
             inkscape:connector-curvature="0" />
          <path
             d="m 4979.7412,696.14146 h -15.2502 c -1.1348,0 -2.0676,-0.90702 -2.0676,-2.02804 v -7.80633 c 0,-1.12102 0.9328,-2.03821 2.0676,-2.03821 h 15.2502 c 1.1399,0 2.0675,0.91719 2.0675,2.03821 v 7.80633 c 0,1.12102 -0.9276,2.02804 -2.0675,2.02804"
             style="fill:#ffffff;fill-opacity:1;fill-rule:evenodd;stroke:none;stroke-width:0.51385009"
             id="path394"
             inkscape:connector-curvature="0" />
          <path
             d="m 4490.5965,667.23962 c 0,0 -9.3273,-6.12482 -31.3761,-39.24066 -25.8159,-38.79226 -88.8737,-54.71577 -58.0054,12.02545 12.9027,27.89801 28.4223,63.50557 39.6669,89.8851 10.4207,24.45853 25.6346,53.50815 50.2845,62.79728 0,0 29.4951,-33.53875 -0.5699,-125.46717"
             style="fill:#ffffff;fill-opacity:1;fill-rule:evenodd;stroke:none;stroke-width:0.51385009"
             id="path396"
             inkscape:connector-curvature="0" />
          <path
             d="m 4660.1254,912.01349 c 0.425,-0.0558 0.8447,-0.12225 1.2592,-0.20383 l 0.016,-0.01 v 0.007 c 7.6743,-1.58471 13.4987,-8.20887 13.6594,-16.2445 0.1761,-9.34015 -7.379,-17.06499 -16.8825,-17.23822 -9.4983,-0.18346 -17.3488,7.25604 -17.5301,16.59612 -0.1088,5.43189 2.4043,10.31334 6.384,13.48283 -0.4353,-4.99878 0.3731,-11.18474 6.8556,-11.80132 l -0.1866,9.75289 c -0.078,3.95922 3.6688,5.77322 6.4255,5.66111"
             style="fill:#e6706d;fill-opacity:1;fill-rule:evenodd;stroke:none;stroke-width:0.51385009"
             id="path398"
             inkscape:connector-curvature="0" />
          <path
             d="m 4541.3836,912.01349 c -0.4248,-0.0558 -0.8446,-0.12225 -1.2592,-0.20383 l -0.016,-0.01 0.01,0.007 c -7.6795,-1.58471 -13.5091,-8.20887 -13.6697,-16.2445 -0.1762,-9.34015 7.3841,-17.06499 16.8876,-17.23822 9.4983,-0.18346 17.3488,7.25604 17.5301,16.59612 0.1037,5.43189 -2.4043,10.31334 -6.3892,13.48283 0.4405,-4.99878 -0.3679,-11.18474 -6.8555,-11.80132 l 0.1917,9.75289 c 0.078,3.95922 -3.6687,5.77322 -6.4255,5.66111"
             style="fill:#e6706d;fill-opacity:1;fill-rule:evenodd;stroke:none;stroke-width:0.51385009"
             id="path400"
             inkscape:connector-curvature="0" />
          <path
             d="m 4595.5287,885.34347 v 0 c 17.0016,0 30.9044,-13.67638 30.9044,-30.38975 v -46.58834 c 0,-16.71335 -13.9028,-30.37957 -30.9044,-30.37957 v 0 c -16.9964,0 -30.8994,13.66622 -30.8994,30.37957 v 46.58834 c 0,16.71337 13.903,30.38975 30.8994,30.38975"
             style="fill:#f89f93;fill-opacity:1;fill-rule:evenodd;stroke:none;stroke-width:0.51385009"
             id="path402"
             inkscape:connector-curvature="0" />
          <path
             d="m 4595.5287,885.34347 v 0 c 17.0016,0 30.9044,-13.67638 30.9044,-30.38975 v -29.83937 c -9.7055,-6.92994 -21.629,-11.02673 -34.4695,-11.02673 v 0 c -9.8507,0 -19.1521,2.40505 -27.3343,6.65476 v 34.21134 c 0,16.71337 13.903,30.38975 30.8994,30.38975"
             style="fill:#e6706d;fill-opacity:1;fill-rule:evenodd;stroke:none;stroke-width:0.51385009"
             id="path404"
             inkscape:connector-curvature="0" />
          <path
             d="m 4600.752,996.54832 v 0 c 32.402,0 58.9174,-26.06874 58.9174,-57.9413 V 885.9193 c 0,-31.86235 -26.5154,-57.94125 -58.9174,-57.94125 v 0 c -32.4021,0 -58.9175,26.0789 -58.9175,57.94125 v 52.68772 c 0,31.87256 26.5154,57.9413 58.9175,57.9413"
             style="fill:#f89f93;fill-opacity:1;fill-rule:evenodd;stroke:none;stroke-width:0.51385009"
             id="path406"
             inkscape:connector-curvature="0" />
          <path
             d="m 4570.1273,885.12441 c 4.3735,-0.0815 7.8557,-3.63314 7.7728,-7.93375 -0.083,-4.30064 -3.6947,-7.72993 -8.0681,-7.64843 -4.3735,0.0765 -7.8558,3.63821 -7.778,7.93377 0.083,4.30576 3.6946,7.72484 8.0733,7.64841"
             style="fill:#f35f66;fill-opacity:1;fill-rule:evenodd;stroke:none;stroke-width:0.51385009"
             id="path408"
             inkscape:connector-curvature="0" />
          <path
             d="m 4631.6771,883.88617 c 4.3736,-0.0866 7.8557,-3.63821 7.7728,-7.94392 -0.083,-4.29554 -3.6895,-7.71976 -8.0733,-7.64333 -4.3735,0.0816 -7.8505,3.63313 -7.7728,7.93375 0.083,4.31086 3.6947,7.72993 8.0733,7.6535"
             style="fill:#f35f66;fill-opacity:1;fill-rule:evenodd;stroke:none;stroke-width:0.51385009"
             id="path410"
             inkscape:connector-curvature="0" />
          <path
             d="m 4619.7382,925.91915 c -1.2022,-0.535 -1.7411,-1.93625 -1.1918,-3.11329 0.5389,-1.1924 1.9639,-1.71211 3.1661,-1.18218 0.021,0.0157 7.2442,3.37325 14.1412,-0.88662 1.1193,-0.69809 2.6065,-0.36692 3.3113,0.74391 0.7046,1.10576 0.3678,2.56306 -0.7566,3.25607 -9.1046,5.63058 -18.6443,1.19233 -18.6702,1.18211"
             style="fill:#454343;fill-opacity:1;fill-rule:evenodd;stroke:none;stroke-width:0.51385009"
             id="path412"
             inkscape:connector-curvature="0" />
          <path
             d="m 4563.2095,924.86952 c -1.1606,-0.63188 -1.5752,-2.06366 -0.9327,-3.20509 0.6374,-1.1312 2.1038,-1.54395 3.2542,-0.91207 0.021,0.01 6.9436,3.93885 14.1672,0.23436 1.171,-0.5962 2.6323,-0.14778 3.2386,1.01403 0.6115,1.15158 0.1555,2.57828 -1.026,3.18464 -9.5346,4.88667 -18.6806,-0.30572 -18.7013,-0.31587"
             style="fill:#454343;fill-opacity:1;fill-rule:evenodd;stroke:none;stroke-width:0.51385009"
             id="path414"
             inkscape:connector-curvature="0" />
          <path
             d="m 4599.213,892.42628 c -1.0624,-2.84332 -2.9278,-7.99488 -2.7672,-8.85605 0.228,-1.21271 6.5551,-2.32354 8.2185,-0.73884 1.1037,1.05993 -0.2643,5.70194 -1.4665,8.82545 -1.6375,4.26501 -2.5495,4.60126 -3.9848,0.76944"
             style="fill:#fbccb8;fill-opacity:1;fill-rule:evenodd;stroke:none;stroke-width:0.51385009"
             id="path416"
             inkscape:connector-curvature="0" />
          <path
             d="m 4588.7404,871.17284 c 0,-6.51721 5.3788,-11.80633 12.0116,-11.80633 6.6327,0 12.0167,5.28912 12.0167,11.80633 0,1.19741 -0.995,2.18083 -2.2127,2.18083 h -19.6029 c -1.2178,0 -2.2127,-0.98342 -2.2127,-2.18083"
             style="fill:#454343;fill-opacity:1;fill-rule:evenodd;stroke:none;stroke-width:0.51385009"
             id="path418"
             inkscape:connector-curvature="0" />
          <path
             d="m 4609.3434,873.35367 h -17.1829 v -2.00252 c 0,-1.03948 0.8654,-1.8955 1.9276,-1.8955 h 13.3329 c 1.0519,0 1.9224,0.85602 1.9224,1.8955 v 2.00252"
             style="fill:#ffffff;fill-opacity:1;fill-rule:evenodd;stroke:none;stroke-width:0.51385009"
             id="path420"
             inkscape:connector-curvature="0" />
          <path
             d="m 4592.0517,863.03017 c 2.1815,-2.25733 5.275,-3.66366 8.7003,-3.66366 3.4252,0 6.5187,1.40633 8.7054,3.66366 -2.1867,2.2675 -5.2802,3.68404 -8.7054,3.68404 -3.4253,0 -6.5188,-1.41654 -8.7003,-3.68404"
             style="fill:#f1476f;fill-opacity:1;fill-rule:evenodd;stroke:none;stroke-width:0.51385009"
             id="path422"
             inkscape:connector-curvature="0" />
          <path
             d="m 4628.7131,894.37783 c 3.7932,0 6.8867,3.04208 6.8867,6.77201 0,3.72987 -3.0935,6.77195 -6.8867,6.77195 -3.793,0 -6.8866,-3.04208 -6.8866,-6.77195 0,-3.72993 3.0936,-6.77201 6.8866,-6.77201"
             style="fill:#454343;fill-opacity:1;fill-rule:evenodd;stroke:none;stroke-width:0.51385009"
             id="path424"
             inkscape:connector-curvature="0" />
          <path
             d="m 4572.7959,894.37783 c 3.7932,0 6.8867,3.04208 6.8867,6.77201 0,3.72987 -3.0935,6.77195 -6.8867,6.77195 -3.793,0 -6.8814,-3.04208 -6.8814,-6.77195 0,-3.72993 3.0884,-6.77201 6.8814,-6.77201"
             style="fill:#454343;fill-opacity:1;fill-rule:evenodd;stroke:none;stroke-width:0.51385009"
             id="path426"
             inkscape:connector-curvature="0" />
          <path
             d="m 4541.8396,897.68487 c 0,0 6.8038,6.8586 5.3218,23.03689 0,0 6.4255,8.56048 8.037,16.74897 1.6064,8.18342 -4.2077,26.83819 -4.2077,26.83819 0,0 -6.9228,0 -11.1254,0 -4.2024,0 -6.4306,-11.04204 -7.6639,-16.1783 -1.2384,-5.13633 3.6999,-37.77318 3.6999,-37.77318 2.4251,1.29429 5.9383,-4.2904 5.9383,-12.67257"
             style="fill:#454343;fill-opacity:1;fill-rule:evenodd;stroke:none;stroke-width:0.51385009"
             id="path428"
             inkscape:connector-curvature="0" />
          <path
             d="m 4537.0775,953.35861 c 0,0 -11.9337,3.45983 -15.473,12.24967 -3.5443,8.79485 3.9228,14.27765 11.8406,10.07384 0,0 0.8083,25.75278 27.8368,37.65598 27.0181,11.9032 65.6072,-3.1083 65.6072,-3.1083 0,0 7.8712,28.1783 32.6508,25.1158 24.7899,-3.0624 29.9977,-72.97808 -0.3265,-82.90928 -30.3137,-9.92613 -82.8886,-0.91208 -82.8886,-0.91208 0,0 -10.9337,-13.83945 -22.8105,-11.52105 -11.8767,2.31847 -16.4368,13.35542 -16.4368,13.35542"
             style="fill:#454343;fill-opacity:1;fill-rule:evenodd;stroke:none;stroke-width:0.51385009"
             id="path430"
             inkscape:connector-curvature="0" />
          <path
             d="m 4659.6694,897.68487 c 0,0 -6.8088,6.8586 -5.3217,23.03689 0,0 -6.4307,8.56048 -8.037,16.74897 -1.6064,8.18342 4.2076,26.83819 4.2076,26.83819 0,0 6.923,0 11.1254,0 4.2025,0 6.4255,-11.04204 7.6639,-16.1783 1.2333,-5.13633 -3.7049,-37.77318 -3.7049,-37.77318 -2.4199,1.29429 -5.9333,-4.2904 -5.9333,-12.67257"
             style="fill:#454343;fill-opacity:1;fill-rule:evenodd;stroke:none;stroke-width:0.51385009"
             id="path432"
             inkscape:connector-curvature="0" />
          <path
             d="m 4678.7023,89.319606 h -166.653 v 10.085582 c 0,5.543422 4.6118,10.077422 10.2496,10.077422 h 146.1538 c 5.6378,0 10.2496,-4.534 10.2496,-10.077422 V 89.319606"
             style="fill:#454343;fill-opacity:1;fill-rule:evenodd;stroke:none;stroke-width:0.51385009"
             id="path434"
             inkscape:connector-curvature="0" />
          <path
             d="m 4606.4986,94.594499 h -22.2508 V 374.56778 c 0,6.02291 5.0057,10.94519 11.1254,10.94519 v 0 c 6.1198,0 11.1254,-4.92228 11.1254,-10.94519 V 94.594499"
             style="fill:#454343;fill-opacity:1;fill-rule:evenodd;stroke:none;stroke-width:0.51385009"
             id="path436"
             inkscape:connector-curvature="0" />
          <path
             d="m 4509.2148,366.60398 h -18.126 v 95.33173 c 0,4.8968 4.0729,8.90698 9.0578,8.90698 h 0.01 c 4.9849,0 9.063,-4.01018 9.063,-8.90698 v -95.33173"
             style="fill:#454343;fill-opacity:1;fill-rule:evenodd;stroke:none;stroke-width:0.51385009"
             id="path438"
             inkscape:connector-curvature="0" />
          <path
             d="m 4699.6577,366.60398 h -18.1261 v 95.33173 c 0,4.8968 4.0781,8.90698 9.063,8.90698 h 0.01 c 4.9797,0 9.0579,-4.01018 9.0579,-8.90698 v -95.33173"
             style="fill:#454343;fill-opacity:1;fill-rule:evenodd;stroke:none;stroke-width:0.51385009"
             id="path440"
             inkscape:connector-curvature="0" />
          <path
             d="m 4452.5255,388.85513 h 285.6954 c 9.7159,0 17.6649,-7.82062 17.6649,-17.38034 v 0 c 0,-9.55411 -7.949,-17.38084 -17.6649,-17.38084 h -285.6954 c -9.7159,0 -17.6701,7.82673 -17.6701,17.38084 v 0 c 0,9.55972 7.9542,17.38034 17.6701,17.38034"
             style="fill:#454343;fill-opacity:1;fill-rule:evenodd;stroke:none;stroke-width:0.51385009"
             id="path442"
             inkscape:connector-curvature="0" />
          <path
             d="m 4431.0002,406.23139 h 328.746 c 9.7212,0 17.665,-7.82215 17.665,-17.37626 v 0 c 0,-9.55819 -7.9438,-17.38034 -17.665,-17.38034 h -328.746 c -9.7211,0 -17.6701,7.82215 -17.6701,17.38034 v 0 c 0,9.55411 7.949,17.37626 17.6701,17.37626"
             style="fill:#ffffff;fill-opacity:1;fill-rule:evenodd;stroke:none;stroke-width:0.51385009"
             id="path444"
             inkscape:connector-curvature="0" />
          <path
             d="m 4700.1448,667.23962 c 0,0 9.3324,-6.12482 31.3811,-39.24066 25.816,-38.79226 88.8686,-54.71577 58.0055,12.02545 -12.9027,27.89801 -28.4275,63.50557 -39.6669,89.8851 -10.4259,24.45853 -25.6397,53.50815 -50.2845,62.79728 0,0 -29.4951,-33.53875 0.5648,-125.46717"
             style="fill:#ffffff;fill-opacity:1;fill-rule:evenodd;stroke:none;stroke-width:0.51385009"
             id="path446"
             inkscape:connector-curvature="0" />
          <path
             d="m 4626.4331,817.91944 0.026,0.0207 73.1053,-25.23303 -0.016,-0.0253 0.021,-0.0968 c -0.2591,-3.42928 -15.5092,-88.18321 0.5752,-125.34488 l -0.9172,-15.34264 c -0.2124,-2.61401 -2.4924,-54.22152 -9.2237,-76.43802 0,0 13.0375,-67.05205 11.7991,-71.76032 -1.2437,-4.71846 -2.6168,-17.31461 -2.6168,-17.31461 0.4041,-2.98088 0.8342,-6.15539 1.2954,-9.47258 -18.1106,-7.47004 -51.7769,-17.07512 -104.4555,-16.62671 l -0.6529,-0.005 h -0.01 v 0 l -0.6477,0.005 c -52.6786,-0.44841 -86.3502,9.15667 -104.4607,16.62671 0.4612,3.31719 0.8913,6.4917 1.2902,9.47258 0,0 -1.368,12.59615 -2.6064,17.31461 -1.2437,4.70827 11.7939,71.76032 11.7939,71.76032 -6.7261,22.2165 -9.0113,73.82401 -9.2185,76.43802 l -0.9224,15.34264 c 16.0844,37.16167 0.8395,121.9156 0.5803,125.34488 l 0.021,0.0968 -0.016,0.0253 73.1002,25.23303 0.026,-0.0207 c 0.8291,-9.97195 15.9342,-15.43438 31.06,-15.24577 15.1361,-0.18861 30.2412,5.27382 31.0651,15.24577"
             style="fill:#9b9185;fill-opacity:1;fill-rule:evenodd;stroke:none;stroke-width:0.51385009"
             id="path448"
             inkscape:connector-curvature="0" />
          <path
             d="m 4752.5798,523.72407 c 0,0 47.5381,1.07007 51.0514,-42.33873 3.5133,-43.4139 -37.6253,-52.78509 -37.6253,-52.78509 l -40.6308,-31.81546 h -17.556 l -18.7479,77.32413 c 0,0 48.9113,49.57439 63.5086,49.61515"
             style="fill:#c7d3e0;fill-opacity:1;fill-rule:evenodd;stroke:none;stroke-width:0.51385009"
             id="path450"
             inkscape:connector-curvature="0" />
          <path
             d="m 4438.1614,523.72407 c 0,0 -47.5381,1.07007 -51.0514,-42.33873 -3.5133,-43.4139 37.6201,-52.78509 37.6201,-52.78509 l 40.636,-31.81546 h 17.5561 l 18.7531,77.32413 c 0,0 -48.9114,49.57439 -63.5139,49.61515"
             style="fill:#c7d3e0;fill-opacity:1;fill-rule:evenodd;stroke:none;stroke-width:0.51385009"
             id="path452"
             inkscape:connector-curvature="0" />
          <path
             d="m 4752.5798,523.72407 c -23.5981,-2.69043 -47.9891,-7.8522 -66.2187,-36.86104 0,0 -35.8584,-13.26366 -90.9931,-12.92736 -55.1295,-0.3363 -90.9827,12.92736 -90.9827,12.92736 -18.2348,29.00884 -42.6258,34.17061 -66.2239,36.86104 32.2363,-14.73626 33.4384,-55.63296 33.4384,-55.63296 l 7.9646,-71.51523 h 115.8036 115.8141 l 7.9593,71.51523 c 0,0 1.197,40.8967 33.4384,55.63296"
             style="fill:#ffffff;fill-opacity:1;fill-rule:evenodd;stroke:none;stroke-width:0.51385009"
             id="path454"
             inkscape:connector-curvature="0" />
          <path
             d="m 4649.4975,396.57995 c 46.336,23.71 70.3227,72.8309 70.3227,72.8309 l -8.6381,-72.8309 z m 5.1041,82.34424 c 1.9743,-11.82162 -1.9743,-25.20758 -1.9743,-25.20758 l 33.7338,33.14642 c 0,0 -11.6125,-4.29553 -31.7595,-7.93884 v 0"
             style="fill:#c7d3e0;fill-opacity:1;fill-rule:evenodd;stroke:none;stroke-width:0.51385009"
             id="path456"
             inkscape:connector-curvature="0" />
          <path
             d="m 4541.2438,396.57995 c -46.3361,23.71 -70.3176,72.8309 -70.3176,72.8309 l 8.6382,-72.8309 z m -5.1042,82.34424 c -1.9691,-11.82162 1.9743,-25.20758 1.9743,-25.20758 l -33.7286,33.14642 c 0,0 11.6125,-4.29553 31.7543,-7.93884 v 0"
             style="fill:#c7d3e0;fill-opacity:1;fill-rule:evenodd;stroke:none;stroke-width:0.51385009"
             id="path458"
             inkscape:connector-curvature="0" />
          <path
             d="m 4485.1141,136.71413 c 1.1452,-11.67997 -3.1609,-4.74954 -3.1609,-4.74954 1.2073,-8.89679 -1.109,-4.62164 -1.109,-4.62164 -9.8092,-0.73427 -16.6699,-3.16891 -25.7174,-3.16891 -9.0578,0 -9.6642,8.15692 -9.6642,8.15692 -9.6537,0.44994 -11.9182,9.93628 -11.9182,9.93628 -28.3964,196.62165 -69.5081,318.73598 -48.8233,343.01617 19.0174,22.31842 40.3562,31.43941 61.125,29.08019 31.1066,-14.21653 29.837,-101.74649 29.837,-101.74649 13.7474,-93.74396 0.5441,-185.29429 9.431,-275.90298"
             style="fill:#f89f93;fill-opacity:1;fill-rule:evenodd;stroke:none;stroke-width:0.51385009"
             id="path460"
             inkscape:connector-curvature="0" />
          <path
             d="m 4381.1094,53.509767 c 0,0 37.444,0 53.2485,0 15.8151,0 21.6395,4.590055 31.2051,13.114869 9.5709,8.530935 21.4269,19.908226 23.5049,22.308735 2.0778,2.404577 2.394,7.657557 2.394,10.609396 0,2.949803 -2.4977,6.124313 -2.4977,6.124313 0,0 0,15.96327 0,20.88555 0,4.91871 -2.078,9.18214 -3.8501,10.1615 0,0 -5.7208,-3.05323 -14.8771,-0.43414 -9.1511,2.6293 -7.4877,8.75005 -16.4368,8.75005 -8.9387,0 -9.1459,0 -15.5973,0 -6.4514,0 -12.483,-4.14827 -14.7682,-10.9294 -2.2852,-6.77756 -3.1247,-13.78391 -9.5709,-21.42721 -6.4462,-7.65909 -29.951,-31.934691 -32.8684,-35.214678 -2.907,-3.282546 -5.2958,-6.13094 -5.2958,-10.2787 0,-4.157948 0,-5.360501 0,-7.770683 0,-2.400502 1.5027,-5.895526 5.4098,-5.899602"
             style="fill:#ca7746;fill-opacity:1;fill-rule:evenodd;stroke:none;stroke-width:0.51385009"
             id="path462"
             inkscape:connector-curvature="0" />
          <path
             d="m 4381.1094,53.509767 c 0,0 37.444,0 53.2485,0 4.5549,0 8.2858,0.376054 11.5142,1.130185 -0.3628,7.888387 -0.8188,17.309001 -0.8188,17.309001 0,0 0,3.118971 0,8.035647 0,4.918207 -0.2177,8.025459 -18.323,8.025459 l -23.2768,-0.05605 c 0,0 -3.2542,0 -7.0006,0 -3.6844,0 -6.8867,-1.472607 -8.5138,-3.116933 l -0.073,-0.08764 c -3.42,-3.586747 -6.0161,-6.333231 -6.8711,-7.290682 -2.907,-3.282546 -5.2958,-6.13094 -5.2958,-10.2787 0,-4.157948 0,-5.360501 0,-7.770683 0,-2.400502 1.5027,-5.895526 5.4098,-5.899602"
             style="fill:#ca7746;fill-opacity:1;fill-rule:evenodd;stroke:none;stroke-width:0.51385009"
             id="path464"
             inkscape:connector-curvature="0" />
          <path
             d="m 4474.5432,74.819269 c 6.8659,6.399471 13.0737,12.438182 14.5247,14.114102 2.0778,2.404577 2.394,7.657557 2.394,10.609396 0,2.949803 -2.4977,6.124313 -2.4977,6.124313 0,0 0,15.96327 0,20.88555 0,4.91871 -2.078,9.18214 -3.8501,10.1615 0,0 -5.7208,-3.05323 -14.8771,-0.43414 -7.9489,2.28892 -7.7416,7.1954 -13.4105,8.45349 l -6.0835,-12.26902 c 0,0 19.6598,-8.6364 21.5357,-9.61577 1.8706,-0.98955 3.4355,-3.72024 1.8706,-11.37729 -1.5597,-7.65348 -6.9695,-36.295961 -6.9695,-36.295961 0,0 2.9588,-0.158978 7.3634,-0.35617"
             style="fill:#ca7746;fill-opacity:1;fill-rule:evenodd;stroke:none;stroke-width:0.51385009"
             id="path466"
             inkscape:connector-curvature="0" />
          <path
             d="m 4462.0238,141.55896 -0.1969,0.20484 h -0.015 c -1.7981,1.80942 -3.6376,3.26624 -8.0111,3.26624 -8.9387,0 -9.1459,0 -15.5974,0 -6.4513,0 -12.483,-4.14827 -14.7682,-10.9294 -0.6892,-2.06012 -1.2488,-4.134 -1.8706,-6.23795 0,0 -1.8396,-11.31767 -4.0263,-14.04888 -2.1868,-2.73681 -12.6333,-17.491927 -15.9083,-20.993062 -3.2749,-3.501142 1.824,-4.866742 1.824,-4.866742 0,0 8.7418,0 18.9293,0 10.1927,0 13.3122,0.656818 16.644,3.710565 3.3268,3.067 13.307,15.648879 16.5301,19.571919 3.2283,3.93885 4.8969,11.92252 7.3893,19.68912 2.1246,6.5926 -0.1865,9.81909 -0.9223,10.63335"
             style="fill:#86483a;fill-opacity:1;fill-rule:evenodd;stroke:none;stroke-width:0.51385009"
             id="path468"
             inkscape:connector-curvature="0" />
          <path
             d="m 4465.563,84.12268 c -9.5656,-8.528897 -15.39,-13.120982 -31.2051,-13.120982 -15.8045,0 -53.2485,0 -53.2485,0 -1.7255,0.0064 -2.9795,0.688405 -3.8501,1.656044 -0.9638,-1.646364 -1.5597,-3.393622 -1.5597,-5.47769 0,-4.157948 0,-5.360501 0,-7.770683 0,-2.400502 1.5027,-5.895526 5.4098,-5.899602 0,0 37.444,0 53.2485,0 15.8151,0 21.6395,4.590055 31.2051,13.114869 9.5709,8.530935 21.4269,19.908226 23.5049,22.308735 2.0778,2.404577 2.394,7.657557 2.394,10.609396 0,2.949803 -2.4977,6.124313 -2.4977,6.124313 0,0 0,0.22879 0,0.64102 -2.3474,-2.63948 -13.9806,-13.793595 -23.4012,-22.18542"
             style="fill:#ffffff;fill-opacity:1;fill-rule:evenodd;stroke:none;stroke-width:0.51385009"
             id="path470"
             inkscape:connector-curvature="0" />
          <path
             d="m 4709.6534,636.2792 v 132.14741 c 0,7.34266 -6.099,13.3401 -13.5608,13.3401 h -201.4439 c -7.4567,0 -13.5609,-5.99744 -13.5609,-13.3401 V 636.2792 h 228.5656"
             style="fill:#454343;fill-opacity:1;fill-rule:evenodd;stroke:none;stroke-width:0.51385009"
             id="path472"
             inkscape:connector-curvature="0" />
          <path
             d="m 4472.4445,629.27794 h 245.8471 c 2.565,0 4.6636,2.05859 4.6636,4.58088 v 0.005 c 0,2.51719 -2.0986,4.57578 -4.6636,4.57578 h -245.8471 c -2.5599,0 -4.6533,-2.05859 -4.6533,-4.57578 v -0.005 c 0,-2.52229 2.0934,-4.58088 4.6533,-4.58088"
             style="fill:#454343;fill-opacity:1;fill-rule:evenodd;stroke:none;stroke-width:0.51385009"
             id="path474"
             inkscape:connector-curvature="0" />
          <path
             d="m 4705.6375,136.42318 c -1.1503,-11.69373 3.161,-4.75871 3.161,-4.75871 -1.2074,-8.91361 1.114,-4.62216 1.114,-4.62216 9.8144,-0.74445 16.6751,-3.17451 25.733,-3.17451 9.0631,0 9.6693,8.15896 9.6693,8.15896 9.6642,0.44739 11.9286,9.95615 11.9286,9.95615 28.4224,196.77299 69.5662,318.97445 48.8647,343.28012 -19.0329,22.3337 -40.3872,31.46489 -61.1767,29.10057 -31.1273,-14.22672 -29.8629,-101.82445 -29.8629,-101.82445 -13.7526,-93.81326 -0.539,-185.44105 -9.431,-276.11597"
             style="fill:#f89f93;fill-opacity:1;fill-rule:evenodd;stroke:none;stroke-width:0.51385009"
             id="path476"
             inkscape:connector-curvature="0" />
          <path
             d="m 4809.7199,53.147476 c 0,0 -37.4699,0 -53.29,0 -15.8254,0 -21.6549,4.59566 -31.231,13.130663 -9.576,8.53501 -21.4424,19.90874 -23.5255,22.323005 -2.0779,2.41018 -2.3888,7.659085 -2.3888,10.614999 0,2.955917 2.4976,6.124317 2.4976,6.124317 0,0 0,15.97957 0,20.90797 0,4.92228 2.0831,9.18571 3.8553,10.17475 0,0 5.7259,-3.06292 14.8874,-0.43771 9.1615,2.62369 7.493,8.74801 16.442,8.74801 8.9542,0 9.1563,0 15.6129,0 6.4566,0 12.4934,-4.14827 14.7838,-10.93348 2.2903,-6.78724 3.1194,-13.78952 9.576,-21.44911 6.4514,-7.66317 29.9769,-31.952536 32.8891,-35.23456 2.9174,-3.292219 5.3114,-6.130433 5.3114,-10.288888 0,-4.162031 0,-5.359987 0,-7.770684 0,-2.408144 -1.5079,-5.899601 -5.4202,-5.909282"
             style="fill:#ca7746;fill-opacity:1;fill-rule:evenodd;stroke:none;stroke-width:0.51385009"
             id="path478"
             inkscape:connector-curvature="0" />
          <path
             d="m 4809.7199,53.147476 c 0,0 -37.4699,0 -53.29,0 -4.5652,0 -8.291,0.38216 -11.5193,1.130693 0.3628,7.893999 0.8136,17.3304 0.8136,17.3304 0,0 0,3.113372 0,8.035654 0,4.926357 0.2176,8.029527 18.3385,8.029527 l 23.2976,-0.0499 c 0,0 3.2593,0 7.0006,0 3.6895,0 6.8971,-1.482796 8.5242,-3.129166 l 0.078,-0.08153 c 3.4148,-3.59642 6.0161,-6.343419 6.8659,-7.296794 2.9174,-3.29222 5.3114,-6.130433 5.3114,-10.288889 0,-4.16203 0,-5.359986 0,-7.770683 0,-2.408145 -1.5079,-5.899601 -5.4202,-5.909282"
             style="fill:#ca7746;fill-opacity:1;fill-rule:evenodd;stroke:none;stroke-width:0.51385009"
             id="path480"
             inkscape:connector-curvature="0" />
          <path
             d="m 4716.2137,74.470726 c -6.8712,6.405592 -13.0842,12.450416 -14.5403,14.130418 -2.0779,2.41018 -2.3888,7.659085 -2.3888,10.614999 0,2.955917 2.4976,6.124317 2.4976,6.124317 0,0 0,15.97957 0,20.90797 0,4.92228 2.0831,9.18571 3.8553,10.17475 0,0 5.7259,-3.06292 14.8874,-0.43771 7.9541,2.28331 7.7469,7.19948 13.4158,8.45756 l 6.0886,-12.27512 c 0,0 -19.6754,-8.65272 -21.5512,-9.63004 -1.8706,-0.98293 -3.4356,-3.71414 -1.8706,-11.3773 1.5597,-7.6652 6.9747,-36.337226 6.9747,-36.337226 0,0 -2.9588,-0.15338 -7.3685,-0.352618"
             style="fill:#ca7746;fill-opacity:1;fill-rule:evenodd;stroke:none;stroke-width:0.51385009"
             id="path482"
             inkscape:connector-curvature="0" />
          <path
             d="m 4728.7433,141.26393 0.1969,0.20331 0.01,0.01 c 1.8084,1.79974 3.6479,3.25655 8.0162,3.25655 8.9542,0 9.1563,0 15.6129,0 6.4566,0 12.4934,-4.14827 14.7838,-10.93348 0.6944,-2.054 1.2488,-4.13807 1.8758,-6.24202 0,0 1.8343,-11.32736 4.0263,-14.05856 2.1815,-2.73681 12.6385,-17.509765 15.9186,-21.008861 3.2749,-3.507253 -1.824,-4.866739 -1.824,-4.866739 0,0 -8.747,0 -18.9448,0 -10.2082,0 -13.3277,0.650698 -16.6544,3.714128 -3.3319,3.06751 -13.3225,15.642762 -16.5508,19.587722 -3.2283,3.93324 -4.8916,11.92914 -7.3893,19.69371 -2.1245,6.60839 0.1865,9.83487 0.9224,10.64455"
             style="fill:#86483a;fill-opacity:1;fill-rule:evenodd;stroke:none;stroke-width:0.51385009"
             id="path484"
             inkscape:connector-curvature="0" />
          <path
             d="m 4725.1989,83.786378 c 9.5761,-8.53501 15.4056,-13.137291 31.231,-13.137291 15.8201,0 53.29,0 53.29,0 1.7255,0.01223 2.9847,0.688913 3.8553,1.662157 0.9638,-1.649931 1.5649,-3.397697 1.5649,-5.483802 0,-4.162031 0,-5.359987 0,-7.770684 0,-2.408144 -1.5079,-5.899601 -5.4202,-5.909282 0,0 -37.4699,0 -53.29,0 -15.8254,0 -21.6549,4.59566 -31.231,13.130663 -9.576,8.53501 -21.4424,19.90874 -23.5255,22.323005 -2.0779,2.41018 -2.3888,7.659085 -2.3888,10.614999 0,2.955917 2.4976,6.124317 2.4976,6.124317 0,0 0,0.2293 0,0.64713 2.3422,-2.64509 13.991,-13.797669 23.4167,-22.201212"
             style="fill:#ffffff;fill-opacity:1;fill-rule:evenodd;stroke:none;stroke-width:0.51385009"
             id="path486"
             inkscape:connector-curvature="0" />
          <path
             d="m 4343.9484,36.704204 c -8.6594,50.61898 -24.7454,144.559626 -40.7018,237.471476 -20.4579,119.04632 -40.6894,236.25926 -44.8529,258.44519 -3.9734,21.17702 -9.9144,34.87889 -18.0681,43.08269 -7.5944,7.6382 -17.6607,10.58851 -30.3458,10.58851 h -52.4278 c -12.7338,0 -22.7597,-2.60381 -30.2873,-10.0331 -8.0847,-7.97959 -14.0029,-21.68147 -18.1266,-43.6381 -4.0117,-21.36555 -24.2468,-138.57849 -44.7358,-257.82811 -15.9927,-93.10651 -32.1352,-187.373786 -40.8148,-238.088556 h -14.9283 c 8.5744,50.109422 24.9723,145.879366 41.2262,240.463066 20.3951,118.71612 40.5945,235.69824 44.7902,258.05742 4.7025,25.03942 11.9571,41.15658 22.1606,51.23553 10.7586,10.61908 24.1422,14.32863 40.7158,14.32863 h 52.4278 c 16.6202,0 30.1256,-4.17834 40.894,-15.00124 10.2036,-10.26749 17.442,-26.37955 21.9824,-50.56292 4.3537,-23.18466 24.5469,-140.1576 44.9078,-258.6643 16.2135,-94.38854 32.5606,-189.844084 41.1107,-239.856186 h -14.9263"
             style="fill:#ffffff;fill-opacity:1;fill-rule:evenodd;stroke:none;stroke-width:0.51385009"
             id="path488"
             inkscape:connector-curvature="0" />
          <path
             d="m 5167.163,36.704204 c -8.664,50.61898 -24.7485,144.559626 -40.7033,237.471476 -20.4527,119.04632 -40.6878,236.25926 -44.854,258.44519 -3.9745,21.17702 -9.9129,34.87889 -18.0639,43.08269 -7.5965,7.6382 -17.6648,10.58851 -30.35,10.58851 h -52.4246 c -12.737,0 -22.7587,-2.60381 -30.2931,-10.0331 -8.0785,-7.97959 -14.0013,-21.68147 -18.1208,-43.6381 -4.016,-21.36555 -24.2458,-138.57849 -44.7349,-257.82811 -15.9963,-93.10651 -32.1377,-187.373786 -40.8172,-238.088556 h -14.9289 c 8.5759,50.109422 24.9712,145.879366 41.2215,240.463066 20.4008,118.71612 40.5997,235.69824 44.797,258.05742 4.6999,25.03942 11.9544,41.15658 22.1575,51.23553 10.7575,10.61908 24.1421,14.32863 40.7189,14.32863 h 52.4246 c 16.6233,0 30.1272,-4.17834 40.8899,-15.00124 10.2134,-10.26749 17.4472,-26.37955 21.9917,-50.56292 4.3476,-23.18466 24.5412,-140.1576 44.9058,-258.6643 16.2139,-94.38854 32.5575,-189.844084 41.1127,-239.856186 h -14.9289"
             style="fill:#ffffff;fill-opacity:1;fill-rule:evenodd;stroke:none;stroke-width:0.51385009"
             id="path490"
             inkscape:connector-curvature="0" />
          <path
             d="m 4055.9616,614.94931 h 1078.8253 c 8.0163,0 14.5713,-6.45093 14.5713,-14.33371 v 0 c 0,-7.87769 -6.555,-14.32353 -14.5713,-14.32353 H 4055.9616 c -8.0174,0 -14.574,6.44584 -14.574,14.32353 v 0 c 0,7.88278 6.5566,14.33371 14.574,14.33371"
             style="fill:#86483a;fill-opacity:1;fill-rule:evenodd;stroke:none;stroke-width:0.51385009"
             id="path492"
             inkscape:connector-curvature="0" />
          <path
             d="m 4015.6122,629.27794 h 1159.5153 c 8.0163,0 14.5662,-6.44585 14.5662,-14.32863 v 0 c 0,-7.88278 -6.5499,-14.33371 -14.5662,-14.33371 H 4015.6122 c -8.0096,0 -14.5657,6.45093 -14.5657,14.33371 v 0 c 0,7.88278 6.5561,14.32863 14.5657,14.32863"
             style="fill:#ca7746;fill-opacity:1;fill-rule:evenodd;stroke:none;stroke-width:0.51385009"
             id="path494"
             inkscape:connector-curvature="0" />
        </g>
      </g>
    </g>
  </g>
</svg>
